%TF.GenerationSoftware,KiCad,Pcbnew,(5.1.10)-1*%
%TF.CreationDate,2022-01-17T02:07:02+07:00*%
%TF.ProjectId,Power_manager_v3,506f7765-725f-46d6-916e-616765725f76,rev?*%
%TF.SameCoordinates,Original*%
%TF.FileFunction,Legend,Top*%
%TF.FilePolarity,Positive*%
%FSLAX46Y46*%
G04 Gerber Fmt 4.6, Leading zero omitted, Abs format (unit mm)*
G04 Created by KiCad (PCBNEW (5.1.10)-1) date 2022-01-17 02:07:02*
%MOMM*%
%LPD*%
G01*
G04 APERTURE LIST*
%ADD10C,0.150000*%
%ADD11C,0.120000*%
%ADD12R,1.800000X0.650000*%
%ADD13C,1.000000*%
%ADD14R,1.000000X1.000000*%
%ADD15C,1.600000*%
%ADD16R,1.600000X1.600000*%
%ADD17R,2.400000X1.700000*%
%ADD18O,2.400000X1.700000*%
%ADD19O,1.700000X1.700000*%
%ADD20R,1.900000X2.700000*%
%ADD21O,1.000000X1.000000*%
%ADD22C,1.500000*%
%ADD23O,1.600000X1.600000*%
%ADD24R,0.400000X3.200000*%
%ADD25C,2.000000*%
%ADD26C,0.020000*%
%ADD27C,1.800000*%
%ADD28R,1.800000X1.800000*%
%ADD29R,0.450000X0.600000*%
G04 APERTURE END LIST*
D10*
X86688904Y-97499666D02*
X87165095Y-97499666D01*
X86593666Y-97785380D02*
X86927000Y-96785380D01*
X87260333Y-97785380D01*
X88165095Y-97690142D02*
X88117476Y-97737761D01*
X87974619Y-97785380D01*
X87879380Y-97785380D01*
X87736523Y-97737761D01*
X87641285Y-97642523D01*
X87593666Y-97547285D01*
X87546047Y-97356809D01*
X87546047Y-97213952D01*
X87593666Y-97023476D01*
X87641285Y-96928238D01*
X87736523Y-96833000D01*
X87879380Y-96785380D01*
X87974619Y-96785380D01*
X88117476Y-96833000D01*
X88165095Y-96880619D01*
D11*
%TO.C,J5*%
X101548000Y-95028000D02*
X99628000Y-95028000D01*
X99628000Y-95028000D02*
X99628000Y-94743000D01*
X99628000Y-93573000D02*
X99628000Y-92203000D01*
X99628000Y-91033000D02*
X99628000Y-89663000D01*
X99628000Y-88493000D02*
X99628000Y-88208000D01*
X101548000Y-88208000D02*
X99628000Y-88208000D01*
X101548000Y-95028000D02*
X101548000Y-93473000D01*
X101548000Y-92303000D02*
X101548000Y-90933000D01*
X101548000Y-89763000D02*
X101548000Y-88208000D01*
X99628000Y-94743000D02*
X98398000Y-94743000D01*
%TO.C,U7*%
X85776000Y-82552000D02*
X80515000Y-82552000D01*
X100254000Y-85952000D02*
X100254000Y-82552000D01*
X85776000Y-85952000D02*
X85776000Y-82552000D01*
X85776000Y-85952000D02*
X80515000Y-85952000D01*
X93015000Y-87052000D02*
X93015000Y-85802000D01*
X105515000Y-75052000D02*
X105515000Y-87552000D01*
X105515000Y-75052000D02*
X80515000Y-75052000D01*
X80515000Y-87552000D02*
X80515000Y-75052000D01*
X100254000Y-82552000D02*
X105515000Y-82552000D01*
X105515000Y-87552000D02*
X80515000Y-87552000D01*
X105515000Y-85952000D02*
X100254000Y-85952000D01*
%TO.C,J4*%
X124952000Y-98222000D02*
X124952000Y-99552000D01*
X123622000Y-99552000D02*
X124952000Y-99552000D01*
X122352000Y-96892000D02*
X122352000Y-99552000D01*
X122352000Y-99552000D02*
X117212000Y-99552000D01*
X122352000Y-96892000D02*
X117212000Y-96892000D01*
X117212000Y-96892000D02*
X117212000Y-99552000D01*
%TO.C,J3*%
X115046000Y-98222000D02*
X115046000Y-99552000D01*
X113716000Y-99552000D02*
X115046000Y-99552000D01*
X112446000Y-96892000D02*
X112446000Y-99552000D01*
X112446000Y-99552000D02*
X107306000Y-99552000D01*
X112446000Y-96892000D02*
X107306000Y-96892000D01*
X107306000Y-96892000D02*
X107306000Y-99552000D01*
%TO.C,J1*%
X82788000Y-98222000D02*
X82788000Y-99552000D01*
X81458000Y-99552000D02*
X82788000Y-99552000D01*
X80188000Y-96892000D02*
X80188000Y-99552000D01*
X80188000Y-99552000D02*
X75048000Y-99552000D01*
X80188000Y-96892000D02*
X75048000Y-96892000D01*
X75048000Y-96892000D02*
X75048000Y-99552000D01*
%TO.C,J6*%
X92574000Y-75070000D02*
X92574000Y-79183034D01*
X92464000Y-75070000D02*
X92464000Y-79078855D01*
X92354000Y-75070000D02*
X92354000Y-79008007D01*
X92244000Y-75070000D02*
X92244000Y-78960573D01*
X92134000Y-75070000D02*
X92134000Y-78932086D01*
X92024000Y-75070000D02*
X92024000Y-78920411D01*
X91914000Y-75070000D02*
X91914000Y-78924768D01*
X91804000Y-75070000D02*
X91804000Y-78945442D01*
X91694000Y-75070000D02*
X91694000Y-78983886D01*
X91584000Y-75070000D02*
X91584000Y-79043309D01*
X91474000Y-75070000D02*
X91474000Y-79130477D01*
X91364000Y-75070000D02*
X91364000Y-79262418D01*
X90094000Y-75070000D02*
X90094000Y-79262418D01*
X92694000Y-75070000D02*
X92694000Y-79372470D01*
X88764000Y-75070000D02*
X88764000Y-79372470D01*
X92694000Y-75070000D02*
X88764000Y-75070000D01*
X92759000Y-81710000D02*
X91999000Y-81710000D01*
X92759000Y-80950000D02*
X92759000Y-81710000D01*
%TO.C,C17*%
X91363420Y-83615000D02*
X91644580Y-83615000D01*
X91363420Y-84635000D02*
X91644580Y-84635000D01*
%TO.C,KP1*%
X90155000Y-86157000D02*
G75*
G03*
X90155000Y-86157000I-950000J0D01*
G01*
%TO.C,F1*%
X114070000Y-86062000D02*
X113740000Y-86062000D01*
X114070000Y-92602000D02*
X114070000Y-86062000D01*
X113740000Y-92602000D02*
X114070000Y-92602000D01*
X111330000Y-86062000D02*
X111660000Y-86062000D01*
X111330000Y-92602000D02*
X111330000Y-86062000D01*
X111660000Y-92602000D02*
X111330000Y-92602000D01*
%TO.C,R25*%
X103541500Y-81124258D02*
X103541500Y-80649742D01*
X104586500Y-81124258D02*
X104586500Y-80649742D01*
%TO.C,R23*%
X102935500Y-80648742D02*
X102935500Y-81123258D01*
X101890500Y-80648742D02*
X101890500Y-81123258D01*
%TO.C,C15*%
X96176420Y-93267000D02*
X96457580Y-93267000D01*
X96176420Y-94287000D02*
X96457580Y-94287000D01*
%TO.C,C7*%
X106196420Y-80567000D02*
X106477580Y-80567000D01*
X106196420Y-81587000D02*
X106477580Y-81587000D01*
%TO.C,Y1*%
X93374000Y-81515000D02*
X93524000Y-81515000D01*
X93374000Y-79115000D02*
X93524000Y-79115000D01*
X95924000Y-79115000D02*
X95974000Y-79115000D01*
X96974000Y-79115000D02*
X96824000Y-79115000D01*
X96974000Y-81515000D02*
X96824000Y-81515000D01*
X97174000Y-79515000D02*
X97174000Y-79115000D01*
X96974000Y-79515000D02*
X96974000Y-79115000D01*
X93374000Y-79515000D02*
X93374000Y-79115000D01*
X97174000Y-81515000D02*
X97174000Y-79515000D01*
X95924000Y-79115000D02*
X95924000Y-78715000D01*
X96974000Y-79515000D02*
X96974000Y-81515000D01*
X93374000Y-81515000D02*
X93374000Y-79515000D01*
%TO.C,U5*%
X97547000Y-89009500D02*
X97547000Y-85409500D01*
X97547000Y-89009500D02*
X97547000Y-91209500D01*
X90777000Y-89009500D02*
X90777000Y-86809500D01*
X90777000Y-89009500D02*
X90777000Y-91209500D01*
%TO.C,R24*%
X94682742Y-83504500D02*
X95157258Y-83504500D01*
X94682742Y-82459500D02*
X95157258Y-82459500D01*
%TO.C,C5*%
X94668000Y-77013580D02*
X94668000Y-76732420D01*
X93648000Y-77013580D02*
X93648000Y-76732420D01*
%TO.C,C4*%
X96700000Y-77013580D02*
X96700000Y-76732420D01*
X95680000Y-77013580D02*
X95680000Y-76732420D01*
%TO.C,JP6*%
X88657000Y-93158000D02*
X91457000Y-93158000D01*
X91457000Y-93158000D02*
X91457000Y-95158000D01*
X91457000Y-95158000D02*
X88657000Y-95158000D01*
X88657000Y-95158000D02*
X88657000Y-93158000D01*
%TO.C,JP5*%
X90332000Y-88149000D02*
X90332000Y-90949000D01*
X90332000Y-90949000D02*
X88332000Y-90949000D01*
X88332000Y-90949000D02*
X88332000Y-88149000D01*
X88332000Y-88149000D02*
X90332000Y-88149000D01*
%TO.C,JP3*%
X83252000Y-78376000D02*
X83252000Y-75576000D01*
X83252000Y-75576000D02*
X85252000Y-75576000D01*
X85252000Y-75576000D02*
X85252000Y-78376000D01*
X85252000Y-78376000D02*
X83252000Y-78376000D01*
%TO.C,JP2*%
X83196000Y-90618000D02*
X85996000Y-90618000D01*
X85996000Y-90618000D02*
X85996000Y-92618000D01*
X85996000Y-92618000D02*
X83196000Y-92618000D01*
X83196000Y-92618000D02*
X83196000Y-90618000D01*
%TO.C,R21*%
X117903564Y-86946000D02*
X117449436Y-86946000D01*
X117903564Y-88416000D02*
X117449436Y-88416000D01*
%TO.C,R20*%
X117903564Y-95401000D02*
X117449436Y-95401000D01*
X117903564Y-93931000D02*
X117449436Y-93931000D01*
%TO.C,R19*%
X107997564Y-86946000D02*
X107543436Y-86946000D01*
X107997564Y-88416000D02*
X107543436Y-88416000D01*
%TO.C,R18*%
X107870564Y-93931000D02*
X107416436Y-93931000D01*
X107870564Y-95401000D02*
X107416436Y-95401000D01*
%TO.C,C12*%
X117452748Y-90448000D02*
X117975252Y-90448000D01*
X117452748Y-88978000D02*
X117975252Y-88978000D01*
%TO.C,C11*%
X117980252Y-91899000D02*
X117457748Y-91899000D01*
X117980252Y-93369000D02*
X117457748Y-93369000D01*
%TO.C,C10*%
X107551748Y-90448000D02*
X108074252Y-90448000D01*
X107551748Y-88978000D02*
X108074252Y-88978000D01*
%TO.C,C9*%
X107942252Y-91899000D02*
X107419748Y-91899000D01*
X107942252Y-93369000D02*
X107419748Y-93369000D01*
%TO.C,R9*%
X118651758Y-77036600D02*
X118177242Y-77036600D01*
X118651758Y-78081600D02*
X118177242Y-78081600D01*
%TO.C,R8*%
X120780742Y-76519500D02*
X121255258Y-76519500D01*
X120780742Y-75474500D02*
X121255258Y-75474500D01*
%TO.C,R6*%
X108745758Y-76998500D02*
X108271242Y-76998500D01*
X108745758Y-78043500D02*
X108271242Y-78043500D01*
%TO.C,R5*%
X110874742Y-76519500D02*
X111349258Y-76519500D01*
X110874742Y-75474500D02*
X111349258Y-75474500D01*
%TO.C,R2*%
X118143758Y-75474500D02*
X117669242Y-75474500D01*
X118143758Y-76519500D02*
X117669242Y-76519500D01*
%TO.C,R1*%
X108237758Y-75474500D02*
X107763242Y-75474500D01*
X108237758Y-76519500D02*
X107763242Y-76519500D01*
%TO.C,D4*%
X120613000Y-79944000D02*
X120613000Y-77394000D01*
X122313000Y-79944000D02*
X122313000Y-77394000D01*
X120613000Y-79944000D02*
X122313000Y-79944000D01*
%TO.C,D3*%
X110707000Y-79944000D02*
X110707000Y-77394000D01*
X112407000Y-79944000D02*
X112407000Y-77394000D01*
X110707000Y-79944000D02*
X112407000Y-79944000D01*
%TO.C,C2*%
X118287420Y-79682000D02*
X118568580Y-79682000D01*
X118287420Y-78662000D02*
X118568580Y-78662000D01*
%TO.C,C1*%
X108381420Y-79682000D02*
X108662580Y-79682000D01*
X108381420Y-78662000D02*
X108662580Y-78662000D01*
%TO.C,C3*%
X84506580Y-78916000D02*
X84225420Y-78916000D01*
X84506580Y-79936000D02*
X84225420Y-79936000D01*
%TO.C,JP1*%
X83196000Y-97603000D02*
X85996000Y-97603000D01*
X85996000Y-97603000D02*
X85996000Y-99603000D01*
X85996000Y-99603000D02*
X83196000Y-99603000D01*
X83196000Y-99603000D02*
X83196000Y-97603000D01*
%TO.C,J2*%
X79551000Y-80950000D02*
X79551000Y-81710000D01*
X79551000Y-81710000D02*
X78791000Y-81710000D01*
X79486000Y-75070000D02*
X75556000Y-75070000D01*
X75556000Y-75070000D02*
X75556000Y-79372470D01*
X79486000Y-75070000D02*
X79486000Y-79372470D01*
X76886000Y-75070000D02*
X76886000Y-79262418D01*
X78156000Y-75070000D02*
X78156000Y-79262418D01*
X78266000Y-75070000D02*
X78266000Y-79130477D01*
X78376000Y-75070000D02*
X78376000Y-79043309D01*
X78486000Y-75070000D02*
X78486000Y-78983886D01*
X78596000Y-75070000D02*
X78596000Y-78945442D01*
X78706000Y-75070000D02*
X78706000Y-78924768D01*
X78816000Y-75070000D02*
X78816000Y-78920411D01*
X78926000Y-75070000D02*
X78926000Y-78932086D01*
X79036000Y-75070000D02*
X79036000Y-78960573D01*
X79146000Y-75070000D02*
X79146000Y-79008007D01*
X79256000Y-75070000D02*
X79256000Y-79078855D01*
X79366000Y-75070000D02*
X79366000Y-79183034D01*
%TO.C,F2*%
X124103000Y-86062000D02*
X123773000Y-86062000D01*
X124103000Y-92602000D02*
X124103000Y-86062000D01*
X123773000Y-92602000D02*
X124103000Y-92602000D01*
X121363000Y-86062000D02*
X121693000Y-86062000D01*
X121363000Y-92602000D02*
X121363000Y-86062000D01*
X121693000Y-92602000D02*
X121363000Y-92602000D01*
%TO.C,J5*%
D10*
X100254666Y-95920380D02*
X100254666Y-96634666D01*
X100207047Y-96777523D01*
X100111809Y-96872761D01*
X99968952Y-96920380D01*
X99873714Y-96920380D01*
X101207047Y-95920380D02*
X100730857Y-95920380D01*
X100683238Y-96396571D01*
X100730857Y-96348952D01*
X100826095Y-96301333D01*
X101064190Y-96301333D01*
X101159428Y-96348952D01*
X101207047Y-96396571D01*
X101254666Y-96491809D01*
X101254666Y-96729904D01*
X101207047Y-96825142D01*
X101159428Y-96872761D01*
X101064190Y-96920380D01*
X100826095Y-96920380D01*
X100730857Y-96872761D01*
X100683238Y-96825142D01*
%TO.C,U7*%
X92253095Y-80654380D02*
X92253095Y-81463904D01*
X92300714Y-81559142D01*
X92348333Y-81606761D01*
X92443571Y-81654380D01*
X92634047Y-81654380D01*
X92729285Y-81606761D01*
X92776904Y-81559142D01*
X92824523Y-81463904D01*
X92824523Y-80654380D01*
X93205476Y-80654380D02*
X93872142Y-80654380D01*
X93443571Y-81654380D01*
%TO.C,J4*%
X115922666Y-97928380D02*
X115922666Y-98642666D01*
X115875047Y-98785523D01*
X115779809Y-98880761D01*
X115636952Y-98928380D01*
X115541714Y-98928380D01*
X116827428Y-98261714D02*
X116827428Y-98928380D01*
X116589333Y-97880761D02*
X116351238Y-98595047D01*
X116970285Y-98595047D01*
%TO.C,J3*%
X106016666Y-97928380D02*
X106016666Y-98642666D01*
X105969047Y-98785523D01*
X105873809Y-98880761D01*
X105730952Y-98928380D01*
X105635714Y-98928380D01*
X106397619Y-97928380D02*
X107016666Y-97928380D01*
X106683333Y-98309333D01*
X106826190Y-98309333D01*
X106921428Y-98356952D01*
X106969047Y-98404571D01*
X107016666Y-98499809D01*
X107016666Y-98737904D01*
X106969047Y-98833142D01*
X106921428Y-98880761D01*
X106826190Y-98928380D01*
X106540476Y-98928380D01*
X106445238Y-98880761D01*
X106397619Y-98833142D01*
%TO.C,J1*%
X78711666Y-95515380D02*
X78711666Y-96229666D01*
X78664047Y-96372523D01*
X78568809Y-96467761D01*
X78425952Y-96515380D01*
X78330714Y-96515380D01*
X79711666Y-96515380D02*
X79140238Y-96515380D01*
X79425952Y-96515380D02*
X79425952Y-95515380D01*
X79330714Y-95658238D01*
X79235476Y-95753476D01*
X79140238Y-95801095D01*
%TO.C,J6*%
X87768380Y-80648333D02*
X88482666Y-80648333D01*
X88625523Y-80695952D01*
X88720761Y-80791190D01*
X88768380Y-80934047D01*
X88768380Y-81029285D01*
X87768380Y-79743571D02*
X87768380Y-79934047D01*
X87816000Y-80029285D01*
X87863619Y-80076904D01*
X88006476Y-80172142D01*
X88196952Y-80219761D01*
X88577904Y-80219761D01*
X88673142Y-80172142D01*
X88720761Y-80124523D01*
X88768380Y-80029285D01*
X88768380Y-79838809D01*
X88720761Y-79743571D01*
X88673142Y-79695952D01*
X88577904Y-79648333D01*
X88339809Y-79648333D01*
X88244571Y-79695952D01*
X88196952Y-79743571D01*
X88149333Y-79838809D01*
X88149333Y-80029285D01*
X88196952Y-80124523D01*
X88244571Y-80172142D01*
X88339809Y-80219761D01*
%TO.C,C17*%
X90848142Y-83212142D02*
X90800523Y-83259761D01*
X90657666Y-83307380D01*
X90562428Y-83307380D01*
X90419571Y-83259761D01*
X90324333Y-83164523D01*
X90276714Y-83069285D01*
X90229095Y-82878809D01*
X90229095Y-82735952D01*
X90276714Y-82545476D01*
X90324333Y-82450238D01*
X90419571Y-82355000D01*
X90562428Y-82307380D01*
X90657666Y-82307380D01*
X90800523Y-82355000D01*
X90848142Y-82402619D01*
X91800523Y-83307380D02*
X91229095Y-83307380D01*
X91514809Y-83307380D02*
X91514809Y-82307380D01*
X91419571Y-82450238D01*
X91324333Y-82545476D01*
X91229095Y-82593095D01*
X92133857Y-82307380D02*
X92800523Y-82307380D01*
X92371952Y-83307380D01*
%TO.C,KP1*%
X89657380Y-84855095D02*
X88657380Y-84855095D01*
X89657380Y-84283666D02*
X89085952Y-84712238D01*
X88657380Y-84283666D02*
X89228809Y-84855095D01*
X89657380Y-83855095D02*
X88657380Y-83855095D01*
X88657380Y-83474142D01*
X88705000Y-83378904D01*
X88752619Y-83331285D01*
X88847857Y-83283666D01*
X88990714Y-83283666D01*
X89085952Y-83331285D01*
X89133571Y-83378904D01*
X89181190Y-83474142D01*
X89181190Y-83855095D01*
X89657380Y-82331285D02*
X89657380Y-82902714D01*
X89657380Y-82617000D02*
X88657380Y-82617000D01*
X88800238Y-82712238D01*
X88895476Y-82807476D01*
X88943095Y-82902714D01*
%TO.C,F1*%
X114398666Y-85196571D02*
X114065333Y-85196571D01*
X114065333Y-85720380D02*
X114065333Y-84720380D01*
X114541523Y-84720380D01*
X115446285Y-85720380D02*
X114874857Y-85720380D01*
X115160571Y-85720380D02*
X115160571Y-84720380D01*
X115065333Y-84863238D01*
X114970095Y-84958476D01*
X114874857Y-85006095D01*
%TO.C,R25*%
X102786142Y-79497380D02*
X102452809Y-79021190D01*
X102214714Y-79497380D02*
X102214714Y-78497380D01*
X102595666Y-78497380D01*
X102690904Y-78545000D01*
X102738523Y-78592619D01*
X102786142Y-78687857D01*
X102786142Y-78830714D01*
X102738523Y-78925952D01*
X102690904Y-78973571D01*
X102595666Y-79021190D01*
X102214714Y-79021190D01*
X103167095Y-78592619D02*
X103214714Y-78545000D01*
X103309952Y-78497380D01*
X103548047Y-78497380D01*
X103643285Y-78545000D01*
X103690904Y-78592619D01*
X103738523Y-78687857D01*
X103738523Y-78783095D01*
X103690904Y-78925952D01*
X103119476Y-79497380D01*
X103738523Y-79497380D01*
X104643285Y-78497380D02*
X104167095Y-78497380D01*
X104119476Y-78973571D01*
X104167095Y-78925952D01*
X104262333Y-78878333D01*
X104500428Y-78878333D01*
X104595666Y-78925952D01*
X104643285Y-78973571D01*
X104690904Y-79068809D01*
X104690904Y-79306904D01*
X104643285Y-79402142D01*
X104595666Y-79449761D01*
X104500428Y-79497380D01*
X104262333Y-79497380D01*
X104167095Y-79449761D01*
X104119476Y-79402142D01*
%TO.C,R23*%
X101468380Y-81465857D02*
X100992190Y-81799190D01*
X101468380Y-82037285D02*
X100468380Y-82037285D01*
X100468380Y-81656333D01*
X100516000Y-81561095D01*
X100563619Y-81513476D01*
X100658857Y-81465857D01*
X100801714Y-81465857D01*
X100896952Y-81513476D01*
X100944571Y-81561095D01*
X100992190Y-81656333D01*
X100992190Y-82037285D01*
X100563619Y-81084904D02*
X100516000Y-81037285D01*
X100468380Y-80942047D01*
X100468380Y-80703952D01*
X100516000Y-80608714D01*
X100563619Y-80561095D01*
X100658857Y-80513476D01*
X100754095Y-80513476D01*
X100896952Y-80561095D01*
X101468380Y-81132523D01*
X101468380Y-80513476D01*
X100468380Y-80180142D02*
X100468380Y-79561095D01*
X100849333Y-79894428D01*
X100849333Y-79751571D01*
X100896952Y-79656333D01*
X100944571Y-79608714D01*
X101039809Y-79561095D01*
X101277904Y-79561095D01*
X101373142Y-79608714D01*
X101420761Y-79656333D01*
X101468380Y-79751571D01*
X101468380Y-80037285D01*
X101420761Y-80132523D01*
X101373142Y-80180142D01*
%TO.C,C15*%
X95674142Y-95531142D02*
X95626523Y-95578761D01*
X95483666Y-95626380D01*
X95388428Y-95626380D01*
X95245571Y-95578761D01*
X95150333Y-95483523D01*
X95102714Y-95388285D01*
X95055095Y-95197809D01*
X95055095Y-95054952D01*
X95102714Y-94864476D01*
X95150333Y-94769238D01*
X95245571Y-94674000D01*
X95388428Y-94626380D01*
X95483666Y-94626380D01*
X95626523Y-94674000D01*
X95674142Y-94721619D01*
X96626523Y-95626380D02*
X96055095Y-95626380D01*
X96340809Y-95626380D02*
X96340809Y-94626380D01*
X96245571Y-94769238D01*
X96150333Y-94864476D01*
X96055095Y-94912095D01*
X97531285Y-94626380D02*
X97055095Y-94626380D01*
X97007476Y-95102571D01*
X97055095Y-95054952D01*
X97150333Y-95007333D01*
X97388428Y-95007333D01*
X97483666Y-95054952D01*
X97531285Y-95102571D01*
X97578904Y-95197809D01*
X97578904Y-95435904D01*
X97531285Y-95531142D01*
X97483666Y-95578761D01*
X97388428Y-95626380D01*
X97150333Y-95626380D01*
X97055095Y-95578761D01*
X97007476Y-95531142D01*
%TO.C,C7*%
X108469333Y-81434142D02*
X108421714Y-81481761D01*
X108278857Y-81529380D01*
X108183619Y-81529380D01*
X108040761Y-81481761D01*
X107945523Y-81386523D01*
X107897904Y-81291285D01*
X107850285Y-81100809D01*
X107850285Y-80957952D01*
X107897904Y-80767476D01*
X107945523Y-80672238D01*
X108040761Y-80577000D01*
X108183619Y-80529380D01*
X108278857Y-80529380D01*
X108421714Y-80577000D01*
X108469333Y-80624619D01*
X108802666Y-80529380D02*
X109469333Y-80529380D01*
X109040761Y-81529380D01*
%TO.C,Y1*%
X97872809Y-80291190D02*
X97872809Y-80767380D01*
X97539476Y-79767380D02*
X97872809Y-80291190D01*
X98206142Y-79767380D01*
X99063285Y-80767380D02*
X98491857Y-80767380D01*
X98777571Y-80767380D02*
X98777571Y-79767380D01*
X98682333Y-79910238D01*
X98587095Y-80005476D01*
X98491857Y-80053095D01*
%TO.C,U5*%
X97968095Y-86117380D02*
X97968095Y-86926904D01*
X98015714Y-87022142D01*
X98063333Y-87069761D01*
X98158571Y-87117380D01*
X98349047Y-87117380D01*
X98444285Y-87069761D01*
X98491904Y-87022142D01*
X98539523Y-86926904D01*
X98539523Y-86117380D01*
X99491904Y-86117380D02*
X99015714Y-86117380D01*
X98968095Y-86593571D01*
X99015714Y-86545952D01*
X99110952Y-86498333D01*
X99349047Y-86498333D01*
X99444285Y-86545952D01*
X99491904Y-86593571D01*
X99539523Y-86688809D01*
X99539523Y-86926904D01*
X99491904Y-87022142D01*
X99444285Y-87069761D01*
X99349047Y-87117380D01*
X99110952Y-87117380D01*
X99015714Y-87069761D01*
X98968095Y-87022142D01*
%TO.C,R24*%
X97071142Y-83561380D02*
X96737809Y-83085190D01*
X96499714Y-83561380D02*
X96499714Y-82561380D01*
X96880666Y-82561380D01*
X96975904Y-82609000D01*
X97023523Y-82656619D01*
X97071142Y-82751857D01*
X97071142Y-82894714D01*
X97023523Y-82989952D01*
X96975904Y-83037571D01*
X96880666Y-83085190D01*
X96499714Y-83085190D01*
X97452095Y-82656619D02*
X97499714Y-82609000D01*
X97594952Y-82561380D01*
X97833047Y-82561380D01*
X97928285Y-82609000D01*
X97975904Y-82656619D01*
X98023523Y-82751857D01*
X98023523Y-82847095D01*
X97975904Y-82989952D01*
X97404476Y-83561380D01*
X98023523Y-83561380D01*
X98880666Y-82894714D02*
X98880666Y-83561380D01*
X98642571Y-82513761D02*
X98404476Y-83228047D01*
X99023523Y-83228047D01*
%TO.C,C5*%
X97801333Y-76354142D02*
X97753714Y-76401761D01*
X97610857Y-76449380D01*
X97515619Y-76449380D01*
X97372761Y-76401761D01*
X97277523Y-76306523D01*
X97229904Y-76211285D01*
X97182285Y-76020809D01*
X97182285Y-75877952D01*
X97229904Y-75687476D01*
X97277523Y-75592238D01*
X97372761Y-75497000D01*
X97515619Y-75449380D01*
X97610857Y-75449380D01*
X97753714Y-75497000D01*
X97801333Y-75544619D01*
X98706095Y-75449380D02*
X98229904Y-75449380D01*
X98182285Y-75925571D01*
X98229904Y-75877952D01*
X98325142Y-75830333D01*
X98563238Y-75830333D01*
X98658476Y-75877952D01*
X98706095Y-75925571D01*
X98753714Y-76020809D01*
X98753714Y-76258904D01*
X98706095Y-76354142D01*
X98658476Y-76401761D01*
X98563238Y-76449380D01*
X98325142Y-76449380D01*
X98229904Y-76401761D01*
X98182285Y-76354142D01*
%TO.C,C4*%
X97801333Y-77751142D02*
X97753714Y-77798761D01*
X97610857Y-77846380D01*
X97515619Y-77846380D01*
X97372761Y-77798761D01*
X97277523Y-77703523D01*
X97229904Y-77608285D01*
X97182285Y-77417809D01*
X97182285Y-77274952D01*
X97229904Y-77084476D01*
X97277523Y-76989238D01*
X97372761Y-76894000D01*
X97515619Y-76846380D01*
X97610857Y-76846380D01*
X97753714Y-76894000D01*
X97801333Y-76941619D01*
X98658476Y-77179714D02*
X98658476Y-77846380D01*
X98420380Y-76798761D02*
X98182285Y-77513047D01*
X98801333Y-77513047D01*
%TO.C,JP6*%
X89133666Y-95515380D02*
X89133666Y-96229666D01*
X89086047Y-96372523D01*
X88990809Y-96467761D01*
X88847952Y-96515380D01*
X88752714Y-96515380D01*
X89609857Y-96515380D02*
X89609857Y-95515380D01*
X89990809Y-95515380D01*
X90086047Y-95563000D01*
X90133666Y-95610619D01*
X90181285Y-95705857D01*
X90181285Y-95848714D01*
X90133666Y-95943952D01*
X90086047Y-95991571D01*
X89990809Y-96039190D01*
X89609857Y-96039190D01*
X91038428Y-95515380D02*
X90847952Y-95515380D01*
X90752714Y-95563000D01*
X90705095Y-95610619D01*
X90609857Y-95753476D01*
X90562238Y-95943952D01*
X90562238Y-96324904D01*
X90609857Y-96420142D01*
X90657476Y-96467761D01*
X90752714Y-96515380D01*
X90943190Y-96515380D01*
X91038428Y-96467761D01*
X91086047Y-96420142D01*
X91133666Y-96324904D01*
X91133666Y-96086809D01*
X91086047Y-95991571D01*
X91038428Y-95943952D01*
X90943190Y-95896333D01*
X90752714Y-95896333D01*
X90657476Y-95943952D01*
X90609857Y-95991571D01*
X90562238Y-96086809D01*
%TO.C,JP5*%
X88498666Y-91451380D02*
X88498666Y-92165666D01*
X88451047Y-92308523D01*
X88355809Y-92403761D01*
X88212952Y-92451380D01*
X88117714Y-92451380D01*
X88974857Y-92451380D02*
X88974857Y-91451380D01*
X89355809Y-91451380D01*
X89451047Y-91499000D01*
X89498666Y-91546619D01*
X89546285Y-91641857D01*
X89546285Y-91784714D01*
X89498666Y-91879952D01*
X89451047Y-91927571D01*
X89355809Y-91975190D01*
X88974857Y-91975190D01*
X90451047Y-91451380D02*
X89974857Y-91451380D01*
X89927238Y-91927571D01*
X89974857Y-91879952D01*
X90070095Y-91832333D01*
X90308190Y-91832333D01*
X90403428Y-91879952D01*
X90451047Y-91927571D01*
X90498666Y-92022809D01*
X90498666Y-92260904D01*
X90451047Y-92356142D01*
X90403428Y-92403761D01*
X90308190Y-92451380D01*
X90070095Y-92451380D01*
X89974857Y-92403761D01*
X89927238Y-92356142D01*
%TO.C,JP3*%
X85482380Y-77899333D02*
X86196666Y-77899333D01*
X86339523Y-77946952D01*
X86434761Y-78042190D01*
X86482380Y-78185047D01*
X86482380Y-78280285D01*
X86482380Y-77423142D02*
X85482380Y-77423142D01*
X85482380Y-77042190D01*
X85530000Y-76946952D01*
X85577619Y-76899333D01*
X85672857Y-76851714D01*
X85815714Y-76851714D01*
X85910952Y-76899333D01*
X85958571Y-76946952D01*
X86006190Y-77042190D01*
X86006190Y-77423142D01*
X85482380Y-76518380D02*
X85482380Y-75899333D01*
X85863333Y-76232666D01*
X85863333Y-76089809D01*
X85910952Y-75994571D01*
X85958571Y-75946952D01*
X86053809Y-75899333D01*
X86291904Y-75899333D01*
X86387142Y-75946952D01*
X86434761Y-75994571D01*
X86482380Y-76089809D01*
X86482380Y-76375523D01*
X86434761Y-76470761D01*
X86387142Y-76518380D01*
%TO.C,JP2*%
X83672666Y-93102380D02*
X83672666Y-93816666D01*
X83625047Y-93959523D01*
X83529809Y-94054761D01*
X83386952Y-94102380D01*
X83291714Y-94102380D01*
X84148857Y-94102380D02*
X84148857Y-93102380D01*
X84529809Y-93102380D01*
X84625047Y-93150000D01*
X84672666Y-93197619D01*
X84720285Y-93292857D01*
X84720285Y-93435714D01*
X84672666Y-93530952D01*
X84625047Y-93578571D01*
X84529809Y-93626190D01*
X84148857Y-93626190D01*
X85101238Y-93197619D02*
X85148857Y-93150000D01*
X85244095Y-93102380D01*
X85482190Y-93102380D01*
X85577428Y-93150000D01*
X85625047Y-93197619D01*
X85672666Y-93292857D01*
X85672666Y-93388095D01*
X85625047Y-93530952D01*
X85053619Y-94102380D01*
X85672666Y-94102380D01*
%TO.C,R21*%
X117057142Y-86609380D02*
X116723809Y-86133190D01*
X116485714Y-86609380D02*
X116485714Y-85609380D01*
X116866666Y-85609380D01*
X116961904Y-85657000D01*
X117009523Y-85704619D01*
X117057142Y-85799857D01*
X117057142Y-85942714D01*
X117009523Y-86037952D01*
X116961904Y-86085571D01*
X116866666Y-86133190D01*
X116485714Y-86133190D01*
X117438095Y-85704619D02*
X117485714Y-85657000D01*
X117580952Y-85609380D01*
X117819047Y-85609380D01*
X117914285Y-85657000D01*
X117961904Y-85704619D01*
X118009523Y-85799857D01*
X118009523Y-85895095D01*
X117961904Y-86037952D01*
X117390476Y-86609380D01*
X118009523Y-86609380D01*
X118961904Y-86609380D02*
X118390476Y-86609380D01*
X118676190Y-86609380D02*
X118676190Y-85609380D01*
X118580952Y-85752238D01*
X118485714Y-85847476D01*
X118390476Y-85895095D01*
%TO.C,R20*%
X120058142Y-95880380D02*
X119724809Y-95404190D01*
X119486714Y-95880380D02*
X119486714Y-94880380D01*
X119867666Y-94880380D01*
X119962904Y-94928000D01*
X120010523Y-94975619D01*
X120058142Y-95070857D01*
X120058142Y-95213714D01*
X120010523Y-95308952D01*
X119962904Y-95356571D01*
X119867666Y-95404190D01*
X119486714Y-95404190D01*
X120439095Y-94975619D02*
X120486714Y-94928000D01*
X120581952Y-94880380D01*
X120820047Y-94880380D01*
X120915285Y-94928000D01*
X120962904Y-94975619D01*
X121010523Y-95070857D01*
X121010523Y-95166095D01*
X120962904Y-95308952D01*
X120391476Y-95880380D01*
X121010523Y-95880380D01*
X121629571Y-94880380D02*
X121724809Y-94880380D01*
X121820047Y-94928000D01*
X121867666Y-94975619D01*
X121915285Y-95070857D01*
X121962904Y-95261333D01*
X121962904Y-95499428D01*
X121915285Y-95689904D01*
X121867666Y-95785142D01*
X121820047Y-95832761D01*
X121724809Y-95880380D01*
X121629571Y-95880380D01*
X121534333Y-95832761D01*
X121486714Y-95785142D01*
X121439095Y-95689904D01*
X121391476Y-95499428D01*
X121391476Y-95261333D01*
X121439095Y-95070857D01*
X121486714Y-94975619D01*
X121534333Y-94928000D01*
X121629571Y-94880380D01*
%TO.C,R19*%
X108628142Y-86482380D02*
X108294809Y-86006190D01*
X108056714Y-86482380D02*
X108056714Y-85482380D01*
X108437666Y-85482380D01*
X108532904Y-85530000D01*
X108580523Y-85577619D01*
X108628142Y-85672857D01*
X108628142Y-85815714D01*
X108580523Y-85910952D01*
X108532904Y-85958571D01*
X108437666Y-86006190D01*
X108056714Y-86006190D01*
X109580523Y-86482380D02*
X109009095Y-86482380D01*
X109294809Y-86482380D02*
X109294809Y-85482380D01*
X109199571Y-85625238D01*
X109104333Y-85720476D01*
X109009095Y-85768095D01*
X110056714Y-86482380D02*
X110247190Y-86482380D01*
X110342428Y-86434761D01*
X110390047Y-86387142D01*
X110485285Y-86244285D01*
X110532904Y-86053809D01*
X110532904Y-85672857D01*
X110485285Y-85577619D01*
X110437666Y-85530000D01*
X110342428Y-85482380D01*
X110151952Y-85482380D01*
X110056714Y-85530000D01*
X110009095Y-85577619D01*
X109961476Y-85672857D01*
X109961476Y-85910952D01*
X110009095Y-86006190D01*
X110056714Y-86053809D01*
X110151952Y-86101428D01*
X110342428Y-86101428D01*
X110437666Y-86053809D01*
X110485285Y-86006190D01*
X110532904Y-85910952D01*
%TO.C,R18*%
X110025142Y-95880380D02*
X109691809Y-95404190D01*
X109453714Y-95880380D02*
X109453714Y-94880380D01*
X109834666Y-94880380D01*
X109929904Y-94928000D01*
X109977523Y-94975619D01*
X110025142Y-95070857D01*
X110025142Y-95213714D01*
X109977523Y-95308952D01*
X109929904Y-95356571D01*
X109834666Y-95404190D01*
X109453714Y-95404190D01*
X110977523Y-95880380D02*
X110406095Y-95880380D01*
X110691809Y-95880380D02*
X110691809Y-94880380D01*
X110596571Y-95023238D01*
X110501333Y-95118476D01*
X110406095Y-95166095D01*
X111548952Y-95308952D02*
X111453714Y-95261333D01*
X111406095Y-95213714D01*
X111358476Y-95118476D01*
X111358476Y-95070857D01*
X111406095Y-94975619D01*
X111453714Y-94928000D01*
X111548952Y-94880380D01*
X111739428Y-94880380D01*
X111834666Y-94928000D01*
X111882285Y-94975619D01*
X111929904Y-95070857D01*
X111929904Y-95118476D01*
X111882285Y-95213714D01*
X111834666Y-95261333D01*
X111739428Y-95308952D01*
X111548952Y-95308952D01*
X111453714Y-95356571D01*
X111406095Y-95404190D01*
X111358476Y-95499428D01*
X111358476Y-95689904D01*
X111406095Y-95785142D01*
X111453714Y-95832761D01*
X111548952Y-95880380D01*
X111739428Y-95880380D01*
X111834666Y-95832761D01*
X111882285Y-95785142D01*
X111929904Y-95689904D01*
X111929904Y-95499428D01*
X111882285Y-95404190D01*
X111834666Y-95356571D01*
X111739428Y-95308952D01*
%TO.C,C12*%
X120423142Y-90101857D02*
X120470761Y-90149476D01*
X120518380Y-90292333D01*
X120518380Y-90387571D01*
X120470761Y-90530428D01*
X120375523Y-90625666D01*
X120280285Y-90673285D01*
X120089809Y-90720904D01*
X119946952Y-90720904D01*
X119756476Y-90673285D01*
X119661238Y-90625666D01*
X119566000Y-90530428D01*
X119518380Y-90387571D01*
X119518380Y-90292333D01*
X119566000Y-90149476D01*
X119613619Y-90101857D01*
X120518380Y-89149476D02*
X120518380Y-89720904D01*
X120518380Y-89435190D02*
X119518380Y-89435190D01*
X119661238Y-89530428D01*
X119756476Y-89625666D01*
X119804095Y-89720904D01*
X119613619Y-88768523D02*
X119566000Y-88720904D01*
X119518380Y-88625666D01*
X119518380Y-88387571D01*
X119566000Y-88292333D01*
X119613619Y-88244714D01*
X119708857Y-88197095D01*
X119804095Y-88197095D01*
X119946952Y-88244714D01*
X120518380Y-88816142D01*
X120518380Y-88197095D01*
%TO.C,C11*%
X120423142Y-93657857D02*
X120470761Y-93705476D01*
X120518380Y-93848333D01*
X120518380Y-93943571D01*
X120470761Y-94086428D01*
X120375523Y-94181666D01*
X120280285Y-94229285D01*
X120089809Y-94276904D01*
X119946952Y-94276904D01*
X119756476Y-94229285D01*
X119661238Y-94181666D01*
X119566000Y-94086428D01*
X119518380Y-93943571D01*
X119518380Y-93848333D01*
X119566000Y-93705476D01*
X119613619Y-93657857D01*
X120518380Y-92705476D02*
X120518380Y-93276904D01*
X120518380Y-92991190D02*
X119518380Y-92991190D01*
X119661238Y-93086428D01*
X119756476Y-93181666D01*
X119804095Y-93276904D01*
X120518380Y-91753095D02*
X120518380Y-92324523D01*
X120518380Y-92038809D02*
X119518380Y-92038809D01*
X119661238Y-92134047D01*
X119756476Y-92229285D01*
X119804095Y-92324523D01*
%TO.C,C10*%
X110517142Y-90101857D02*
X110564761Y-90149476D01*
X110612380Y-90292333D01*
X110612380Y-90387571D01*
X110564761Y-90530428D01*
X110469523Y-90625666D01*
X110374285Y-90673285D01*
X110183809Y-90720904D01*
X110040952Y-90720904D01*
X109850476Y-90673285D01*
X109755238Y-90625666D01*
X109660000Y-90530428D01*
X109612380Y-90387571D01*
X109612380Y-90292333D01*
X109660000Y-90149476D01*
X109707619Y-90101857D01*
X110612380Y-89149476D02*
X110612380Y-89720904D01*
X110612380Y-89435190D02*
X109612380Y-89435190D01*
X109755238Y-89530428D01*
X109850476Y-89625666D01*
X109898095Y-89720904D01*
X109612380Y-88530428D02*
X109612380Y-88435190D01*
X109660000Y-88339952D01*
X109707619Y-88292333D01*
X109802857Y-88244714D01*
X109993333Y-88197095D01*
X110231428Y-88197095D01*
X110421904Y-88244714D01*
X110517142Y-88292333D01*
X110564761Y-88339952D01*
X110612380Y-88435190D01*
X110612380Y-88530428D01*
X110564761Y-88625666D01*
X110517142Y-88673285D01*
X110421904Y-88720904D01*
X110231428Y-88768523D01*
X109993333Y-88768523D01*
X109802857Y-88720904D01*
X109707619Y-88673285D01*
X109660000Y-88625666D01*
X109612380Y-88530428D01*
%TO.C,C9*%
X110390142Y-93054666D02*
X110437761Y-93102285D01*
X110485380Y-93245142D01*
X110485380Y-93340380D01*
X110437761Y-93483238D01*
X110342523Y-93578476D01*
X110247285Y-93626095D01*
X110056809Y-93673714D01*
X109913952Y-93673714D01*
X109723476Y-93626095D01*
X109628238Y-93578476D01*
X109533000Y-93483238D01*
X109485380Y-93340380D01*
X109485380Y-93245142D01*
X109533000Y-93102285D01*
X109580619Y-93054666D01*
X110485380Y-92578476D02*
X110485380Y-92388000D01*
X110437761Y-92292761D01*
X110390142Y-92245142D01*
X110247285Y-92149904D01*
X110056809Y-92102285D01*
X109675857Y-92102285D01*
X109580619Y-92149904D01*
X109533000Y-92197523D01*
X109485380Y-92292761D01*
X109485380Y-92483238D01*
X109533000Y-92578476D01*
X109580619Y-92626095D01*
X109675857Y-92673714D01*
X109913952Y-92673714D01*
X110009190Y-92626095D01*
X110056809Y-92578476D01*
X110104428Y-92483238D01*
X110104428Y-92292761D01*
X110056809Y-92197523D01*
X110009190Y-92149904D01*
X109913952Y-92102285D01*
%TO.C,R9*%
X115962333Y-78227380D02*
X115629000Y-77751190D01*
X115390904Y-78227380D02*
X115390904Y-77227380D01*
X115771857Y-77227380D01*
X115867095Y-77275000D01*
X115914714Y-77322619D01*
X115962333Y-77417857D01*
X115962333Y-77560714D01*
X115914714Y-77655952D01*
X115867095Y-77703571D01*
X115771857Y-77751190D01*
X115390904Y-77751190D01*
X116438523Y-78227380D02*
X116629000Y-78227380D01*
X116724238Y-78179761D01*
X116771857Y-78132142D01*
X116867095Y-77989285D01*
X116914714Y-77798809D01*
X116914714Y-77417857D01*
X116867095Y-77322619D01*
X116819476Y-77275000D01*
X116724238Y-77227380D01*
X116533761Y-77227380D01*
X116438523Y-77275000D01*
X116390904Y-77322619D01*
X116343285Y-77417857D01*
X116343285Y-77655952D01*
X116390904Y-77751190D01*
X116438523Y-77798809D01*
X116533761Y-77846428D01*
X116724238Y-77846428D01*
X116819476Y-77798809D01*
X116867095Y-77751190D01*
X116914714Y-77655952D01*
%TO.C,R8*%
X123328333Y-76195380D02*
X122995000Y-75719190D01*
X122756904Y-76195380D02*
X122756904Y-75195380D01*
X123137857Y-75195380D01*
X123233095Y-75243000D01*
X123280714Y-75290619D01*
X123328333Y-75385857D01*
X123328333Y-75528714D01*
X123280714Y-75623952D01*
X123233095Y-75671571D01*
X123137857Y-75719190D01*
X122756904Y-75719190D01*
X123899761Y-75623952D02*
X123804523Y-75576333D01*
X123756904Y-75528714D01*
X123709285Y-75433476D01*
X123709285Y-75385857D01*
X123756904Y-75290619D01*
X123804523Y-75243000D01*
X123899761Y-75195380D01*
X124090238Y-75195380D01*
X124185476Y-75243000D01*
X124233095Y-75290619D01*
X124280714Y-75385857D01*
X124280714Y-75433476D01*
X124233095Y-75528714D01*
X124185476Y-75576333D01*
X124090238Y-75623952D01*
X123899761Y-75623952D01*
X123804523Y-75671571D01*
X123756904Y-75719190D01*
X123709285Y-75814428D01*
X123709285Y-76004904D01*
X123756904Y-76100142D01*
X123804523Y-76147761D01*
X123899761Y-76195380D01*
X124090238Y-76195380D01*
X124185476Y-76147761D01*
X124233095Y-76100142D01*
X124280714Y-76004904D01*
X124280714Y-75814428D01*
X124233095Y-75719190D01*
X124185476Y-75671571D01*
X124090238Y-75623952D01*
%TO.C,R6*%
X106056333Y-78227380D02*
X105723000Y-77751190D01*
X105484904Y-78227380D02*
X105484904Y-77227380D01*
X105865857Y-77227380D01*
X105961095Y-77275000D01*
X106008714Y-77322619D01*
X106056333Y-77417857D01*
X106056333Y-77560714D01*
X106008714Y-77655952D01*
X105961095Y-77703571D01*
X105865857Y-77751190D01*
X105484904Y-77751190D01*
X106913476Y-77227380D02*
X106723000Y-77227380D01*
X106627761Y-77275000D01*
X106580142Y-77322619D01*
X106484904Y-77465476D01*
X106437285Y-77655952D01*
X106437285Y-78036904D01*
X106484904Y-78132142D01*
X106532523Y-78179761D01*
X106627761Y-78227380D01*
X106818238Y-78227380D01*
X106913476Y-78179761D01*
X106961095Y-78132142D01*
X107008714Y-78036904D01*
X107008714Y-77798809D01*
X106961095Y-77703571D01*
X106913476Y-77655952D01*
X106818238Y-77608333D01*
X106627761Y-77608333D01*
X106532523Y-77655952D01*
X106484904Y-77703571D01*
X106437285Y-77798809D01*
%TO.C,R5*%
X113422333Y-76195380D02*
X113089000Y-75719190D01*
X112850904Y-76195380D02*
X112850904Y-75195380D01*
X113231857Y-75195380D01*
X113327095Y-75243000D01*
X113374714Y-75290619D01*
X113422333Y-75385857D01*
X113422333Y-75528714D01*
X113374714Y-75623952D01*
X113327095Y-75671571D01*
X113231857Y-75719190D01*
X112850904Y-75719190D01*
X114327095Y-75195380D02*
X113850904Y-75195380D01*
X113803285Y-75671571D01*
X113850904Y-75623952D01*
X113946142Y-75576333D01*
X114184238Y-75576333D01*
X114279476Y-75623952D01*
X114327095Y-75671571D01*
X114374714Y-75766809D01*
X114374714Y-76004904D01*
X114327095Y-76100142D01*
X114279476Y-76147761D01*
X114184238Y-76195380D01*
X113946142Y-76195380D01*
X113850904Y-76147761D01*
X113803285Y-76100142D01*
%TO.C,R2*%
X115454333Y-76703380D02*
X115121000Y-76227190D01*
X114882904Y-76703380D02*
X114882904Y-75703380D01*
X115263857Y-75703380D01*
X115359095Y-75751000D01*
X115406714Y-75798619D01*
X115454333Y-75893857D01*
X115454333Y-76036714D01*
X115406714Y-76131952D01*
X115359095Y-76179571D01*
X115263857Y-76227190D01*
X114882904Y-76227190D01*
X115835285Y-75798619D02*
X115882904Y-75751000D01*
X115978142Y-75703380D01*
X116216238Y-75703380D01*
X116311476Y-75751000D01*
X116359095Y-75798619D01*
X116406714Y-75893857D01*
X116406714Y-75989095D01*
X116359095Y-76131952D01*
X115787666Y-76703380D01*
X116406714Y-76703380D01*
%TO.C,R1*%
X105738833Y-76703380D02*
X105405500Y-76227190D01*
X105167404Y-76703380D02*
X105167404Y-75703380D01*
X105548357Y-75703380D01*
X105643595Y-75751000D01*
X105691214Y-75798619D01*
X105738833Y-75893857D01*
X105738833Y-76036714D01*
X105691214Y-76131952D01*
X105643595Y-76179571D01*
X105548357Y-76227190D01*
X105167404Y-76227190D01*
X106691214Y-76703380D02*
X106119785Y-76703380D01*
X106405500Y-76703380D02*
X106405500Y-75703380D01*
X106310261Y-75846238D01*
X106215023Y-75941476D01*
X106119785Y-75989095D01*
%TO.C,D4*%
X120724904Y-81275380D02*
X120724904Y-80275380D01*
X120963000Y-80275380D01*
X121105857Y-80323000D01*
X121201095Y-80418238D01*
X121248714Y-80513476D01*
X121296333Y-80703952D01*
X121296333Y-80846809D01*
X121248714Y-81037285D01*
X121201095Y-81132523D01*
X121105857Y-81227761D01*
X120963000Y-81275380D01*
X120724904Y-81275380D01*
X122153476Y-80608714D02*
X122153476Y-81275380D01*
X121915380Y-80227761D02*
X121677285Y-80942047D01*
X122296333Y-80942047D01*
%TO.C,D3*%
X110818904Y-81275380D02*
X110818904Y-80275380D01*
X111057000Y-80275380D01*
X111199857Y-80323000D01*
X111295095Y-80418238D01*
X111342714Y-80513476D01*
X111390333Y-80703952D01*
X111390333Y-80846809D01*
X111342714Y-81037285D01*
X111295095Y-81132523D01*
X111199857Y-81227761D01*
X111057000Y-81275380D01*
X110818904Y-81275380D01*
X111723666Y-80275380D02*
X112342714Y-80275380D01*
X112009380Y-80656333D01*
X112152238Y-80656333D01*
X112247476Y-80703952D01*
X112295095Y-80751571D01*
X112342714Y-80846809D01*
X112342714Y-81084904D01*
X112295095Y-81180142D01*
X112247476Y-81227761D01*
X112152238Y-81275380D01*
X111866523Y-81275380D01*
X111771285Y-81227761D01*
X111723666Y-81180142D01*
%TO.C,C2*%
X115962333Y-79656142D02*
X115914714Y-79703761D01*
X115771857Y-79751380D01*
X115676619Y-79751380D01*
X115533761Y-79703761D01*
X115438523Y-79608523D01*
X115390904Y-79513285D01*
X115343285Y-79322809D01*
X115343285Y-79179952D01*
X115390904Y-78989476D01*
X115438523Y-78894238D01*
X115533761Y-78799000D01*
X115676619Y-78751380D01*
X115771857Y-78751380D01*
X115914714Y-78799000D01*
X115962333Y-78846619D01*
X116343285Y-78846619D02*
X116390904Y-78799000D01*
X116486142Y-78751380D01*
X116724238Y-78751380D01*
X116819476Y-78799000D01*
X116867095Y-78846619D01*
X116914714Y-78941857D01*
X116914714Y-79037095D01*
X116867095Y-79179952D01*
X116295666Y-79751380D01*
X116914714Y-79751380D01*
%TO.C,C1*%
X106310333Y-79656142D02*
X106262714Y-79703761D01*
X106119857Y-79751380D01*
X106024619Y-79751380D01*
X105881761Y-79703761D01*
X105786523Y-79608523D01*
X105738904Y-79513285D01*
X105691285Y-79322809D01*
X105691285Y-79179952D01*
X105738904Y-78989476D01*
X105786523Y-78894238D01*
X105881761Y-78799000D01*
X106024619Y-78751380D01*
X106119857Y-78751380D01*
X106262714Y-78799000D01*
X106310333Y-78846619D01*
X107262714Y-79751380D02*
X106691285Y-79751380D01*
X106977000Y-79751380D02*
X106977000Y-78751380D01*
X106881761Y-78894238D01*
X106786523Y-78989476D01*
X106691285Y-79037095D01*
%TO.C,C3*%
X84212333Y-81180142D02*
X84164714Y-81227761D01*
X84021857Y-81275380D01*
X83926619Y-81275380D01*
X83783761Y-81227761D01*
X83688523Y-81132523D01*
X83640904Y-81037285D01*
X83593285Y-80846809D01*
X83593285Y-80703952D01*
X83640904Y-80513476D01*
X83688523Y-80418238D01*
X83783761Y-80323000D01*
X83926619Y-80275380D01*
X84021857Y-80275380D01*
X84164714Y-80323000D01*
X84212333Y-80370619D01*
X84545666Y-80275380D02*
X85164714Y-80275380D01*
X84831380Y-80656333D01*
X84974238Y-80656333D01*
X85069476Y-80703952D01*
X85117095Y-80751571D01*
X85164714Y-80846809D01*
X85164714Y-81084904D01*
X85117095Y-81180142D01*
X85069476Y-81227761D01*
X84974238Y-81275380D01*
X84688523Y-81275380D01*
X84593285Y-81227761D01*
X84545666Y-81180142D01*
%TO.C,JP1*%
X83799666Y-96150380D02*
X83799666Y-96864666D01*
X83752047Y-97007523D01*
X83656809Y-97102761D01*
X83513952Y-97150380D01*
X83418714Y-97150380D01*
X84275857Y-97150380D02*
X84275857Y-96150380D01*
X84656809Y-96150380D01*
X84752047Y-96198000D01*
X84799666Y-96245619D01*
X84847285Y-96340857D01*
X84847285Y-96483714D01*
X84799666Y-96578952D01*
X84752047Y-96626571D01*
X84656809Y-96674190D01*
X84275857Y-96674190D01*
X85799666Y-97150380D02*
X85228238Y-97150380D01*
X85513952Y-97150380D02*
X85513952Y-96150380D01*
X85418714Y-96293238D01*
X85323476Y-96388476D01*
X85228238Y-96436095D01*
%TO.C,J2*%
X77187666Y-81799380D02*
X77187666Y-82513666D01*
X77140047Y-82656523D01*
X77044809Y-82751761D01*
X76901952Y-82799380D01*
X76806714Y-82799380D01*
X77616238Y-81894619D02*
X77663857Y-81847000D01*
X77759095Y-81799380D01*
X77997190Y-81799380D01*
X78092428Y-81847000D01*
X78140047Y-81894619D01*
X78187666Y-81989857D01*
X78187666Y-82085095D01*
X78140047Y-82227952D01*
X77568619Y-82799380D01*
X78187666Y-82799380D01*
%TO.C,F2*%
X120367666Y-85196571D02*
X120034333Y-85196571D01*
X120034333Y-85720380D02*
X120034333Y-84720380D01*
X120510523Y-84720380D01*
X120843857Y-84815619D02*
X120891476Y-84768000D01*
X120986714Y-84720380D01*
X121224809Y-84720380D01*
X121320047Y-84768000D01*
X121367666Y-84815619D01*
X121415285Y-84910857D01*
X121415285Y-85006095D01*
X121367666Y-85148952D01*
X120796238Y-85720380D01*
X121415285Y-85720380D01*
%TD*%
%LPC*%
D12*
%TO.C,J5*%
X99238000Y-89078000D03*
X99238000Y-91618000D03*
X99238000Y-94158000D03*
X101938000Y-90348000D03*
X101938000Y-92888000D03*
%TD*%
D13*
%TO.C,U7*%
X104191000Y-84887000D03*
X104191000Y-83617000D03*
X102921000Y-84887000D03*
X102921000Y-83617000D03*
X101651000Y-84887000D03*
D14*
X101651000Y-83617000D03*
D13*
X84379000Y-84887000D03*
X84379000Y-83617000D03*
X83109000Y-84887000D03*
X83109000Y-83617000D03*
X81839000Y-84887000D03*
D14*
X81839000Y-83617000D03*
%TD*%
D15*
%TO.C,U4*%
X87427000Y-94158000D03*
X87427000Y-91618000D03*
X87436500Y-89078000D03*
X87427000Y-83998000D03*
X87427000Y-81458000D03*
X87427000Y-78918000D03*
D16*
X87427000Y-76378000D03*
%TD*%
D17*
%TO.C,U1*%
X81458000Y-97333000D03*
D18*
X81458000Y-92253000D03*
X81458000Y-79553000D03*
X81458000Y-77013000D03*
%TD*%
D19*
%TO.C,J4*%
X118542000Y-98222000D03*
X121082000Y-98222000D03*
D20*
X123622000Y-97714000D03*
%TD*%
D19*
%TO.C,J3*%
X108636000Y-98222000D03*
X111176000Y-98222000D03*
D20*
X113716000Y-97714000D03*
%TD*%
D19*
%TO.C,J1*%
X76378000Y-98222000D03*
X78918000Y-98222000D03*
D20*
X81458000Y-97714000D03*
%TD*%
D21*
%TO.C,JP4*%
X103810000Y-77902000D03*
X103810000Y-76632000D03*
X102540000Y-77902000D03*
D14*
X102540000Y-76632000D03*
%TD*%
D21*
%TO.C,J6*%
X89459000Y-79680000D03*
X89459000Y-80950000D03*
X90729000Y-79680000D03*
X90729000Y-80950000D03*
X91999000Y-79680000D03*
D14*
X91999000Y-80950000D03*
%TD*%
%TO.C,C17*%
G36*
G01*
X91829000Y-84375000D02*
X91829000Y-83875000D01*
G75*
G02*
X92054000Y-83650000I225000J0D01*
G01*
X92504000Y-83650000D01*
G75*
G02*
X92729000Y-83875000I0J-225000D01*
G01*
X92729000Y-84375000D01*
G75*
G02*
X92504000Y-84600000I-225000J0D01*
G01*
X92054000Y-84600000D01*
G75*
G02*
X91829000Y-84375000I0J225000D01*
G01*
G37*
G36*
G01*
X90279000Y-84375000D02*
X90279000Y-83875000D01*
G75*
G02*
X90504000Y-83650000I225000J0D01*
G01*
X90954000Y-83650000D01*
G75*
G02*
X91179000Y-83875000I0J-225000D01*
G01*
X91179000Y-84375000D01*
G75*
G02*
X90954000Y-84600000I-225000J0D01*
G01*
X90504000Y-84600000D01*
G75*
G02*
X90279000Y-84375000I0J225000D01*
G01*
G37*
%TD*%
D22*
%TO.C,KP1*%
X89205000Y-86157000D03*
%TD*%
D23*
%TO.C,F1*%
X112700000Y-85522000D03*
D15*
X112700000Y-93142000D03*
%TD*%
%TO.C,R25*%
G36*
G01*
X104339000Y-80462000D02*
X103789000Y-80462000D01*
G75*
G02*
X103589000Y-80262000I0J200000D01*
G01*
X103589000Y-79862000D01*
G75*
G02*
X103789000Y-79662000I200000J0D01*
G01*
X104339000Y-79662000D01*
G75*
G02*
X104539000Y-79862000I0J-200000D01*
G01*
X104539000Y-80262000D01*
G75*
G02*
X104339000Y-80462000I-200000J0D01*
G01*
G37*
G36*
G01*
X104339000Y-82112000D02*
X103789000Y-82112000D01*
G75*
G02*
X103589000Y-81912000I0J200000D01*
G01*
X103589000Y-81512000D01*
G75*
G02*
X103789000Y-81312000I200000J0D01*
G01*
X104339000Y-81312000D01*
G75*
G02*
X104539000Y-81512000I0J-200000D01*
G01*
X104539000Y-81912000D01*
G75*
G02*
X104339000Y-82112000I-200000J0D01*
G01*
G37*
%TD*%
%TO.C,R23*%
G36*
G01*
X102138000Y-81311000D02*
X102688000Y-81311000D01*
G75*
G02*
X102888000Y-81511000I0J-200000D01*
G01*
X102888000Y-81911000D01*
G75*
G02*
X102688000Y-82111000I-200000J0D01*
G01*
X102138000Y-82111000D01*
G75*
G02*
X101938000Y-81911000I0J200000D01*
G01*
X101938000Y-81511000D01*
G75*
G02*
X102138000Y-81311000I200000J0D01*
G01*
G37*
G36*
G01*
X102138000Y-79661000D02*
X102688000Y-79661000D01*
G75*
G02*
X102888000Y-79861000I0J-200000D01*
G01*
X102888000Y-80261000D01*
G75*
G02*
X102688000Y-80461000I-200000J0D01*
G01*
X102138000Y-80461000D01*
G75*
G02*
X101938000Y-80261000I0J200000D01*
G01*
X101938000Y-79861000D01*
G75*
G02*
X102138000Y-79661000I200000J0D01*
G01*
G37*
%TD*%
%TO.C,C15*%
G36*
G01*
X96642000Y-94027000D02*
X96642000Y-93527000D01*
G75*
G02*
X96867000Y-93302000I225000J0D01*
G01*
X97317000Y-93302000D01*
G75*
G02*
X97542000Y-93527000I0J-225000D01*
G01*
X97542000Y-94027000D01*
G75*
G02*
X97317000Y-94252000I-225000J0D01*
G01*
X96867000Y-94252000D01*
G75*
G02*
X96642000Y-94027000I0J225000D01*
G01*
G37*
G36*
G01*
X95092000Y-94027000D02*
X95092000Y-93527000D01*
G75*
G02*
X95317000Y-93302000I225000J0D01*
G01*
X95767000Y-93302000D01*
G75*
G02*
X95992000Y-93527000I0J-225000D01*
G01*
X95992000Y-94027000D01*
G75*
G02*
X95767000Y-94252000I-225000J0D01*
G01*
X95317000Y-94252000D01*
G75*
G02*
X95092000Y-94027000I0J225000D01*
G01*
G37*
%TD*%
%TO.C,C7*%
G36*
G01*
X106662000Y-81327000D02*
X106662000Y-80827000D01*
G75*
G02*
X106887000Y-80602000I225000J0D01*
G01*
X107337000Y-80602000D01*
G75*
G02*
X107562000Y-80827000I0J-225000D01*
G01*
X107562000Y-81327000D01*
G75*
G02*
X107337000Y-81552000I-225000J0D01*
G01*
X106887000Y-81552000D01*
G75*
G02*
X106662000Y-81327000I0J225000D01*
G01*
G37*
G36*
G01*
X105112000Y-81327000D02*
X105112000Y-80827000D01*
G75*
G02*
X105337000Y-80602000I225000J0D01*
G01*
X105787000Y-80602000D01*
G75*
G02*
X106012000Y-80827000I0J-225000D01*
G01*
X106012000Y-81327000D01*
G75*
G02*
X105787000Y-81552000I-225000J0D01*
G01*
X105337000Y-81552000D01*
G75*
G02*
X105112000Y-81327000I0J225000D01*
G01*
G37*
%TD*%
D24*
%TO.C,Y1*%
X93974000Y-80315000D03*
X95174000Y-80315000D03*
X96374000Y-80315000D03*
%TD*%
%TO.C,U5*%
G36*
G01*
X96987000Y-91134500D02*
X97187000Y-91134500D01*
G75*
G02*
X97287000Y-91234500I0J-100000D01*
G01*
X97287000Y-92509500D01*
G75*
G02*
X97187000Y-92609500I-100000J0D01*
G01*
X96987000Y-92609500D01*
G75*
G02*
X96887000Y-92509500I0J100000D01*
G01*
X96887000Y-91234500D01*
G75*
G02*
X96987000Y-91134500I100000J0D01*
G01*
G37*
G36*
G01*
X96337000Y-91134500D02*
X96537000Y-91134500D01*
G75*
G02*
X96637000Y-91234500I0J-100000D01*
G01*
X96637000Y-92509500D01*
G75*
G02*
X96537000Y-92609500I-100000J0D01*
G01*
X96337000Y-92609500D01*
G75*
G02*
X96237000Y-92509500I0J100000D01*
G01*
X96237000Y-91234500D01*
G75*
G02*
X96337000Y-91134500I100000J0D01*
G01*
G37*
G36*
G01*
X95687000Y-91134500D02*
X95887000Y-91134500D01*
G75*
G02*
X95987000Y-91234500I0J-100000D01*
G01*
X95987000Y-92509500D01*
G75*
G02*
X95887000Y-92609500I-100000J0D01*
G01*
X95687000Y-92609500D01*
G75*
G02*
X95587000Y-92509500I0J100000D01*
G01*
X95587000Y-91234500D01*
G75*
G02*
X95687000Y-91134500I100000J0D01*
G01*
G37*
G36*
G01*
X95037000Y-91134500D02*
X95237000Y-91134500D01*
G75*
G02*
X95337000Y-91234500I0J-100000D01*
G01*
X95337000Y-92509500D01*
G75*
G02*
X95237000Y-92609500I-100000J0D01*
G01*
X95037000Y-92609500D01*
G75*
G02*
X94937000Y-92509500I0J100000D01*
G01*
X94937000Y-91234500D01*
G75*
G02*
X95037000Y-91134500I100000J0D01*
G01*
G37*
G36*
G01*
X94387000Y-91134500D02*
X94587000Y-91134500D01*
G75*
G02*
X94687000Y-91234500I0J-100000D01*
G01*
X94687000Y-92509500D01*
G75*
G02*
X94587000Y-92609500I-100000J0D01*
G01*
X94387000Y-92609500D01*
G75*
G02*
X94287000Y-92509500I0J100000D01*
G01*
X94287000Y-91234500D01*
G75*
G02*
X94387000Y-91134500I100000J0D01*
G01*
G37*
G36*
G01*
X93737000Y-91134500D02*
X93937000Y-91134500D01*
G75*
G02*
X94037000Y-91234500I0J-100000D01*
G01*
X94037000Y-92509500D01*
G75*
G02*
X93937000Y-92609500I-100000J0D01*
G01*
X93737000Y-92609500D01*
G75*
G02*
X93637000Y-92509500I0J100000D01*
G01*
X93637000Y-91234500D01*
G75*
G02*
X93737000Y-91134500I100000J0D01*
G01*
G37*
G36*
G01*
X93087000Y-91134500D02*
X93287000Y-91134500D01*
G75*
G02*
X93387000Y-91234500I0J-100000D01*
G01*
X93387000Y-92509500D01*
G75*
G02*
X93287000Y-92609500I-100000J0D01*
G01*
X93087000Y-92609500D01*
G75*
G02*
X92987000Y-92509500I0J100000D01*
G01*
X92987000Y-91234500D01*
G75*
G02*
X93087000Y-91134500I100000J0D01*
G01*
G37*
G36*
G01*
X92437000Y-91134500D02*
X92637000Y-91134500D01*
G75*
G02*
X92737000Y-91234500I0J-100000D01*
G01*
X92737000Y-92509500D01*
G75*
G02*
X92637000Y-92609500I-100000J0D01*
G01*
X92437000Y-92609500D01*
G75*
G02*
X92337000Y-92509500I0J100000D01*
G01*
X92337000Y-91234500D01*
G75*
G02*
X92437000Y-91134500I100000J0D01*
G01*
G37*
G36*
G01*
X91787000Y-91134500D02*
X91987000Y-91134500D01*
G75*
G02*
X92087000Y-91234500I0J-100000D01*
G01*
X92087000Y-92509500D01*
G75*
G02*
X91987000Y-92609500I-100000J0D01*
G01*
X91787000Y-92609500D01*
G75*
G02*
X91687000Y-92509500I0J100000D01*
G01*
X91687000Y-91234500D01*
G75*
G02*
X91787000Y-91134500I100000J0D01*
G01*
G37*
G36*
G01*
X91137000Y-91134500D02*
X91337000Y-91134500D01*
G75*
G02*
X91437000Y-91234500I0J-100000D01*
G01*
X91437000Y-92509500D01*
G75*
G02*
X91337000Y-92609500I-100000J0D01*
G01*
X91137000Y-92609500D01*
G75*
G02*
X91037000Y-92509500I0J100000D01*
G01*
X91037000Y-91234500D01*
G75*
G02*
X91137000Y-91134500I100000J0D01*
G01*
G37*
G36*
G01*
X91137000Y-85409500D02*
X91337000Y-85409500D01*
G75*
G02*
X91437000Y-85509500I0J-100000D01*
G01*
X91437000Y-86784500D01*
G75*
G02*
X91337000Y-86884500I-100000J0D01*
G01*
X91137000Y-86884500D01*
G75*
G02*
X91037000Y-86784500I0J100000D01*
G01*
X91037000Y-85509500D01*
G75*
G02*
X91137000Y-85409500I100000J0D01*
G01*
G37*
G36*
G01*
X91787000Y-85409500D02*
X91987000Y-85409500D01*
G75*
G02*
X92087000Y-85509500I0J-100000D01*
G01*
X92087000Y-86784500D01*
G75*
G02*
X91987000Y-86884500I-100000J0D01*
G01*
X91787000Y-86884500D01*
G75*
G02*
X91687000Y-86784500I0J100000D01*
G01*
X91687000Y-85509500D01*
G75*
G02*
X91787000Y-85409500I100000J0D01*
G01*
G37*
G36*
G01*
X92437000Y-85409500D02*
X92637000Y-85409500D01*
G75*
G02*
X92737000Y-85509500I0J-100000D01*
G01*
X92737000Y-86784500D01*
G75*
G02*
X92637000Y-86884500I-100000J0D01*
G01*
X92437000Y-86884500D01*
G75*
G02*
X92337000Y-86784500I0J100000D01*
G01*
X92337000Y-85509500D01*
G75*
G02*
X92437000Y-85409500I100000J0D01*
G01*
G37*
G36*
G01*
X93087000Y-85409500D02*
X93287000Y-85409500D01*
G75*
G02*
X93387000Y-85509500I0J-100000D01*
G01*
X93387000Y-86784500D01*
G75*
G02*
X93287000Y-86884500I-100000J0D01*
G01*
X93087000Y-86884500D01*
G75*
G02*
X92987000Y-86784500I0J100000D01*
G01*
X92987000Y-85509500D01*
G75*
G02*
X93087000Y-85409500I100000J0D01*
G01*
G37*
G36*
G01*
X93737000Y-85409500D02*
X93937000Y-85409500D01*
G75*
G02*
X94037000Y-85509500I0J-100000D01*
G01*
X94037000Y-86784500D01*
G75*
G02*
X93937000Y-86884500I-100000J0D01*
G01*
X93737000Y-86884500D01*
G75*
G02*
X93637000Y-86784500I0J100000D01*
G01*
X93637000Y-85509500D01*
G75*
G02*
X93737000Y-85409500I100000J0D01*
G01*
G37*
G36*
G01*
X94387000Y-85409500D02*
X94587000Y-85409500D01*
G75*
G02*
X94687000Y-85509500I0J-100000D01*
G01*
X94687000Y-86784500D01*
G75*
G02*
X94587000Y-86884500I-100000J0D01*
G01*
X94387000Y-86884500D01*
G75*
G02*
X94287000Y-86784500I0J100000D01*
G01*
X94287000Y-85509500D01*
G75*
G02*
X94387000Y-85409500I100000J0D01*
G01*
G37*
G36*
G01*
X95037000Y-85409500D02*
X95237000Y-85409500D01*
G75*
G02*
X95337000Y-85509500I0J-100000D01*
G01*
X95337000Y-86784500D01*
G75*
G02*
X95237000Y-86884500I-100000J0D01*
G01*
X95037000Y-86884500D01*
G75*
G02*
X94937000Y-86784500I0J100000D01*
G01*
X94937000Y-85509500D01*
G75*
G02*
X95037000Y-85409500I100000J0D01*
G01*
G37*
G36*
G01*
X95687000Y-85409500D02*
X95887000Y-85409500D01*
G75*
G02*
X95987000Y-85509500I0J-100000D01*
G01*
X95987000Y-86784500D01*
G75*
G02*
X95887000Y-86884500I-100000J0D01*
G01*
X95687000Y-86884500D01*
G75*
G02*
X95587000Y-86784500I0J100000D01*
G01*
X95587000Y-85509500D01*
G75*
G02*
X95687000Y-85409500I100000J0D01*
G01*
G37*
G36*
G01*
X96337000Y-85409500D02*
X96537000Y-85409500D01*
G75*
G02*
X96637000Y-85509500I0J-100000D01*
G01*
X96637000Y-86784500D01*
G75*
G02*
X96537000Y-86884500I-100000J0D01*
G01*
X96337000Y-86884500D01*
G75*
G02*
X96237000Y-86784500I0J100000D01*
G01*
X96237000Y-85509500D01*
G75*
G02*
X96337000Y-85409500I100000J0D01*
G01*
G37*
G36*
G01*
X96987000Y-85409500D02*
X97187000Y-85409500D01*
G75*
G02*
X97287000Y-85509500I0J-100000D01*
G01*
X97287000Y-86784500D01*
G75*
G02*
X97187000Y-86884500I-100000J0D01*
G01*
X96987000Y-86884500D01*
G75*
G02*
X96887000Y-86784500I0J100000D01*
G01*
X96887000Y-85509500D01*
G75*
G02*
X96987000Y-85409500I100000J0D01*
G01*
G37*
%TD*%
%TO.C,R24*%
G36*
G01*
X95345000Y-83257000D02*
X95345000Y-82707000D01*
G75*
G02*
X95545000Y-82507000I200000J0D01*
G01*
X95945000Y-82507000D01*
G75*
G02*
X96145000Y-82707000I0J-200000D01*
G01*
X96145000Y-83257000D01*
G75*
G02*
X95945000Y-83457000I-200000J0D01*
G01*
X95545000Y-83457000D01*
G75*
G02*
X95345000Y-83257000I0J200000D01*
G01*
G37*
G36*
G01*
X93695000Y-83257000D02*
X93695000Y-82707000D01*
G75*
G02*
X93895000Y-82507000I200000J0D01*
G01*
X94295000Y-82507000D01*
G75*
G02*
X94495000Y-82707000I0J-200000D01*
G01*
X94495000Y-83257000D01*
G75*
G02*
X94295000Y-83457000I-200000J0D01*
G01*
X93895000Y-83457000D01*
G75*
G02*
X93695000Y-83257000I0J200000D01*
G01*
G37*
%TD*%
%TO.C,C5*%
G36*
G01*
X94408000Y-76548000D02*
X93908000Y-76548000D01*
G75*
G02*
X93683000Y-76323000I0J225000D01*
G01*
X93683000Y-75873000D01*
G75*
G02*
X93908000Y-75648000I225000J0D01*
G01*
X94408000Y-75648000D01*
G75*
G02*
X94633000Y-75873000I0J-225000D01*
G01*
X94633000Y-76323000D01*
G75*
G02*
X94408000Y-76548000I-225000J0D01*
G01*
G37*
G36*
G01*
X94408000Y-78098000D02*
X93908000Y-78098000D01*
G75*
G02*
X93683000Y-77873000I0J225000D01*
G01*
X93683000Y-77423000D01*
G75*
G02*
X93908000Y-77198000I225000J0D01*
G01*
X94408000Y-77198000D01*
G75*
G02*
X94633000Y-77423000I0J-225000D01*
G01*
X94633000Y-77873000D01*
G75*
G02*
X94408000Y-78098000I-225000J0D01*
G01*
G37*
%TD*%
%TO.C,C4*%
G36*
G01*
X96440000Y-76548000D02*
X95940000Y-76548000D01*
G75*
G02*
X95715000Y-76323000I0J225000D01*
G01*
X95715000Y-75873000D01*
G75*
G02*
X95940000Y-75648000I225000J0D01*
G01*
X96440000Y-75648000D01*
G75*
G02*
X96665000Y-75873000I0J-225000D01*
G01*
X96665000Y-76323000D01*
G75*
G02*
X96440000Y-76548000I-225000J0D01*
G01*
G37*
G36*
G01*
X96440000Y-78098000D02*
X95940000Y-78098000D01*
G75*
G02*
X95715000Y-77873000I0J225000D01*
G01*
X95715000Y-77423000D01*
G75*
G02*
X95940000Y-77198000I225000J0D01*
G01*
X96440000Y-77198000D01*
G75*
G02*
X96665000Y-77423000I0J-225000D01*
G01*
X96665000Y-77873000D01*
G75*
G02*
X96440000Y-78098000I-225000J0D01*
G01*
G37*
%TD*%
D25*
%TO.C,GND1*%
X78537000Y-86665000D03*
%TD*%
D26*
%TO.C,JP6*%
G36*
X90332000Y-94158000D02*
G01*
X89832000Y-94908000D01*
X88832000Y-94908000D01*
X88832000Y-93408000D01*
X89832000Y-93408000D01*
X90332000Y-94158000D01*
G37*
G36*
X91282000Y-94908000D02*
G01*
X90132000Y-94908000D01*
X90632000Y-94158000D01*
X90132000Y-93408000D01*
X91282000Y-93408000D01*
X91282000Y-94908000D01*
G37*
%TD*%
%TO.C,JP5*%
G36*
X89332000Y-89824000D02*
G01*
X88582000Y-89324000D01*
X88582000Y-88324000D01*
X90082000Y-88324000D01*
X90082000Y-89324000D01*
X89332000Y-89824000D01*
G37*
G36*
X88582000Y-90774000D02*
G01*
X88582000Y-89624000D01*
X89332000Y-90124000D01*
X90082000Y-89624000D01*
X90082000Y-90774000D01*
X88582000Y-90774000D01*
G37*
%TD*%
%TO.C,JP3*%
G36*
X84252000Y-76701000D02*
G01*
X85002000Y-77201000D01*
X85002000Y-78201000D01*
X83502000Y-78201000D01*
X83502000Y-77201000D01*
X84252000Y-76701000D01*
G37*
G36*
X85002000Y-75751000D02*
G01*
X85002000Y-76901000D01*
X84252000Y-76401000D01*
X83502000Y-76901000D01*
X83502000Y-75751000D01*
X85002000Y-75751000D01*
G37*
%TD*%
%TO.C,JP2*%
G36*
X84871000Y-91618000D02*
G01*
X84371000Y-92368000D01*
X83371000Y-92368000D01*
X83371000Y-90868000D01*
X84371000Y-90868000D01*
X84871000Y-91618000D01*
G37*
G36*
X85821000Y-92368000D02*
G01*
X84671000Y-92368000D01*
X85171000Y-91618000D01*
X84671000Y-90868000D01*
X85821000Y-90868000D01*
X85821000Y-92368000D01*
G37*
%TD*%
D27*
%TO.C,U2*%
X113716000Y-77140000D03*
X113716000Y-79680000D03*
X113716000Y-89840000D03*
D28*
X113716000Y-97460000D03*
%TD*%
%TO.C,R21*%
G36*
G01*
X117276500Y-87230999D02*
X117276500Y-88131001D01*
G75*
G02*
X117026501Y-88381000I-249999J0D01*
G01*
X116501499Y-88381000D01*
G75*
G02*
X116251500Y-88131001I0J249999D01*
G01*
X116251500Y-87230999D01*
G75*
G02*
X116501499Y-86981000I249999J0D01*
G01*
X117026501Y-86981000D01*
G75*
G02*
X117276500Y-87230999I0J-249999D01*
G01*
G37*
G36*
G01*
X119101500Y-87230999D02*
X119101500Y-88131001D01*
G75*
G02*
X118851501Y-88381000I-249999J0D01*
G01*
X118326499Y-88381000D01*
G75*
G02*
X118076500Y-88131001I0J249999D01*
G01*
X118076500Y-87230999D01*
G75*
G02*
X118326499Y-86981000I249999J0D01*
G01*
X118851501Y-86981000D01*
G75*
G02*
X119101500Y-87230999I0J-249999D01*
G01*
G37*
%TD*%
%TO.C,R20*%
G36*
G01*
X119101500Y-94215999D02*
X119101500Y-95116001D01*
G75*
G02*
X118851501Y-95366000I-249999J0D01*
G01*
X118326499Y-95366000D01*
G75*
G02*
X118076500Y-95116001I0J249999D01*
G01*
X118076500Y-94215999D01*
G75*
G02*
X118326499Y-93966000I249999J0D01*
G01*
X118851501Y-93966000D01*
G75*
G02*
X119101500Y-94215999I0J-249999D01*
G01*
G37*
G36*
G01*
X117276500Y-94215999D02*
X117276500Y-95116001D01*
G75*
G02*
X117026501Y-95366000I-249999J0D01*
G01*
X116501499Y-95366000D01*
G75*
G02*
X116251500Y-95116001I0J249999D01*
G01*
X116251500Y-94215999D01*
G75*
G02*
X116501499Y-93966000I249999J0D01*
G01*
X117026501Y-93966000D01*
G75*
G02*
X117276500Y-94215999I0J-249999D01*
G01*
G37*
%TD*%
%TO.C,R19*%
G36*
G01*
X107370500Y-87230999D02*
X107370500Y-88131001D01*
G75*
G02*
X107120501Y-88381000I-249999J0D01*
G01*
X106595499Y-88381000D01*
G75*
G02*
X106345500Y-88131001I0J249999D01*
G01*
X106345500Y-87230999D01*
G75*
G02*
X106595499Y-86981000I249999J0D01*
G01*
X107120501Y-86981000D01*
G75*
G02*
X107370500Y-87230999I0J-249999D01*
G01*
G37*
G36*
G01*
X109195500Y-87230999D02*
X109195500Y-88131001D01*
G75*
G02*
X108945501Y-88381000I-249999J0D01*
G01*
X108420499Y-88381000D01*
G75*
G02*
X108170500Y-88131001I0J249999D01*
G01*
X108170500Y-87230999D01*
G75*
G02*
X108420499Y-86981000I249999J0D01*
G01*
X108945501Y-86981000D01*
G75*
G02*
X109195500Y-87230999I0J-249999D01*
G01*
G37*
%TD*%
%TO.C,R18*%
G36*
G01*
X107243500Y-94215999D02*
X107243500Y-95116001D01*
G75*
G02*
X106993501Y-95366000I-249999J0D01*
G01*
X106468499Y-95366000D01*
G75*
G02*
X106218500Y-95116001I0J249999D01*
G01*
X106218500Y-94215999D01*
G75*
G02*
X106468499Y-93966000I249999J0D01*
G01*
X106993501Y-93966000D01*
G75*
G02*
X107243500Y-94215999I0J-249999D01*
G01*
G37*
G36*
G01*
X109068500Y-94215999D02*
X109068500Y-95116001D01*
G75*
G02*
X108818501Y-95366000I-249999J0D01*
G01*
X108293499Y-95366000D01*
G75*
G02*
X108043500Y-95116001I0J249999D01*
G01*
X108043500Y-94215999D01*
G75*
G02*
X108293499Y-93966000I249999J0D01*
G01*
X108818501Y-93966000D01*
G75*
G02*
X109068500Y-94215999I0J-249999D01*
G01*
G37*
%TD*%
%TO.C,C12*%
G36*
G01*
X118164000Y-90188000D02*
X118164000Y-89238000D01*
G75*
G02*
X118414000Y-88988000I250000J0D01*
G01*
X118914000Y-88988000D01*
G75*
G02*
X119164000Y-89238000I0J-250000D01*
G01*
X119164000Y-90188000D01*
G75*
G02*
X118914000Y-90438000I-250000J0D01*
G01*
X118414000Y-90438000D01*
G75*
G02*
X118164000Y-90188000I0J250000D01*
G01*
G37*
G36*
G01*
X116264000Y-90188000D02*
X116264000Y-89238000D01*
G75*
G02*
X116514000Y-88988000I250000J0D01*
G01*
X117014000Y-88988000D01*
G75*
G02*
X117264000Y-89238000I0J-250000D01*
G01*
X117264000Y-90188000D01*
G75*
G02*
X117014000Y-90438000I-250000J0D01*
G01*
X116514000Y-90438000D01*
G75*
G02*
X116264000Y-90188000I0J250000D01*
G01*
G37*
%TD*%
%TO.C,C11*%
G36*
G01*
X117269000Y-92159000D02*
X117269000Y-93109000D01*
G75*
G02*
X117019000Y-93359000I-250000J0D01*
G01*
X116519000Y-93359000D01*
G75*
G02*
X116269000Y-93109000I0J250000D01*
G01*
X116269000Y-92159000D01*
G75*
G02*
X116519000Y-91909000I250000J0D01*
G01*
X117019000Y-91909000D01*
G75*
G02*
X117269000Y-92159000I0J-250000D01*
G01*
G37*
G36*
G01*
X119169000Y-92159000D02*
X119169000Y-93109000D01*
G75*
G02*
X118919000Y-93359000I-250000J0D01*
G01*
X118419000Y-93359000D01*
G75*
G02*
X118169000Y-93109000I0J250000D01*
G01*
X118169000Y-92159000D01*
G75*
G02*
X118419000Y-91909000I250000J0D01*
G01*
X118919000Y-91909000D01*
G75*
G02*
X119169000Y-92159000I0J-250000D01*
G01*
G37*
%TD*%
%TO.C,C10*%
G36*
G01*
X108263000Y-90188000D02*
X108263000Y-89238000D01*
G75*
G02*
X108513000Y-88988000I250000J0D01*
G01*
X109013000Y-88988000D01*
G75*
G02*
X109263000Y-89238000I0J-250000D01*
G01*
X109263000Y-90188000D01*
G75*
G02*
X109013000Y-90438000I-250000J0D01*
G01*
X108513000Y-90438000D01*
G75*
G02*
X108263000Y-90188000I0J250000D01*
G01*
G37*
G36*
G01*
X106363000Y-90188000D02*
X106363000Y-89238000D01*
G75*
G02*
X106613000Y-88988000I250000J0D01*
G01*
X107113000Y-88988000D01*
G75*
G02*
X107363000Y-89238000I0J-250000D01*
G01*
X107363000Y-90188000D01*
G75*
G02*
X107113000Y-90438000I-250000J0D01*
G01*
X106613000Y-90438000D01*
G75*
G02*
X106363000Y-90188000I0J250000D01*
G01*
G37*
%TD*%
%TO.C,C9*%
G36*
G01*
X107231000Y-92159000D02*
X107231000Y-93109000D01*
G75*
G02*
X106981000Y-93359000I-250000J0D01*
G01*
X106481000Y-93359000D01*
G75*
G02*
X106231000Y-93109000I0J250000D01*
G01*
X106231000Y-92159000D01*
G75*
G02*
X106481000Y-91909000I250000J0D01*
G01*
X106981000Y-91909000D01*
G75*
G02*
X107231000Y-92159000I0J-250000D01*
G01*
G37*
G36*
G01*
X109131000Y-92159000D02*
X109131000Y-93109000D01*
G75*
G02*
X108881000Y-93359000I-250000J0D01*
G01*
X108381000Y-93359000D01*
G75*
G02*
X108131000Y-93109000I0J250000D01*
G01*
X108131000Y-92159000D01*
G75*
G02*
X108381000Y-91909000I250000J0D01*
G01*
X108881000Y-91909000D01*
G75*
G02*
X109131000Y-92159000I0J-250000D01*
G01*
G37*
%TD*%
%TO.C,R9*%
G36*
G01*
X117989500Y-77284100D02*
X117989500Y-77834100D01*
G75*
G02*
X117789500Y-78034100I-200000J0D01*
G01*
X117389500Y-78034100D01*
G75*
G02*
X117189500Y-77834100I0J200000D01*
G01*
X117189500Y-77284100D01*
G75*
G02*
X117389500Y-77084100I200000J0D01*
G01*
X117789500Y-77084100D01*
G75*
G02*
X117989500Y-77284100I0J-200000D01*
G01*
G37*
G36*
G01*
X119639500Y-77284100D02*
X119639500Y-77834100D01*
G75*
G02*
X119439500Y-78034100I-200000J0D01*
G01*
X119039500Y-78034100D01*
G75*
G02*
X118839500Y-77834100I0J200000D01*
G01*
X118839500Y-77284100D01*
G75*
G02*
X119039500Y-77084100I200000J0D01*
G01*
X119439500Y-77084100D01*
G75*
G02*
X119639500Y-77284100I0J-200000D01*
G01*
G37*
%TD*%
%TO.C,R8*%
G36*
G01*
X121443000Y-76272000D02*
X121443000Y-75722000D01*
G75*
G02*
X121643000Y-75522000I200000J0D01*
G01*
X122043000Y-75522000D01*
G75*
G02*
X122243000Y-75722000I0J-200000D01*
G01*
X122243000Y-76272000D01*
G75*
G02*
X122043000Y-76472000I-200000J0D01*
G01*
X121643000Y-76472000D01*
G75*
G02*
X121443000Y-76272000I0J200000D01*
G01*
G37*
G36*
G01*
X119793000Y-76272000D02*
X119793000Y-75722000D01*
G75*
G02*
X119993000Y-75522000I200000J0D01*
G01*
X120393000Y-75522000D01*
G75*
G02*
X120593000Y-75722000I0J-200000D01*
G01*
X120593000Y-76272000D01*
G75*
G02*
X120393000Y-76472000I-200000J0D01*
G01*
X119993000Y-76472000D01*
G75*
G02*
X119793000Y-76272000I0J200000D01*
G01*
G37*
%TD*%
%TO.C,R6*%
G36*
G01*
X108083500Y-77246000D02*
X108083500Y-77796000D01*
G75*
G02*
X107883500Y-77996000I-200000J0D01*
G01*
X107483500Y-77996000D01*
G75*
G02*
X107283500Y-77796000I0J200000D01*
G01*
X107283500Y-77246000D01*
G75*
G02*
X107483500Y-77046000I200000J0D01*
G01*
X107883500Y-77046000D01*
G75*
G02*
X108083500Y-77246000I0J-200000D01*
G01*
G37*
G36*
G01*
X109733500Y-77246000D02*
X109733500Y-77796000D01*
G75*
G02*
X109533500Y-77996000I-200000J0D01*
G01*
X109133500Y-77996000D01*
G75*
G02*
X108933500Y-77796000I0J200000D01*
G01*
X108933500Y-77246000D01*
G75*
G02*
X109133500Y-77046000I200000J0D01*
G01*
X109533500Y-77046000D01*
G75*
G02*
X109733500Y-77246000I0J-200000D01*
G01*
G37*
%TD*%
%TO.C,R5*%
G36*
G01*
X111537000Y-76272000D02*
X111537000Y-75722000D01*
G75*
G02*
X111737000Y-75522000I200000J0D01*
G01*
X112137000Y-75522000D01*
G75*
G02*
X112337000Y-75722000I0J-200000D01*
G01*
X112337000Y-76272000D01*
G75*
G02*
X112137000Y-76472000I-200000J0D01*
G01*
X111737000Y-76472000D01*
G75*
G02*
X111537000Y-76272000I0J200000D01*
G01*
G37*
G36*
G01*
X109887000Y-76272000D02*
X109887000Y-75722000D01*
G75*
G02*
X110087000Y-75522000I200000J0D01*
G01*
X110487000Y-75522000D01*
G75*
G02*
X110687000Y-75722000I0J-200000D01*
G01*
X110687000Y-76272000D01*
G75*
G02*
X110487000Y-76472000I-200000J0D01*
G01*
X110087000Y-76472000D01*
G75*
G02*
X109887000Y-76272000I0J200000D01*
G01*
G37*
%TD*%
%TO.C,R2*%
G36*
G01*
X117481500Y-75722000D02*
X117481500Y-76272000D01*
G75*
G02*
X117281500Y-76472000I-200000J0D01*
G01*
X116881500Y-76472000D01*
G75*
G02*
X116681500Y-76272000I0J200000D01*
G01*
X116681500Y-75722000D01*
G75*
G02*
X116881500Y-75522000I200000J0D01*
G01*
X117281500Y-75522000D01*
G75*
G02*
X117481500Y-75722000I0J-200000D01*
G01*
G37*
G36*
G01*
X119131500Y-75722000D02*
X119131500Y-76272000D01*
G75*
G02*
X118931500Y-76472000I-200000J0D01*
G01*
X118531500Y-76472000D01*
G75*
G02*
X118331500Y-76272000I0J200000D01*
G01*
X118331500Y-75722000D01*
G75*
G02*
X118531500Y-75522000I200000J0D01*
G01*
X118931500Y-75522000D01*
G75*
G02*
X119131500Y-75722000I0J-200000D01*
G01*
G37*
%TD*%
%TO.C,R1*%
G36*
G01*
X107575500Y-75722000D02*
X107575500Y-76272000D01*
G75*
G02*
X107375500Y-76472000I-200000J0D01*
G01*
X106975500Y-76472000D01*
G75*
G02*
X106775500Y-76272000I0J200000D01*
G01*
X106775500Y-75722000D01*
G75*
G02*
X106975500Y-75522000I200000J0D01*
G01*
X107375500Y-75522000D01*
G75*
G02*
X107575500Y-75722000I0J-200000D01*
G01*
G37*
G36*
G01*
X109225500Y-75722000D02*
X109225500Y-76272000D01*
G75*
G02*
X109025500Y-76472000I-200000J0D01*
G01*
X108625500Y-76472000D01*
G75*
G02*
X108425500Y-76272000I0J200000D01*
G01*
X108425500Y-75722000D01*
G75*
G02*
X108625500Y-75522000I200000J0D01*
G01*
X109025500Y-75522000D01*
G75*
G02*
X109225500Y-75722000I0J-200000D01*
G01*
G37*
%TD*%
D29*
%TO.C,D4*%
X121463000Y-77394000D03*
X121463000Y-79494000D03*
%TD*%
%TO.C,D3*%
X111557000Y-77394000D03*
X111557000Y-79494000D03*
%TD*%
%TO.C,C2*%
G36*
G01*
X118753000Y-79422000D02*
X118753000Y-78922000D01*
G75*
G02*
X118978000Y-78697000I225000J0D01*
G01*
X119428000Y-78697000D01*
G75*
G02*
X119653000Y-78922000I0J-225000D01*
G01*
X119653000Y-79422000D01*
G75*
G02*
X119428000Y-79647000I-225000J0D01*
G01*
X118978000Y-79647000D01*
G75*
G02*
X118753000Y-79422000I0J225000D01*
G01*
G37*
G36*
G01*
X117203000Y-79422000D02*
X117203000Y-78922000D01*
G75*
G02*
X117428000Y-78697000I225000J0D01*
G01*
X117878000Y-78697000D01*
G75*
G02*
X118103000Y-78922000I0J-225000D01*
G01*
X118103000Y-79422000D01*
G75*
G02*
X117878000Y-79647000I-225000J0D01*
G01*
X117428000Y-79647000D01*
G75*
G02*
X117203000Y-79422000I0J225000D01*
G01*
G37*
%TD*%
%TO.C,C1*%
G36*
G01*
X108847000Y-79422000D02*
X108847000Y-78922000D01*
G75*
G02*
X109072000Y-78697000I225000J0D01*
G01*
X109522000Y-78697000D01*
G75*
G02*
X109747000Y-78922000I0J-225000D01*
G01*
X109747000Y-79422000D01*
G75*
G02*
X109522000Y-79647000I-225000J0D01*
G01*
X109072000Y-79647000D01*
G75*
G02*
X108847000Y-79422000I0J225000D01*
G01*
G37*
G36*
G01*
X107297000Y-79422000D02*
X107297000Y-78922000D01*
G75*
G02*
X107522000Y-78697000I225000J0D01*
G01*
X107972000Y-78697000D01*
G75*
G02*
X108197000Y-78922000I0J-225000D01*
G01*
X108197000Y-79422000D01*
G75*
G02*
X107972000Y-79647000I-225000J0D01*
G01*
X107522000Y-79647000D01*
G75*
G02*
X107297000Y-79422000I0J225000D01*
G01*
G37*
%TD*%
%TO.C,C3*%
G36*
G01*
X84041000Y-79176000D02*
X84041000Y-79676000D01*
G75*
G02*
X83816000Y-79901000I-225000J0D01*
G01*
X83366000Y-79901000D01*
G75*
G02*
X83141000Y-79676000I0J225000D01*
G01*
X83141000Y-79176000D01*
G75*
G02*
X83366000Y-78951000I225000J0D01*
G01*
X83816000Y-78951000D01*
G75*
G02*
X84041000Y-79176000I0J-225000D01*
G01*
G37*
G36*
G01*
X85591000Y-79176000D02*
X85591000Y-79676000D01*
G75*
G02*
X85366000Y-79901000I-225000J0D01*
G01*
X84916000Y-79901000D01*
G75*
G02*
X84691000Y-79676000I0J225000D01*
G01*
X84691000Y-79176000D01*
G75*
G02*
X84916000Y-78951000I225000J0D01*
G01*
X85366000Y-78951000D01*
G75*
G02*
X85591000Y-79176000I0J-225000D01*
G01*
G37*
%TD*%
D27*
%TO.C,U3*%
X123622000Y-77140000D03*
X123622000Y-79680000D03*
X123622000Y-89840000D03*
D28*
X123622000Y-97460000D03*
%TD*%
D26*
%TO.C,JP1*%
G36*
X84871000Y-98603000D02*
G01*
X84371000Y-99353000D01*
X83371000Y-99353000D01*
X83371000Y-97853000D01*
X84371000Y-97853000D01*
X84871000Y-98603000D01*
G37*
G36*
X85821000Y-99353000D02*
G01*
X84671000Y-99353000D01*
X85171000Y-98603000D01*
X84671000Y-97853000D01*
X85821000Y-97853000D01*
X85821000Y-99353000D01*
G37*
%TD*%
D21*
%TO.C,J2*%
X76251000Y-79680000D03*
X76251000Y-80950000D03*
X77521000Y-79680000D03*
X77521000Y-80950000D03*
X78791000Y-79680000D03*
D14*
X78791000Y-80950000D03*
%TD*%
D23*
%TO.C,F2*%
X122733000Y-85522000D03*
D15*
X122733000Y-93142000D03*
%TD*%
M02*
