%TF.GenerationSoftware,KiCad,Pcbnew,(5.1.10)-1*%
%TF.CreationDate,2022-01-17T02:07:02+07:00*%
%TF.ProjectId,Power_manager_v3,506f7765-725f-46d6-916e-616765725f76,rev?*%
%TF.SameCoordinates,Original*%
%TF.FileFunction,Paste,Top*%
%TF.FilePolarity,Positive*%
%FSLAX46Y46*%
G04 Gerber Fmt 4.6, Leading zero omitted, Abs format (unit mm)*
G04 Created by KiCad (PCBNEW (5.1.10)-1) date 2022-01-17 02:07:02*
%MOMM*%
%LPD*%
G01*
G04 APERTURE LIST*
%ADD10R,1.800000X0.650000*%
%ADD11R,0.400000X3.200000*%
%ADD12R,0.450000X0.600000*%
G04 APERTURE END LIST*
D10*
%TO.C,J5*%
X99238000Y-89078000D03*
X99238000Y-91618000D03*
X99238000Y-94158000D03*
X101938000Y-90348000D03*
X101938000Y-92888000D03*
%TD*%
%TO.C,C17*%
G36*
G01*
X91829000Y-84375000D02*
X91829000Y-83875000D01*
G75*
G02*
X92054000Y-83650000I225000J0D01*
G01*
X92504000Y-83650000D01*
G75*
G02*
X92729000Y-83875000I0J-225000D01*
G01*
X92729000Y-84375000D01*
G75*
G02*
X92504000Y-84600000I-225000J0D01*
G01*
X92054000Y-84600000D01*
G75*
G02*
X91829000Y-84375000I0J225000D01*
G01*
G37*
G36*
G01*
X90279000Y-84375000D02*
X90279000Y-83875000D01*
G75*
G02*
X90504000Y-83650000I225000J0D01*
G01*
X90954000Y-83650000D01*
G75*
G02*
X91179000Y-83875000I0J-225000D01*
G01*
X91179000Y-84375000D01*
G75*
G02*
X90954000Y-84600000I-225000J0D01*
G01*
X90504000Y-84600000D01*
G75*
G02*
X90279000Y-84375000I0J225000D01*
G01*
G37*
%TD*%
%TO.C,R25*%
G36*
G01*
X104339000Y-80462000D02*
X103789000Y-80462000D01*
G75*
G02*
X103589000Y-80262000I0J200000D01*
G01*
X103589000Y-79862000D01*
G75*
G02*
X103789000Y-79662000I200000J0D01*
G01*
X104339000Y-79662000D01*
G75*
G02*
X104539000Y-79862000I0J-200000D01*
G01*
X104539000Y-80262000D01*
G75*
G02*
X104339000Y-80462000I-200000J0D01*
G01*
G37*
G36*
G01*
X104339000Y-82112000D02*
X103789000Y-82112000D01*
G75*
G02*
X103589000Y-81912000I0J200000D01*
G01*
X103589000Y-81512000D01*
G75*
G02*
X103789000Y-81312000I200000J0D01*
G01*
X104339000Y-81312000D01*
G75*
G02*
X104539000Y-81512000I0J-200000D01*
G01*
X104539000Y-81912000D01*
G75*
G02*
X104339000Y-82112000I-200000J0D01*
G01*
G37*
%TD*%
%TO.C,R23*%
G36*
G01*
X102138000Y-81311000D02*
X102688000Y-81311000D01*
G75*
G02*
X102888000Y-81511000I0J-200000D01*
G01*
X102888000Y-81911000D01*
G75*
G02*
X102688000Y-82111000I-200000J0D01*
G01*
X102138000Y-82111000D01*
G75*
G02*
X101938000Y-81911000I0J200000D01*
G01*
X101938000Y-81511000D01*
G75*
G02*
X102138000Y-81311000I200000J0D01*
G01*
G37*
G36*
G01*
X102138000Y-79661000D02*
X102688000Y-79661000D01*
G75*
G02*
X102888000Y-79861000I0J-200000D01*
G01*
X102888000Y-80261000D01*
G75*
G02*
X102688000Y-80461000I-200000J0D01*
G01*
X102138000Y-80461000D01*
G75*
G02*
X101938000Y-80261000I0J200000D01*
G01*
X101938000Y-79861000D01*
G75*
G02*
X102138000Y-79661000I200000J0D01*
G01*
G37*
%TD*%
%TO.C,C15*%
G36*
G01*
X96642000Y-94027000D02*
X96642000Y-93527000D01*
G75*
G02*
X96867000Y-93302000I225000J0D01*
G01*
X97317000Y-93302000D01*
G75*
G02*
X97542000Y-93527000I0J-225000D01*
G01*
X97542000Y-94027000D01*
G75*
G02*
X97317000Y-94252000I-225000J0D01*
G01*
X96867000Y-94252000D01*
G75*
G02*
X96642000Y-94027000I0J225000D01*
G01*
G37*
G36*
G01*
X95092000Y-94027000D02*
X95092000Y-93527000D01*
G75*
G02*
X95317000Y-93302000I225000J0D01*
G01*
X95767000Y-93302000D01*
G75*
G02*
X95992000Y-93527000I0J-225000D01*
G01*
X95992000Y-94027000D01*
G75*
G02*
X95767000Y-94252000I-225000J0D01*
G01*
X95317000Y-94252000D01*
G75*
G02*
X95092000Y-94027000I0J225000D01*
G01*
G37*
%TD*%
%TO.C,C7*%
G36*
G01*
X106662000Y-81327000D02*
X106662000Y-80827000D01*
G75*
G02*
X106887000Y-80602000I225000J0D01*
G01*
X107337000Y-80602000D01*
G75*
G02*
X107562000Y-80827000I0J-225000D01*
G01*
X107562000Y-81327000D01*
G75*
G02*
X107337000Y-81552000I-225000J0D01*
G01*
X106887000Y-81552000D01*
G75*
G02*
X106662000Y-81327000I0J225000D01*
G01*
G37*
G36*
G01*
X105112000Y-81327000D02*
X105112000Y-80827000D01*
G75*
G02*
X105337000Y-80602000I225000J0D01*
G01*
X105787000Y-80602000D01*
G75*
G02*
X106012000Y-80827000I0J-225000D01*
G01*
X106012000Y-81327000D01*
G75*
G02*
X105787000Y-81552000I-225000J0D01*
G01*
X105337000Y-81552000D01*
G75*
G02*
X105112000Y-81327000I0J225000D01*
G01*
G37*
%TD*%
D11*
%TO.C,Y1*%
X93974000Y-80315000D03*
X95174000Y-80315000D03*
X96374000Y-80315000D03*
%TD*%
%TO.C,U5*%
G36*
G01*
X96987000Y-91134500D02*
X97187000Y-91134500D01*
G75*
G02*
X97287000Y-91234500I0J-100000D01*
G01*
X97287000Y-92509500D01*
G75*
G02*
X97187000Y-92609500I-100000J0D01*
G01*
X96987000Y-92609500D01*
G75*
G02*
X96887000Y-92509500I0J100000D01*
G01*
X96887000Y-91234500D01*
G75*
G02*
X96987000Y-91134500I100000J0D01*
G01*
G37*
G36*
G01*
X96337000Y-91134500D02*
X96537000Y-91134500D01*
G75*
G02*
X96637000Y-91234500I0J-100000D01*
G01*
X96637000Y-92509500D01*
G75*
G02*
X96537000Y-92609500I-100000J0D01*
G01*
X96337000Y-92609500D01*
G75*
G02*
X96237000Y-92509500I0J100000D01*
G01*
X96237000Y-91234500D01*
G75*
G02*
X96337000Y-91134500I100000J0D01*
G01*
G37*
G36*
G01*
X95687000Y-91134500D02*
X95887000Y-91134500D01*
G75*
G02*
X95987000Y-91234500I0J-100000D01*
G01*
X95987000Y-92509500D01*
G75*
G02*
X95887000Y-92609500I-100000J0D01*
G01*
X95687000Y-92609500D01*
G75*
G02*
X95587000Y-92509500I0J100000D01*
G01*
X95587000Y-91234500D01*
G75*
G02*
X95687000Y-91134500I100000J0D01*
G01*
G37*
G36*
G01*
X95037000Y-91134500D02*
X95237000Y-91134500D01*
G75*
G02*
X95337000Y-91234500I0J-100000D01*
G01*
X95337000Y-92509500D01*
G75*
G02*
X95237000Y-92609500I-100000J0D01*
G01*
X95037000Y-92609500D01*
G75*
G02*
X94937000Y-92509500I0J100000D01*
G01*
X94937000Y-91234500D01*
G75*
G02*
X95037000Y-91134500I100000J0D01*
G01*
G37*
G36*
G01*
X94387000Y-91134500D02*
X94587000Y-91134500D01*
G75*
G02*
X94687000Y-91234500I0J-100000D01*
G01*
X94687000Y-92509500D01*
G75*
G02*
X94587000Y-92609500I-100000J0D01*
G01*
X94387000Y-92609500D01*
G75*
G02*
X94287000Y-92509500I0J100000D01*
G01*
X94287000Y-91234500D01*
G75*
G02*
X94387000Y-91134500I100000J0D01*
G01*
G37*
G36*
G01*
X93737000Y-91134500D02*
X93937000Y-91134500D01*
G75*
G02*
X94037000Y-91234500I0J-100000D01*
G01*
X94037000Y-92509500D01*
G75*
G02*
X93937000Y-92609500I-100000J0D01*
G01*
X93737000Y-92609500D01*
G75*
G02*
X93637000Y-92509500I0J100000D01*
G01*
X93637000Y-91234500D01*
G75*
G02*
X93737000Y-91134500I100000J0D01*
G01*
G37*
G36*
G01*
X93087000Y-91134500D02*
X93287000Y-91134500D01*
G75*
G02*
X93387000Y-91234500I0J-100000D01*
G01*
X93387000Y-92509500D01*
G75*
G02*
X93287000Y-92609500I-100000J0D01*
G01*
X93087000Y-92609500D01*
G75*
G02*
X92987000Y-92509500I0J100000D01*
G01*
X92987000Y-91234500D01*
G75*
G02*
X93087000Y-91134500I100000J0D01*
G01*
G37*
G36*
G01*
X92437000Y-91134500D02*
X92637000Y-91134500D01*
G75*
G02*
X92737000Y-91234500I0J-100000D01*
G01*
X92737000Y-92509500D01*
G75*
G02*
X92637000Y-92609500I-100000J0D01*
G01*
X92437000Y-92609500D01*
G75*
G02*
X92337000Y-92509500I0J100000D01*
G01*
X92337000Y-91234500D01*
G75*
G02*
X92437000Y-91134500I100000J0D01*
G01*
G37*
G36*
G01*
X91787000Y-91134500D02*
X91987000Y-91134500D01*
G75*
G02*
X92087000Y-91234500I0J-100000D01*
G01*
X92087000Y-92509500D01*
G75*
G02*
X91987000Y-92609500I-100000J0D01*
G01*
X91787000Y-92609500D01*
G75*
G02*
X91687000Y-92509500I0J100000D01*
G01*
X91687000Y-91234500D01*
G75*
G02*
X91787000Y-91134500I100000J0D01*
G01*
G37*
G36*
G01*
X91137000Y-91134500D02*
X91337000Y-91134500D01*
G75*
G02*
X91437000Y-91234500I0J-100000D01*
G01*
X91437000Y-92509500D01*
G75*
G02*
X91337000Y-92609500I-100000J0D01*
G01*
X91137000Y-92609500D01*
G75*
G02*
X91037000Y-92509500I0J100000D01*
G01*
X91037000Y-91234500D01*
G75*
G02*
X91137000Y-91134500I100000J0D01*
G01*
G37*
G36*
G01*
X91137000Y-85409500D02*
X91337000Y-85409500D01*
G75*
G02*
X91437000Y-85509500I0J-100000D01*
G01*
X91437000Y-86784500D01*
G75*
G02*
X91337000Y-86884500I-100000J0D01*
G01*
X91137000Y-86884500D01*
G75*
G02*
X91037000Y-86784500I0J100000D01*
G01*
X91037000Y-85509500D01*
G75*
G02*
X91137000Y-85409500I100000J0D01*
G01*
G37*
G36*
G01*
X91787000Y-85409500D02*
X91987000Y-85409500D01*
G75*
G02*
X92087000Y-85509500I0J-100000D01*
G01*
X92087000Y-86784500D01*
G75*
G02*
X91987000Y-86884500I-100000J0D01*
G01*
X91787000Y-86884500D01*
G75*
G02*
X91687000Y-86784500I0J100000D01*
G01*
X91687000Y-85509500D01*
G75*
G02*
X91787000Y-85409500I100000J0D01*
G01*
G37*
G36*
G01*
X92437000Y-85409500D02*
X92637000Y-85409500D01*
G75*
G02*
X92737000Y-85509500I0J-100000D01*
G01*
X92737000Y-86784500D01*
G75*
G02*
X92637000Y-86884500I-100000J0D01*
G01*
X92437000Y-86884500D01*
G75*
G02*
X92337000Y-86784500I0J100000D01*
G01*
X92337000Y-85509500D01*
G75*
G02*
X92437000Y-85409500I100000J0D01*
G01*
G37*
G36*
G01*
X93087000Y-85409500D02*
X93287000Y-85409500D01*
G75*
G02*
X93387000Y-85509500I0J-100000D01*
G01*
X93387000Y-86784500D01*
G75*
G02*
X93287000Y-86884500I-100000J0D01*
G01*
X93087000Y-86884500D01*
G75*
G02*
X92987000Y-86784500I0J100000D01*
G01*
X92987000Y-85509500D01*
G75*
G02*
X93087000Y-85409500I100000J0D01*
G01*
G37*
G36*
G01*
X93737000Y-85409500D02*
X93937000Y-85409500D01*
G75*
G02*
X94037000Y-85509500I0J-100000D01*
G01*
X94037000Y-86784500D01*
G75*
G02*
X93937000Y-86884500I-100000J0D01*
G01*
X93737000Y-86884500D01*
G75*
G02*
X93637000Y-86784500I0J100000D01*
G01*
X93637000Y-85509500D01*
G75*
G02*
X93737000Y-85409500I100000J0D01*
G01*
G37*
G36*
G01*
X94387000Y-85409500D02*
X94587000Y-85409500D01*
G75*
G02*
X94687000Y-85509500I0J-100000D01*
G01*
X94687000Y-86784500D01*
G75*
G02*
X94587000Y-86884500I-100000J0D01*
G01*
X94387000Y-86884500D01*
G75*
G02*
X94287000Y-86784500I0J100000D01*
G01*
X94287000Y-85509500D01*
G75*
G02*
X94387000Y-85409500I100000J0D01*
G01*
G37*
G36*
G01*
X95037000Y-85409500D02*
X95237000Y-85409500D01*
G75*
G02*
X95337000Y-85509500I0J-100000D01*
G01*
X95337000Y-86784500D01*
G75*
G02*
X95237000Y-86884500I-100000J0D01*
G01*
X95037000Y-86884500D01*
G75*
G02*
X94937000Y-86784500I0J100000D01*
G01*
X94937000Y-85509500D01*
G75*
G02*
X95037000Y-85409500I100000J0D01*
G01*
G37*
G36*
G01*
X95687000Y-85409500D02*
X95887000Y-85409500D01*
G75*
G02*
X95987000Y-85509500I0J-100000D01*
G01*
X95987000Y-86784500D01*
G75*
G02*
X95887000Y-86884500I-100000J0D01*
G01*
X95687000Y-86884500D01*
G75*
G02*
X95587000Y-86784500I0J100000D01*
G01*
X95587000Y-85509500D01*
G75*
G02*
X95687000Y-85409500I100000J0D01*
G01*
G37*
G36*
G01*
X96337000Y-85409500D02*
X96537000Y-85409500D01*
G75*
G02*
X96637000Y-85509500I0J-100000D01*
G01*
X96637000Y-86784500D01*
G75*
G02*
X96537000Y-86884500I-100000J0D01*
G01*
X96337000Y-86884500D01*
G75*
G02*
X96237000Y-86784500I0J100000D01*
G01*
X96237000Y-85509500D01*
G75*
G02*
X96337000Y-85409500I100000J0D01*
G01*
G37*
G36*
G01*
X96987000Y-85409500D02*
X97187000Y-85409500D01*
G75*
G02*
X97287000Y-85509500I0J-100000D01*
G01*
X97287000Y-86784500D01*
G75*
G02*
X97187000Y-86884500I-100000J0D01*
G01*
X96987000Y-86884500D01*
G75*
G02*
X96887000Y-86784500I0J100000D01*
G01*
X96887000Y-85509500D01*
G75*
G02*
X96987000Y-85409500I100000J0D01*
G01*
G37*
%TD*%
%TO.C,R24*%
G36*
G01*
X95345000Y-83257000D02*
X95345000Y-82707000D01*
G75*
G02*
X95545000Y-82507000I200000J0D01*
G01*
X95945000Y-82507000D01*
G75*
G02*
X96145000Y-82707000I0J-200000D01*
G01*
X96145000Y-83257000D01*
G75*
G02*
X95945000Y-83457000I-200000J0D01*
G01*
X95545000Y-83457000D01*
G75*
G02*
X95345000Y-83257000I0J200000D01*
G01*
G37*
G36*
G01*
X93695000Y-83257000D02*
X93695000Y-82707000D01*
G75*
G02*
X93895000Y-82507000I200000J0D01*
G01*
X94295000Y-82507000D01*
G75*
G02*
X94495000Y-82707000I0J-200000D01*
G01*
X94495000Y-83257000D01*
G75*
G02*
X94295000Y-83457000I-200000J0D01*
G01*
X93895000Y-83457000D01*
G75*
G02*
X93695000Y-83257000I0J200000D01*
G01*
G37*
%TD*%
%TO.C,C5*%
G36*
G01*
X94408000Y-76548000D02*
X93908000Y-76548000D01*
G75*
G02*
X93683000Y-76323000I0J225000D01*
G01*
X93683000Y-75873000D01*
G75*
G02*
X93908000Y-75648000I225000J0D01*
G01*
X94408000Y-75648000D01*
G75*
G02*
X94633000Y-75873000I0J-225000D01*
G01*
X94633000Y-76323000D01*
G75*
G02*
X94408000Y-76548000I-225000J0D01*
G01*
G37*
G36*
G01*
X94408000Y-78098000D02*
X93908000Y-78098000D01*
G75*
G02*
X93683000Y-77873000I0J225000D01*
G01*
X93683000Y-77423000D01*
G75*
G02*
X93908000Y-77198000I225000J0D01*
G01*
X94408000Y-77198000D01*
G75*
G02*
X94633000Y-77423000I0J-225000D01*
G01*
X94633000Y-77873000D01*
G75*
G02*
X94408000Y-78098000I-225000J0D01*
G01*
G37*
%TD*%
%TO.C,C4*%
G36*
G01*
X96440000Y-76548000D02*
X95940000Y-76548000D01*
G75*
G02*
X95715000Y-76323000I0J225000D01*
G01*
X95715000Y-75873000D01*
G75*
G02*
X95940000Y-75648000I225000J0D01*
G01*
X96440000Y-75648000D01*
G75*
G02*
X96665000Y-75873000I0J-225000D01*
G01*
X96665000Y-76323000D01*
G75*
G02*
X96440000Y-76548000I-225000J0D01*
G01*
G37*
G36*
G01*
X96440000Y-78098000D02*
X95940000Y-78098000D01*
G75*
G02*
X95715000Y-77873000I0J225000D01*
G01*
X95715000Y-77423000D01*
G75*
G02*
X95940000Y-77198000I225000J0D01*
G01*
X96440000Y-77198000D01*
G75*
G02*
X96665000Y-77423000I0J-225000D01*
G01*
X96665000Y-77873000D01*
G75*
G02*
X96440000Y-78098000I-225000J0D01*
G01*
G37*
%TD*%
%TO.C,R21*%
G36*
G01*
X117276500Y-87230999D02*
X117276500Y-88131001D01*
G75*
G02*
X117026501Y-88381000I-249999J0D01*
G01*
X116501499Y-88381000D01*
G75*
G02*
X116251500Y-88131001I0J249999D01*
G01*
X116251500Y-87230999D01*
G75*
G02*
X116501499Y-86981000I249999J0D01*
G01*
X117026501Y-86981000D01*
G75*
G02*
X117276500Y-87230999I0J-249999D01*
G01*
G37*
G36*
G01*
X119101500Y-87230999D02*
X119101500Y-88131001D01*
G75*
G02*
X118851501Y-88381000I-249999J0D01*
G01*
X118326499Y-88381000D01*
G75*
G02*
X118076500Y-88131001I0J249999D01*
G01*
X118076500Y-87230999D01*
G75*
G02*
X118326499Y-86981000I249999J0D01*
G01*
X118851501Y-86981000D01*
G75*
G02*
X119101500Y-87230999I0J-249999D01*
G01*
G37*
%TD*%
%TO.C,R20*%
G36*
G01*
X119101500Y-94215999D02*
X119101500Y-95116001D01*
G75*
G02*
X118851501Y-95366000I-249999J0D01*
G01*
X118326499Y-95366000D01*
G75*
G02*
X118076500Y-95116001I0J249999D01*
G01*
X118076500Y-94215999D01*
G75*
G02*
X118326499Y-93966000I249999J0D01*
G01*
X118851501Y-93966000D01*
G75*
G02*
X119101500Y-94215999I0J-249999D01*
G01*
G37*
G36*
G01*
X117276500Y-94215999D02*
X117276500Y-95116001D01*
G75*
G02*
X117026501Y-95366000I-249999J0D01*
G01*
X116501499Y-95366000D01*
G75*
G02*
X116251500Y-95116001I0J249999D01*
G01*
X116251500Y-94215999D01*
G75*
G02*
X116501499Y-93966000I249999J0D01*
G01*
X117026501Y-93966000D01*
G75*
G02*
X117276500Y-94215999I0J-249999D01*
G01*
G37*
%TD*%
%TO.C,R19*%
G36*
G01*
X107370500Y-87230999D02*
X107370500Y-88131001D01*
G75*
G02*
X107120501Y-88381000I-249999J0D01*
G01*
X106595499Y-88381000D01*
G75*
G02*
X106345500Y-88131001I0J249999D01*
G01*
X106345500Y-87230999D01*
G75*
G02*
X106595499Y-86981000I249999J0D01*
G01*
X107120501Y-86981000D01*
G75*
G02*
X107370500Y-87230999I0J-249999D01*
G01*
G37*
G36*
G01*
X109195500Y-87230999D02*
X109195500Y-88131001D01*
G75*
G02*
X108945501Y-88381000I-249999J0D01*
G01*
X108420499Y-88381000D01*
G75*
G02*
X108170500Y-88131001I0J249999D01*
G01*
X108170500Y-87230999D01*
G75*
G02*
X108420499Y-86981000I249999J0D01*
G01*
X108945501Y-86981000D01*
G75*
G02*
X109195500Y-87230999I0J-249999D01*
G01*
G37*
%TD*%
%TO.C,R18*%
G36*
G01*
X107243500Y-94215999D02*
X107243500Y-95116001D01*
G75*
G02*
X106993501Y-95366000I-249999J0D01*
G01*
X106468499Y-95366000D01*
G75*
G02*
X106218500Y-95116001I0J249999D01*
G01*
X106218500Y-94215999D01*
G75*
G02*
X106468499Y-93966000I249999J0D01*
G01*
X106993501Y-93966000D01*
G75*
G02*
X107243500Y-94215999I0J-249999D01*
G01*
G37*
G36*
G01*
X109068500Y-94215999D02*
X109068500Y-95116001D01*
G75*
G02*
X108818501Y-95366000I-249999J0D01*
G01*
X108293499Y-95366000D01*
G75*
G02*
X108043500Y-95116001I0J249999D01*
G01*
X108043500Y-94215999D01*
G75*
G02*
X108293499Y-93966000I249999J0D01*
G01*
X108818501Y-93966000D01*
G75*
G02*
X109068500Y-94215999I0J-249999D01*
G01*
G37*
%TD*%
%TO.C,C12*%
G36*
G01*
X118164000Y-90188000D02*
X118164000Y-89238000D01*
G75*
G02*
X118414000Y-88988000I250000J0D01*
G01*
X118914000Y-88988000D01*
G75*
G02*
X119164000Y-89238000I0J-250000D01*
G01*
X119164000Y-90188000D01*
G75*
G02*
X118914000Y-90438000I-250000J0D01*
G01*
X118414000Y-90438000D01*
G75*
G02*
X118164000Y-90188000I0J250000D01*
G01*
G37*
G36*
G01*
X116264000Y-90188000D02*
X116264000Y-89238000D01*
G75*
G02*
X116514000Y-88988000I250000J0D01*
G01*
X117014000Y-88988000D01*
G75*
G02*
X117264000Y-89238000I0J-250000D01*
G01*
X117264000Y-90188000D01*
G75*
G02*
X117014000Y-90438000I-250000J0D01*
G01*
X116514000Y-90438000D01*
G75*
G02*
X116264000Y-90188000I0J250000D01*
G01*
G37*
%TD*%
%TO.C,C11*%
G36*
G01*
X117269000Y-92159000D02*
X117269000Y-93109000D01*
G75*
G02*
X117019000Y-93359000I-250000J0D01*
G01*
X116519000Y-93359000D01*
G75*
G02*
X116269000Y-93109000I0J250000D01*
G01*
X116269000Y-92159000D01*
G75*
G02*
X116519000Y-91909000I250000J0D01*
G01*
X117019000Y-91909000D01*
G75*
G02*
X117269000Y-92159000I0J-250000D01*
G01*
G37*
G36*
G01*
X119169000Y-92159000D02*
X119169000Y-93109000D01*
G75*
G02*
X118919000Y-93359000I-250000J0D01*
G01*
X118419000Y-93359000D01*
G75*
G02*
X118169000Y-93109000I0J250000D01*
G01*
X118169000Y-92159000D01*
G75*
G02*
X118419000Y-91909000I250000J0D01*
G01*
X118919000Y-91909000D01*
G75*
G02*
X119169000Y-92159000I0J-250000D01*
G01*
G37*
%TD*%
%TO.C,C10*%
G36*
G01*
X108263000Y-90188000D02*
X108263000Y-89238000D01*
G75*
G02*
X108513000Y-88988000I250000J0D01*
G01*
X109013000Y-88988000D01*
G75*
G02*
X109263000Y-89238000I0J-250000D01*
G01*
X109263000Y-90188000D01*
G75*
G02*
X109013000Y-90438000I-250000J0D01*
G01*
X108513000Y-90438000D01*
G75*
G02*
X108263000Y-90188000I0J250000D01*
G01*
G37*
G36*
G01*
X106363000Y-90188000D02*
X106363000Y-89238000D01*
G75*
G02*
X106613000Y-88988000I250000J0D01*
G01*
X107113000Y-88988000D01*
G75*
G02*
X107363000Y-89238000I0J-250000D01*
G01*
X107363000Y-90188000D01*
G75*
G02*
X107113000Y-90438000I-250000J0D01*
G01*
X106613000Y-90438000D01*
G75*
G02*
X106363000Y-90188000I0J250000D01*
G01*
G37*
%TD*%
%TO.C,C9*%
G36*
G01*
X107231000Y-92159000D02*
X107231000Y-93109000D01*
G75*
G02*
X106981000Y-93359000I-250000J0D01*
G01*
X106481000Y-93359000D01*
G75*
G02*
X106231000Y-93109000I0J250000D01*
G01*
X106231000Y-92159000D01*
G75*
G02*
X106481000Y-91909000I250000J0D01*
G01*
X106981000Y-91909000D01*
G75*
G02*
X107231000Y-92159000I0J-250000D01*
G01*
G37*
G36*
G01*
X109131000Y-92159000D02*
X109131000Y-93109000D01*
G75*
G02*
X108881000Y-93359000I-250000J0D01*
G01*
X108381000Y-93359000D01*
G75*
G02*
X108131000Y-93109000I0J250000D01*
G01*
X108131000Y-92159000D01*
G75*
G02*
X108381000Y-91909000I250000J0D01*
G01*
X108881000Y-91909000D01*
G75*
G02*
X109131000Y-92159000I0J-250000D01*
G01*
G37*
%TD*%
%TO.C,R9*%
G36*
G01*
X117989500Y-77284100D02*
X117989500Y-77834100D01*
G75*
G02*
X117789500Y-78034100I-200000J0D01*
G01*
X117389500Y-78034100D01*
G75*
G02*
X117189500Y-77834100I0J200000D01*
G01*
X117189500Y-77284100D01*
G75*
G02*
X117389500Y-77084100I200000J0D01*
G01*
X117789500Y-77084100D01*
G75*
G02*
X117989500Y-77284100I0J-200000D01*
G01*
G37*
G36*
G01*
X119639500Y-77284100D02*
X119639500Y-77834100D01*
G75*
G02*
X119439500Y-78034100I-200000J0D01*
G01*
X119039500Y-78034100D01*
G75*
G02*
X118839500Y-77834100I0J200000D01*
G01*
X118839500Y-77284100D01*
G75*
G02*
X119039500Y-77084100I200000J0D01*
G01*
X119439500Y-77084100D01*
G75*
G02*
X119639500Y-77284100I0J-200000D01*
G01*
G37*
%TD*%
%TO.C,R8*%
G36*
G01*
X121443000Y-76272000D02*
X121443000Y-75722000D01*
G75*
G02*
X121643000Y-75522000I200000J0D01*
G01*
X122043000Y-75522000D01*
G75*
G02*
X122243000Y-75722000I0J-200000D01*
G01*
X122243000Y-76272000D01*
G75*
G02*
X122043000Y-76472000I-200000J0D01*
G01*
X121643000Y-76472000D01*
G75*
G02*
X121443000Y-76272000I0J200000D01*
G01*
G37*
G36*
G01*
X119793000Y-76272000D02*
X119793000Y-75722000D01*
G75*
G02*
X119993000Y-75522000I200000J0D01*
G01*
X120393000Y-75522000D01*
G75*
G02*
X120593000Y-75722000I0J-200000D01*
G01*
X120593000Y-76272000D01*
G75*
G02*
X120393000Y-76472000I-200000J0D01*
G01*
X119993000Y-76472000D01*
G75*
G02*
X119793000Y-76272000I0J200000D01*
G01*
G37*
%TD*%
%TO.C,R6*%
G36*
G01*
X108083500Y-77246000D02*
X108083500Y-77796000D01*
G75*
G02*
X107883500Y-77996000I-200000J0D01*
G01*
X107483500Y-77996000D01*
G75*
G02*
X107283500Y-77796000I0J200000D01*
G01*
X107283500Y-77246000D01*
G75*
G02*
X107483500Y-77046000I200000J0D01*
G01*
X107883500Y-77046000D01*
G75*
G02*
X108083500Y-77246000I0J-200000D01*
G01*
G37*
G36*
G01*
X109733500Y-77246000D02*
X109733500Y-77796000D01*
G75*
G02*
X109533500Y-77996000I-200000J0D01*
G01*
X109133500Y-77996000D01*
G75*
G02*
X108933500Y-77796000I0J200000D01*
G01*
X108933500Y-77246000D01*
G75*
G02*
X109133500Y-77046000I200000J0D01*
G01*
X109533500Y-77046000D01*
G75*
G02*
X109733500Y-77246000I0J-200000D01*
G01*
G37*
%TD*%
%TO.C,R5*%
G36*
G01*
X111537000Y-76272000D02*
X111537000Y-75722000D01*
G75*
G02*
X111737000Y-75522000I200000J0D01*
G01*
X112137000Y-75522000D01*
G75*
G02*
X112337000Y-75722000I0J-200000D01*
G01*
X112337000Y-76272000D01*
G75*
G02*
X112137000Y-76472000I-200000J0D01*
G01*
X111737000Y-76472000D01*
G75*
G02*
X111537000Y-76272000I0J200000D01*
G01*
G37*
G36*
G01*
X109887000Y-76272000D02*
X109887000Y-75722000D01*
G75*
G02*
X110087000Y-75522000I200000J0D01*
G01*
X110487000Y-75522000D01*
G75*
G02*
X110687000Y-75722000I0J-200000D01*
G01*
X110687000Y-76272000D01*
G75*
G02*
X110487000Y-76472000I-200000J0D01*
G01*
X110087000Y-76472000D01*
G75*
G02*
X109887000Y-76272000I0J200000D01*
G01*
G37*
%TD*%
%TO.C,R2*%
G36*
G01*
X117481500Y-75722000D02*
X117481500Y-76272000D01*
G75*
G02*
X117281500Y-76472000I-200000J0D01*
G01*
X116881500Y-76472000D01*
G75*
G02*
X116681500Y-76272000I0J200000D01*
G01*
X116681500Y-75722000D01*
G75*
G02*
X116881500Y-75522000I200000J0D01*
G01*
X117281500Y-75522000D01*
G75*
G02*
X117481500Y-75722000I0J-200000D01*
G01*
G37*
G36*
G01*
X119131500Y-75722000D02*
X119131500Y-76272000D01*
G75*
G02*
X118931500Y-76472000I-200000J0D01*
G01*
X118531500Y-76472000D01*
G75*
G02*
X118331500Y-76272000I0J200000D01*
G01*
X118331500Y-75722000D01*
G75*
G02*
X118531500Y-75522000I200000J0D01*
G01*
X118931500Y-75522000D01*
G75*
G02*
X119131500Y-75722000I0J-200000D01*
G01*
G37*
%TD*%
%TO.C,R1*%
G36*
G01*
X107575500Y-75722000D02*
X107575500Y-76272000D01*
G75*
G02*
X107375500Y-76472000I-200000J0D01*
G01*
X106975500Y-76472000D01*
G75*
G02*
X106775500Y-76272000I0J200000D01*
G01*
X106775500Y-75722000D01*
G75*
G02*
X106975500Y-75522000I200000J0D01*
G01*
X107375500Y-75522000D01*
G75*
G02*
X107575500Y-75722000I0J-200000D01*
G01*
G37*
G36*
G01*
X109225500Y-75722000D02*
X109225500Y-76272000D01*
G75*
G02*
X109025500Y-76472000I-200000J0D01*
G01*
X108625500Y-76472000D01*
G75*
G02*
X108425500Y-76272000I0J200000D01*
G01*
X108425500Y-75722000D01*
G75*
G02*
X108625500Y-75522000I200000J0D01*
G01*
X109025500Y-75522000D01*
G75*
G02*
X109225500Y-75722000I0J-200000D01*
G01*
G37*
%TD*%
D12*
%TO.C,D4*%
X121463000Y-77394000D03*
X121463000Y-79494000D03*
%TD*%
%TO.C,D3*%
X111557000Y-77394000D03*
X111557000Y-79494000D03*
%TD*%
%TO.C,C2*%
G36*
G01*
X118753000Y-79422000D02*
X118753000Y-78922000D01*
G75*
G02*
X118978000Y-78697000I225000J0D01*
G01*
X119428000Y-78697000D01*
G75*
G02*
X119653000Y-78922000I0J-225000D01*
G01*
X119653000Y-79422000D01*
G75*
G02*
X119428000Y-79647000I-225000J0D01*
G01*
X118978000Y-79647000D01*
G75*
G02*
X118753000Y-79422000I0J225000D01*
G01*
G37*
G36*
G01*
X117203000Y-79422000D02*
X117203000Y-78922000D01*
G75*
G02*
X117428000Y-78697000I225000J0D01*
G01*
X117878000Y-78697000D01*
G75*
G02*
X118103000Y-78922000I0J-225000D01*
G01*
X118103000Y-79422000D01*
G75*
G02*
X117878000Y-79647000I-225000J0D01*
G01*
X117428000Y-79647000D01*
G75*
G02*
X117203000Y-79422000I0J225000D01*
G01*
G37*
%TD*%
%TO.C,C1*%
G36*
G01*
X108847000Y-79422000D02*
X108847000Y-78922000D01*
G75*
G02*
X109072000Y-78697000I225000J0D01*
G01*
X109522000Y-78697000D01*
G75*
G02*
X109747000Y-78922000I0J-225000D01*
G01*
X109747000Y-79422000D01*
G75*
G02*
X109522000Y-79647000I-225000J0D01*
G01*
X109072000Y-79647000D01*
G75*
G02*
X108847000Y-79422000I0J225000D01*
G01*
G37*
G36*
G01*
X107297000Y-79422000D02*
X107297000Y-78922000D01*
G75*
G02*
X107522000Y-78697000I225000J0D01*
G01*
X107972000Y-78697000D01*
G75*
G02*
X108197000Y-78922000I0J-225000D01*
G01*
X108197000Y-79422000D01*
G75*
G02*
X107972000Y-79647000I-225000J0D01*
G01*
X107522000Y-79647000D01*
G75*
G02*
X107297000Y-79422000I0J225000D01*
G01*
G37*
%TD*%
%TO.C,C3*%
G36*
G01*
X84041000Y-79176000D02*
X84041000Y-79676000D01*
G75*
G02*
X83816000Y-79901000I-225000J0D01*
G01*
X83366000Y-79901000D01*
G75*
G02*
X83141000Y-79676000I0J225000D01*
G01*
X83141000Y-79176000D01*
G75*
G02*
X83366000Y-78951000I225000J0D01*
G01*
X83816000Y-78951000D01*
G75*
G02*
X84041000Y-79176000I0J-225000D01*
G01*
G37*
G36*
G01*
X85591000Y-79176000D02*
X85591000Y-79676000D01*
G75*
G02*
X85366000Y-79901000I-225000J0D01*
G01*
X84916000Y-79901000D01*
G75*
G02*
X84691000Y-79676000I0J225000D01*
G01*
X84691000Y-79176000D01*
G75*
G02*
X84916000Y-78951000I225000J0D01*
G01*
X85366000Y-78951000D01*
G75*
G02*
X85591000Y-79176000I0J-225000D01*
G01*
G37*
%TD*%
M02*
