M48
; DRILL file {KiCad (5.1.10)-1} date 01/18/22 17:52:18
; FORMAT={3:3/ absolute / metric / keep zeros}
; #@! TF.CreationDate,2022-01-18T17:52:18+07:00
; #@! TF.GenerationSoftware,Kicad,Pcbnew,(5.1.10)-1
; #@! TF.FileFunction,Plated,1,4,PTH
FMAT,2
METRIC
T1C0.400
T2C0.500
T3C0.600
T4C0.650
T5C0.700
T6C0.800
T7C1.000
T8C1.200
%
G90
G05
T1
X076124Y-088697
X079425Y-084379
X090729Y-084125
X090961Y-089883
X091361Y-088840
X091765Y-090529
X092279Y-084125
X092888Y-087501
X093062Y-094285
X093777Y-084760
X093777Y-090475
X093899Y-087490
X093978Y-093274
X094412Y-094285
X094937Y-088974
X095031Y-090502
X095174Y-076505
X096070Y-090455
X097057Y-093755
X097738Y-089373
X098730Y-076505
X099024Y-087312
X100663Y-087172
X100961Y-095063
X102286Y-087834
X103572Y-092142
X104064Y-081712
X106863Y-089713
X107097Y-085633
X107112Y-081077
X107112Y-082601
X107176Y-075997
X107684Y-077521
X108683Y-087681
X110160Y-082474
X110282Y-090353
X116764Y-089713
X117018Y-081077
X117081Y-075997
X117590Y-077559
X118589Y-087681
T2
X099288Y-093072
T3
X081839Y-083617
X081839Y-084887
X083109Y-083617
X083109Y-084887
X084379Y-083617
X084379Y-084887
X101651Y-083617
X101651Y-084887
X102921Y-083617
X102921Y-084887
X104191Y-083617
X104191Y-084887
T4
X076251Y-079680
X076251Y-080950
X077521Y-079680
X077521Y-080950
X078791Y-079680
X078791Y-080950
X089459Y-079680
X089459Y-080950
X090729Y-079680
X090729Y-080950
X091999Y-079680
X091999Y-080950
X102540Y-076632
X102540Y-077902
X103810Y-076632
X103810Y-077902
T5
X086919Y-098730
X089205Y-086157
X089332Y-090729
X091258Y-094261
X108763Y-091110
X118669Y-091110
T6
X112700Y-085522
X112700Y-093142
X122733Y-085522
X122733Y-093142
T7
X076378Y-098222
X078537Y-086665
X078918Y-098222
X081458Y-077013
X081458Y-079553
X081458Y-092253
X081458Y-097333
X087427Y-076378
X087427Y-078918
X087427Y-081458
X087427Y-083998
X087427Y-091618
X087427Y-094158
X087437Y-089078
X108636Y-098222
X111176Y-098222
X118542Y-098222
X121082Y-098222
T8
X113716Y-077140
X113716Y-079680
X113716Y-089840
X113716Y-097460
X123622Y-077140
X123622Y-079680
X123622Y-089840
X123622Y-097460
T8
G00X081458Y-097314
M15
G01X081458Y-098114
M16
G05
G00X113716Y-097314
M15
G01X113716Y-098114
M16
G05
G00X123622Y-097314
M15
G01X123622Y-098114
M16
G05
T0
M30
