%TF.GenerationSoftware,KiCad,Pcbnew,(5.1.10)-1*%
%TF.CreationDate,2022-01-18T17:52:16+07:00*%
%TF.ProjectId,Power_manager_v3,506f7765-725f-46d6-916e-616765725f76,rev?*%
%TF.SameCoordinates,Original*%
%TF.FileFunction,Soldermask,Bot*%
%TF.FilePolarity,Negative*%
%FSLAX46Y46*%
G04 Gerber Fmt 4.6, Leading zero omitted, Abs format (unit mm)*
G04 Created by KiCad (PCBNEW (5.1.10)-1) date 2022-01-18 17:52:16*
%MOMM*%
%LPD*%
G01*
G04 APERTURE LIST*
%ADD10C,1.000000*%
%ADD11R,1.000000X1.000000*%
%ADD12C,1.600000*%
%ADD13R,1.600000X1.600000*%
%ADD14R,2.400000X1.700000*%
%ADD15O,2.400000X1.700000*%
%ADD16O,1.700000X1.700000*%
%ADD17R,1.900000X2.700000*%
%ADD18O,1.000000X1.000000*%
%ADD19C,1.500000*%
%ADD20O,1.600000X1.600000*%
%ADD21C,2.000000*%
%ADD22R,0.400000X3.200000*%
%ADD23R,0.400000X1.000000*%
%ADD24R,0.800000X0.900000*%
%ADD25C,1.800000*%
%ADD26R,1.800000X1.800000*%
%ADD27R,1.800000X1.500000*%
G04 APERTURE END LIST*
D10*
%TO.C,U7*%
X104191000Y-84887000D03*
X104191000Y-83617000D03*
X102921000Y-84887000D03*
X102921000Y-83617000D03*
X101651000Y-84887000D03*
D11*
X101651000Y-83617000D03*
D10*
X84379000Y-84887000D03*
X84379000Y-83617000D03*
X83109000Y-84887000D03*
X83109000Y-83617000D03*
X81839000Y-84887000D03*
D11*
X81839000Y-83617000D03*
%TD*%
D12*
%TO.C,U4*%
X87427000Y-94158000D03*
X87427000Y-91618000D03*
X87436500Y-89078000D03*
X87427000Y-83998000D03*
X87427000Y-81458000D03*
X87427000Y-78918000D03*
D13*
X87427000Y-76378000D03*
%TD*%
D14*
%TO.C,U1*%
X81458000Y-97333000D03*
D15*
X81458000Y-92253000D03*
X81458000Y-79553000D03*
X81458000Y-77013000D03*
%TD*%
D16*
%TO.C,J4*%
X118542000Y-98222000D03*
X121082000Y-98222000D03*
D17*
X123622000Y-97714000D03*
%TD*%
D16*
%TO.C,J3*%
X108636000Y-98222000D03*
X111176000Y-98222000D03*
D17*
X113716000Y-97714000D03*
%TD*%
D16*
%TO.C,J1*%
X76378000Y-98222000D03*
X78918000Y-98222000D03*
D17*
X81458000Y-97714000D03*
%TD*%
D18*
%TO.C,JP4*%
X103810000Y-77902000D03*
X103810000Y-76632000D03*
X102540000Y-77902000D03*
D11*
X102540000Y-76632000D03*
%TD*%
D18*
%TO.C,J6*%
X89459000Y-79680000D03*
X89459000Y-80950000D03*
X90729000Y-79680000D03*
X90729000Y-80950000D03*
X91999000Y-79680000D03*
D11*
X91999000Y-80950000D03*
%TD*%
D19*
%TO.C,KP1*%
X89205000Y-86157000D03*
%TD*%
D20*
%TO.C,F1*%
X112700000Y-85522000D03*
D12*
X112700000Y-93142000D03*
%TD*%
%TO.C,R27*%
G36*
G01*
X106837000Y-85248000D02*
X107387000Y-85248000D01*
G75*
G02*
X107587000Y-85448000I0J-200000D01*
G01*
X107587000Y-85848000D01*
G75*
G02*
X107387000Y-86048000I-200000J0D01*
G01*
X106837000Y-86048000D01*
G75*
G02*
X106637000Y-85848000I0J200000D01*
G01*
X106637000Y-85448000D01*
G75*
G02*
X106837000Y-85248000I200000J0D01*
G01*
G37*
G36*
G01*
X106837000Y-83598000D02*
X107387000Y-83598000D01*
G75*
G02*
X107587000Y-83798000I0J-200000D01*
G01*
X107587000Y-84198000D01*
G75*
G02*
X107387000Y-84398000I-200000J0D01*
G01*
X106837000Y-84398000D01*
G75*
G02*
X106637000Y-84198000I0J200000D01*
G01*
X106637000Y-83798000D01*
G75*
G02*
X106837000Y-83598000I200000J0D01*
G01*
G37*
%TD*%
%TO.C,L1*%
G36*
G01*
X92549500Y-94735001D02*
X92549500Y-93834999D01*
G75*
G02*
X92799499Y-93585000I249999J0D01*
G01*
X93324501Y-93585000D01*
G75*
G02*
X93574500Y-93834999I0J-249999D01*
G01*
X93574500Y-94735001D01*
G75*
G02*
X93324501Y-94985000I-249999J0D01*
G01*
X92799499Y-94985000D01*
G75*
G02*
X92549500Y-94735001I0J249999D01*
G01*
G37*
G36*
G01*
X90724500Y-94735001D02*
X90724500Y-93834999D01*
G75*
G02*
X90974499Y-93585000I249999J0D01*
G01*
X91499501Y-93585000D01*
G75*
G02*
X91749500Y-93834999I0J-249999D01*
G01*
X91749500Y-94735001D01*
G75*
G02*
X91499501Y-94985000I-249999J0D01*
G01*
X90974499Y-94985000D01*
G75*
G02*
X90724500Y-94735001I0J249999D01*
G01*
G37*
%TD*%
%TO.C,C16*%
G36*
G01*
X102036000Y-87384000D02*
X102536000Y-87384000D01*
G75*
G02*
X102761000Y-87609000I0J-225000D01*
G01*
X102761000Y-88059000D01*
G75*
G02*
X102536000Y-88284000I-225000J0D01*
G01*
X102036000Y-88284000D01*
G75*
G02*
X101811000Y-88059000I0J225000D01*
G01*
X101811000Y-87609000D01*
G75*
G02*
X102036000Y-87384000I225000J0D01*
G01*
G37*
G36*
G01*
X102036000Y-85834000D02*
X102536000Y-85834000D01*
G75*
G02*
X102761000Y-86059000I0J-225000D01*
G01*
X102761000Y-86509000D01*
G75*
G02*
X102536000Y-86734000I-225000J0D01*
G01*
X102036000Y-86734000D01*
G75*
G02*
X101811000Y-86509000I0J225000D01*
G01*
X101811000Y-86059000D01*
G75*
G02*
X102036000Y-85834000I225000J0D01*
G01*
G37*
%TD*%
%TO.C,C14*%
G36*
G01*
X95979000Y-93527000D02*
X95979000Y-94027000D01*
G75*
G02*
X95754000Y-94252000I-225000J0D01*
G01*
X95304000Y-94252000D01*
G75*
G02*
X95079000Y-94027000I0J225000D01*
G01*
X95079000Y-93527000D01*
G75*
G02*
X95304000Y-93302000I225000J0D01*
G01*
X95754000Y-93302000D01*
G75*
G02*
X95979000Y-93527000I0J-225000D01*
G01*
G37*
G36*
G01*
X97529000Y-93527000D02*
X97529000Y-94027000D01*
G75*
G02*
X97304000Y-94252000I-225000J0D01*
G01*
X96854000Y-94252000D01*
G75*
G02*
X96629000Y-94027000I0J225000D01*
G01*
X96629000Y-93527000D01*
G75*
G02*
X96854000Y-93302000I225000J0D01*
G01*
X97304000Y-93302000D01*
G75*
G02*
X97529000Y-93527000I0J-225000D01*
G01*
G37*
%TD*%
D21*
%TO.C,GND1*%
X78537000Y-86665000D03*
%TD*%
D22*
%TO.C,Y2*%
X99930000Y-80315000D03*
X98730000Y-80315000D03*
X97530000Y-80315000D03*
%TD*%
D23*
%TO.C,U6*%
X100807000Y-86072000D03*
X100157000Y-86072000D03*
X99507000Y-86072000D03*
X98857000Y-86072000D03*
X98207000Y-86072000D03*
X97557000Y-86072000D03*
X96907000Y-86072000D03*
X96257000Y-86072000D03*
X96257000Y-91872000D03*
X96907000Y-91872000D03*
X97557000Y-91872000D03*
X98207000Y-91872000D03*
X98857000Y-91872000D03*
X99507000Y-91872000D03*
X100157000Y-91872000D03*
X100807000Y-91872000D03*
%TD*%
%TO.C,R26*%
G36*
G01*
X98368000Y-82707000D02*
X98368000Y-83257000D01*
G75*
G02*
X98168000Y-83457000I-200000J0D01*
G01*
X97768000Y-83457000D01*
G75*
G02*
X97568000Y-83257000I0J200000D01*
G01*
X97568000Y-82707000D01*
G75*
G02*
X97768000Y-82507000I200000J0D01*
G01*
X98168000Y-82507000D01*
G75*
G02*
X98368000Y-82707000I0J-200000D01*
G01*
G37*
G36*
G01*
X100018000Y-82707000D02*
X100018000Y-83257000D01*
G75*
G02*
X99818000Y-83457000I-200000J0D01*
G01*
X99418000Y-83457000D01*
G75*
G02*
X99218000Y-83257000I0J200000D01*
G01*
X99218000Y-82707000D01*
G75*
G02*
X99418000Y-82507000I200000J0D01*
G01*
X99818000Y-82507000D01*
G75*
G02*
X100018000Y-82707000I0J-200000D01*
G01*
G37*
%TD*%
%TO.C,R22*%
G36*
G01*
X100503500Y-97148001D02*
X100503500Y-96247999D01*
G75*
G02*
X100753499Y-95998000I249999J0D01*
G01*
X101278501Y-95998000D01*
G75*
G02*
X101528500Y-96247999I0J-249999D01*
G01*
X101528500Y-97148001D01*
G75*
G02*
X101278501Y-97398000I-249999J0D01*
G01*
X100753499Y-97398000D01*
G75*
G02*
X100503500Y-97148001I0J249999D01*
G01*
G37*
G36*
G01*
X98678500Y-97148001D02*
X98678500Y-96247999D01*
G75*
G02*
X98928499Y-95998000I249999J0D01*
G01*
X99453501Y-95998000D01*
G75*
G02*
X99703500Y-96247999I0J-249999D01*
G01*
X99703500Y-97148001D01*
G75*
G02*
X99453501Y-97398000I-249999J0D01*
G01*
X98928499Y-97398000D01*
G75*
G02*
X98678500Y-97148001I0J249999D01*
G01*
G37*
%TD*%
%TO.C,R17*%
G36*
G01*
X96067500Y-96247999D02*
X96067500Y-97148001D01*
G75*
G02*
X95817501Y-97398000I-249999J0D01*
G01*
X95292499Y-97398000D01*
G75*
G02*
X95042500Y-97148001I0J249999D01*
G01*
X95042500Y-96247999D01*
G75*
G02*
X95292499Y-95998000I249999J0D01*
G01*
X95817501Y-95998000D01*
G75*
G02*
X96067500Y-96247999I0J-249999D01*
G01*
G37*
G36*
G01*
X97892500Y-96247999D02*
X97892500Y-97148001D01*
G75*
G02*
X97642501Y-97398000I-249999J0D01*
G01*
X97117499Y-97398000D01*
G75*
G02*
X96867500Y-97148001I0J249999D01*
G01*
X96867500Y-96247999D01*
G75*
G02*
X97117499Y-95998000I249999J0D01*
G01*
X97642501Y-95998000D01*
G75*
G02*
X97892500Y-96247999I0J-249999D01*
G01*
G37*
%TD*%
%TO.C,R12*%
G36*
G01*
X88955500Y-98279999D02*
X88955500Y-99180001D01*
G75*
G02*
X88705501Y-99430000I-249999J0D01*
G01*
X88180499Y-99430000D01*
G75*
G02*
X87930500Y-99180001I0J249999D01*
G01*
X87930500Y-98279999D01*
G75*
G02*
X88180499Y-98030000I249999J0D01*
G01*
X88705501Y-98030000D01*
G75*
G02*
X88955500Y-98279999I0J-249999D01*
G01*
G37*
G36*
G01*
X90780500Y-98279999D02*
X90780500Y-99180001D01*
G75*
G02*
X90530501Y-99430000I-249999J0D01*
G01*
X90005499Y-99430000D01*
G75*
G02*
X89755500Y-99180001I0J249999D01*
G01*
X89755500Y-98279999D01*
G75*
G02*
X90005499Y-98030000I249999J0D01*
G01*
X90530501Y-98030000D01*
G75*
G02*
X90780500Y-98279999I0J-249999D01*
G01*
G37*
%TD*%
%TO.C,R11*%
G36*
G01*
X92511500Y-97009999D02*
X92511500Y-97910001D01*
G75*
G02*
X92261501Y-98160000I-249999J0D01*
G01*
X91736499Y-98160000D01*
G75*
G02*
X91486500Y-97910001I0J249999D01*
G01*
X91486500Y-97009999D01*
G75*
G02*
X91736499Y-96760000I249999J0D01*
G01*
X92261501Y-96760000D01*
G75*
G02*
X92511500Y-97009999I0J-249999D01*
G01*
G37*
G36*
G01*
X94336500Y-97009999D02*
X94336500Y-97910001D01*
G75*
G02*
X94086501Y-98160000I-249999J0D01*
G01*
X93561499Y-98160000D01*
G75*
G02*
X93311500Y-97910001I0J249999D01*
G01*
X93311500Y-97009999D01*
G75*
G02*
X93561499Y-96760000I249999J0D01*
G01*
X94086501Y-96760000D01*
G75*
G02*
X94336500Y-97009999I0J-249999D01*
G01*
G37*
%TD*%
%TO.C,R7*%
G36*
G01*
X107513000Y-80802000D02*
X107513000Y-81352000D01*
G75*
G02*
X107313000Y-81552000I-200000J0D01*
G01*
X106913000Y-81552000D01*
G75*
G02*
X106713000Y-81352000I0J200000D01*
G01*
X106713000Y-80802000D01*
G75*
G02*
X106913000Y-80602000I200000J0D01*
G01*
X107313000Y-80602000D01*
G75*
G02*
X107513000Y-80802000I0J-200000D01*
G01*
G37*
G36*
G01*
X109163000Y-80802000D02*
X109163000Y-81352000D01*
G75*
G02*
X108963000Y-81552000I-200000J0D01*
G01*
X108563000Y-81552000D01*
G75*
G02*
X108363000Y-81352000I0J200000D01*
G01*
X108363000Y-80802000D01*
G75*
G02*
X108563000Y-80602000I200000J0D01*
G01*
X108963000Y-80602000D01*
G75*
G02*
X109163000Y-80802000I0J-200000D01*
G01*
G37*
%TD*%
%TO.C,R3*%
G36*
G01*
X107513000Y-82326000D02*
X107513000Y-82876000D01*
G75*
G02*
X107313000Y-83076000I-200000J0D01*
G01*
X106913000Y-83076000D01*
G75*
G02*
X106713000Y-82876000I0J200000D01*
G01*
X106713000Y-82326000D01*
G75*
G02*
X106913000Y-82126000I200000J0D01*
G01*
X107313000Y-82126000D01*
G75*
G02*
X107513000Y-82326000I0J-200000D01*
G01*
G37*
G36*
G01*
X109163000Y-82326000D02*
X109163000Y-82876000D01*
G75*
G02*
X108963000Y-83076000I-200000J0D01*
G01*
X108563000Y-83076000D01*
G75*
G02*
X108363000Y-82876000I0J200000D01*
G01*
X108363000Y-82326000D01*
G75*
G02*
X108563000Y-82126000I200000J0D01*
G01*
X108963000Y-82126000D01*
G75*
G02*
X109163000Y-82326000I0J-200000D01*
G01*
G37*
%TD*%
D24*
%TO.C,Q1*%
X107686000Y-77521000D03*
X106736000Y-79521000D03*
X108636000Y-79521000D03*
%TD*%
%TO.C,C19*%
G36*
G01*
X97464000Y-77198000D02*
X97964000Y-77198000D01*
G75*
G02*
X98189000Y-77423000I0J-225000D01*
G01*
X98189000Y-77873000D01*
G75*
G02*
X97964000Y-78098000I-225000J0D01*
G01*
X97464000Y-78098000D01*
G75*
G02*
X97239000Y-77873000I0J225000D01*
G01*
X97239000Y-77423000D01*
G75*
G02*
X97464000Y-77198000I225000J0D01*
G01*
G37*
G36*
G01*
X97464000Y-75648000D02*
X97964000Y-75648000D01*
G75*
G02*
X98189000Y-75873000I0J-225000D01*
G01*
X98189000Y-76323000D01*
G75*
G02*
X97964000Y-76548000I-225000J0D01*
G01*
X97464000Y-76548000D01*
G75*
G02*
X97239000Y-76323000I0J225000D01*
G01*
X97239000Y-75873000D01*
G75*
G02*
X97464000Y-75648000I225000J0D01*
G01*
G37*
%TD*%
%TO.C,C18*%
G36*
G01*
X99496000Y-77198000D02*
X99996000Y-77198000D01*
G75*
G02*
X100221000Y-77423000I0J-225000D01*
G01*
X100221000Y-77873000D01*
G75*
G02*
X99996000Y-78098000I-225000J0D01*
G01*
X99496000Y-78098000D01*
G75*
G02*
X99271000Y-77873000I0J225000D01*
G01*
X99271000Y-77423000D01*
G75*
G02*
X99496000Y-77198000I225000J0D01*
G01*
G37*
G36*
G01*
X99496000Y-75648000D02*
X99996000Y-75648000D01*
G75*
G02*
X100221000Y-75873000I0J-225000D01*
G01*
X100221000Y-76323000D01*
G75*
G02*
X99996000Y-76548000I-225000J0D01*
G01*
X99496000Y-76548000D01*
G75*
G02*
X99271000Y-76323000I0J225000D01*
G01*
X99271000Y-75873000D01*
G75*
G02*
X99496000Y-75648000I225000J0D01*
G01*
G37*
%TD*%
%TO.C,C13*%
G36*
G01*
X99616000Y-94064000D02*
X99616000Y-95014000D01*
G75*
G02*
X99366000Y-95264000I-250000J0D01*
G01*
X98866000Y-95264000D01*
G75*
G02*
X98616000Y-95014000I0J250000D01*
G01*
X98616000Y-94064000D01*
G75*
G02*
X98866000Y-93814000I250000J0D01*
G01*
X99366000Y-93814000D01*
G75*
G02*
X99616000Y-94064000I0J-250000D01*
G01*
G37*
G36*
G01*
X101516000Y-94064000D02*
X101516000Y-95014000D01*
G75*
G02*
X101266000Y-95264000I-250000J0D01*
G01*
X100766000Y-95264000D01*
G75*
G02*
X100516000Y-95014000I0J250000D01*
G01*
X100516000Y-94064000D01*
G75*
G02*
X100766000Y-93814000I250000J0D01*
G01*
X101266000Y-93814000D01*
G75*
G02*
X101516000Y-94064000I0J-250000D01*
G01*
G37*
%TD*%
%TO.C,C8*%
G36*
G01*
X83968000Y-77437000D02*
X83468000Y-77437000D01*
G75*
G02*
X83243000Y-77212000I0J225000D01*
G01*
X83243000Y-76762000D01*
G75*
G02*
X83468000Y-76537000I225000J0D01*
G01*
X83968000Y-76537000D01*
G75*
G02*
X84193000Y-76762000I0J-225000D01*
G01*
X84193000Y-77212000D01*
G75*
G02*
X83968000Y-77437000I-225000J0D01*
G01*
G37*
G36*
G01*
X83968000Y-78987000D02*
X83468000Y-78987000D01*
G75*
G02*
X83243000Y-78762000I0J225000D01*
G01*
X83243000Y-78312000D01*
G75*
G02*
X83468000Y-78087000I225000J0D01*
G01*
X83968000Y-78087000D01*
G75*
G02*
X84193000Y-78312000I0J-225000D01*
G01*
X84193000Y-78762000D01*
G75*
G02*
X83968000Y-78987000I-225000J0D01*
G01*
G37*
%TD*%
%TO.C,C6*%
G36*
G01*
X85518000Y-77437000D02*
X85018000Y-77437000D01*
G75*
G02*
X84793000Y-77212000I0J225000D01*
G01*
X84793000Y-76762000D01*
G75*
G02*
X85018000Y-76537000I225000J0D01*
G01*
X85518000Y-76537000D01*
G75*
G02*
X85743000Y-76762000I0J-225000D01*
G01*
X85743000Y-77212000D01*
G75*
G02*
X85518000Y-77437000I-225000J0D01*
G01*
G37*
G36*
G01*
X85518000Y-78987000D02*
X85018000Y-78987000D01*
G75*
G02*
X84793000Y-78762000I0J225000D01*
G01*
X84793000Y-78312000D01*
G75*
G02*
X85018000Y-78087000I225000J0D01*
G01*
X85518000Y-78087000D01*
G75*
G02*
X85743000Y-78312000I0J-225000D01*
G01*
X85743000Y-78762000D01*
G75*
G02*
X85518000Y-78987000I-225000J0D01*
G01*
G37*
%TD*%
%TO.C,R4*%
G36*
G01*
X117419000Y-82326000D02*
X117419000Y-82876000D01*
G75*
G02*
X117219000Y-83076000I-200000J0D01*
G01*
X116819000Y-83076000D01*
G75*
G02*
X116619000Y-82876000I0J200000D01*
G01*
X116619000Y-82326000D01*
G75*
G02*
X116819000Y-82126000I200000J0D01*
G01*
X117219000Y-82126000D01*
G75*
G02*
X117419000Y-82326000I0J-200000D01*
G01*
G37*
G36*
G01*
X119069000Y-82326000D02*
X119069000Y-82876000D01*
G75*
G02*
X118869000Y-83076000I-200000J0D01*
G01*
X118469000Y-83076000D01*
G75*
G02*
X118269000Y-82876000I0J200000D01*
G01*
X118269000Y-82326000D01*
G75*
G02*
X118469000Y-82126000I200000J0D01*
G01*
X118869000Y-82126000D01*
G75*
G02*
X119069000Y-82326000I0J-200000D01*
G01*
G37*
%TD*%
%TO.C,R10*%
G36*
G01*
X117419000Y-80802000D02*
X117419000Y-81352000D01*
G75*
G02*
X117219000Y-81552000I-200000J0D01*
G01*
X116819000Y-81552000D01*
G75*
G02*
X116619000Y-81352000I0J200000D01*
G01*
X116619000Y-80802000D01*
G75*
G02*
X116819000Y-80602000I200000J0D01*
G01*
X117219000Y-80602000D01*
G75*
G02*
X117419000Y-80802000I0J-200000D01*
G01*
G37*
G36*
G01*
X119069000Y-80802000D02*
X119069000Y-81352000D01*
G75*
G02*
X118869000Y-81552000I-200000J0D01*
G01*
X118469000Y-81552000D01*
G75*
G02*
X118269000Y-81352000I0J200000D01*
G01*
X118269000Y-80802000D01*
G75*
G02*
X118469000Y-80602000I200000J0D01*
G01*
X118869000Y-80602000D01*
G75*
G02*
X119069000Y-80802000I0J-200000D01*
G01*
G37*
%TD*%
%TO.C,Q2*%
X117592000Y-77553000D03*
X116642000Y-79553000D03*
X118542000Y-79553000D03*
%TD*%
%TO.C,R14*%
G36*
G01*
X79153000Y-90496000D02*
X79153000Y-89946000D01*
G75*
G02*
X79353000Y-89746000I200000J0D01*
G01*
X79753000Y-89746000D01*
G75*
G02*
X79953000Y-89946000I0J-200000D01*
G01*
X79953000Y-90496000D01*
G75*
G02*
X79753000Y-90696000I-200000J0D01*
G01*
X79353000Y-90696000D01*
G75*
G02*
X79153000Y-90496000I0J200000D01*
G01*
G37*
G36*
G01*
X77503000Y-90496000D02*
X77503000Y-89946000D01*
G75*
G02*
X77703000Y-89746000I200000J0D01*
G01*
X78103000Y-89746000D01*
G75*
G02*
X78303000Y-89946000I0J-200000D01*
G01*
X78303000Y-90496000D01*
G75*
G02*
X78103000Y-90696000I-200000J0D01*
G01*
X77703000Y-90696000D01*
G75*
G02*
X77503000Y-90496000I0J200000D01*
G01*
G37*
%TD*%
%TO.C,D6*%
G36*
G01*
X75867750Y-89834500D02*
X76380250Y-89834500D01*
G75*
G02*
X76599000Y-90053250I0J-218750D01*
G01*
X76599000Y-90490750D01*
G75*
G02*
X76380250Y-90709500I-218750J0D01*
G01*
X75867750Y-90709500D01*
G75*
G02*
X75649000Y-90490750I0J218750D01*
G01*
X75649000Y-90053250D01*
G75*
G02*
X75867750Y-89834500I218750J0D01*
G01*
G37*
G36*
G01*
X75867750Y-88259500D02*
X76380250Y-88259500D01*
G75*
G02*
X76599000Y-88478250I0J-218750D01*
G01*
X76599000Y-88915750D01*
G75*
G02*
X76380250Y-89134500I-218750J0D01*
G01*
X75867750Y-89134500D01*
G75*
G02*
X75649000Y-88915750I0J218750D01*
G01*
X75649000Y-88478250D01*
G75*
G02*
X75867750Y-88259500I218750J0D01*
G01*
G37*
%TD*%
D25*
%TO.C,U2*%
X113716000Y-77140000D03*
X113716000Y-79680000D03*
X113716000Y-89840000D03*
D26*
X113716000Y-97460000D03*
%TD*%
D27*
%TO.C,R16*%
X118161000Y-91872000D03*
X118161000Y-94872000D03*
%TD*%
%TO.C,R15*%
X108382000Y-91872000D03*
X108382000Y-94872000D03*
%TD*%
%TO.C,D2*%
G36*
G01*
X118219000Y-76253250D02*
X118219000Y-75740750D01*
G75*
G02*
X118437750Y-75522000I218750J0D01*
G01*
X118875250Y-75522000D01*
G75*
G02*
X119094000Y-75740750I0J-218750D01*
G01*
X119094000Y-76253250D01*
G75*
G02*
X118875250Y-76472000I-218750J0D01*
G01*
X118437750Y-76472000D01*
G75*
G02*
X118219000Y-76253250I0J218750D01*
G01*
G37*
G36*
G01*
X116644000Y-76253250D02*
X116644000Y-75740750D01*
G75*
G02*
X116862750Y-75522000I218750J0D01*
G01*
X117300250Y-75522000D01*
G75*
G02*
X117519000Y-75740750I0J-218750D01*
G01*
X117519000Y-76253250D01*
G75*
G02*
X117300250Y-76472000I-218750J0D01*
G01*
X116862750Y-76472000D01*
G75*
G02*
X116644000Y-76253250I0J218750D01*
G01*
G37*
%TD*%
%TO.C,D1*%
G36*
G01*
X108313000Y-76253250D02*
X108313000Y-75740750D01*
G75*
G02*
X108531750Y-75522000I218750J0D01*
G01*
X108969250Y-75522000D01*
G75*
G02*
X109188000Y-75740750I0J-218750D01*
G01*
X109188000Y-76253250D01*
G75*
G02*
X108969250Y-76472000I-218750J0D01*
G01*
X108531750Y-76472000D01*
G75*
G02*
X108313000Y-76253250I0J218750D01*
G01*
G37*
G36*
G01*
X106738000Y-76253250D02*
X106738000Y-75740750D01*
G75*
G02*
X106956750Y-75522000I218750J0D01*
G01*
X107394250Y-75522000D01*
G75*
G02*
X107613000Y-75740750I0J-218750D01*
G01*
X107613000Y-76253250D01*
G75*
G02*
X107394250Y-76472000I-218750J0D01*
G01*
X106956750Y-76472000D01*
G75*
G02*
X106738000Y-76253250I0J218750D01*
G01*
G37*
%TD*%
%TO.C,R13*%
G36*
G01*
X79025000Y-84654000D02*
X79025000Y-84104000D01*
G75*
G02*
X79225000Y-83904000I200000J0D01*
G01*
X79625000Y-83904000D01*
G75*
G02*
X79825000Y-84104000I0J-200000D01*
G01*
X79825000Y-84654000D01*
G75*
G02*
X79625000Y-84854000I-200000J0D01*
G01*
X79225000Y-84854000D01*
G75*
G02*
X79025000Y-84654000I0J200000D01*
G01*
G37*
G36*
G01*
X77375000Y-84654000D02*
X77375000Y-84104000D01*
G75*
G02*
X77575000Y-83904000I200000J0D01*
G01*
X77975000Y-83904000D01*
G75*
G02*
X78175000Y-84104000I0J-200000D01*
G01*
X78175000Y-84654000D01*
G75*
G02*
X77975000Y-84854000I-200000J0D01*
G01*
X77575000Y-84854000D01*
G75*
G02*
X77375000Y-84654000I0J200000D01*
G01*
G37*
%TD*%
%TO.C,D5*%
G36*
G01*
X75867750Y-83941500D02*
X76380250Y-83941500D01*
G75*
G02*
X76599000Y-84160250I0J-218750D01*
G01*
X76599000Y-84597750D01*
G75*
G02*
X76380250Y-84816500I-218750J0D01*
G01*
X75867750Y-84816500D01*
G75*
G02*
X75649000Y-84597750I0J218750D01*
G01*
X75649000Y-84160250D01*
G75*
G02*
X75867750Y-83941500I218750J0D01*
G01*
G37*
G36*
G01*
X75867750Y-82366500D02*
X76380250Y-82366500D01*
G75*
G02*
X76599000Y-82585250I0J-218750D01*
G01*
X76599000Y-83022750D01*
G75*
G02*
X76380250Y-83241500I-218750J0D01*
G01*
X75867750Y-83241500D01*
G75*
G02*
X75649000Y-83022750I0J218750D01*
G01*
X75649000Y-82585250D01*
G75*
G02*
X75867750Y-82366500I218750J0D01*
G01*
G37*
%TD*%
D25*
%TO.C,U3*%
X123622000Y-77140000D03*
X123622000Y-79680000D03*
X123622000Y-89840000D03*
D26*
X123622000Y-97460000D03*
%TD*%
D18*
%TO.C,J2*%
X76251000Y-79680000D03*
X76251000Y-80950000D03*
X77521000Y-79680000D03*
X77521000Y-80950000D03*
X78791000Y-79680000D03*
D11*
X78791000Y-80950000D03*
%TD*%
D20*
%TO.C,F2*%
X122733000Y-85522000D03*
D12*
X122733000Y-93142000D03*
%TD*%
M02*
