%TF.GenerationSoftware,KiCad,Pcbnew,(5.1.10)-1*%
%TF.CreationDate,2022-01-18T17:52:16+07:00*%
%TF.ProjectId,Power_manager_v3,506f7765-725f-46d6-916e-616765725f76,rev?*%
%TF.SameCoordinates,Original*%
%TF.FileFunction,Legend,Bot*%
%TF.FilePolarity,Positive*%
%FSLAX46Y46*%
G04 Gerber Fmt 4.6, Leading zero omitted, Abs format (unit mm)*
G04 Created by KiCad (PCBNEW (5.1.10)-1) date 2022-01-18 17:52:16*
%MOMM*%
%LPD*%
G01*
G04 APERTURE LIST*
%ADD10C,0.150000*%
%ADD11C,0.120000*%
%ADD12C,1.000000*%
%ADD13R,1.000000X1.000000*%
%ADD14C,1.600000*%
%ADD15R,1.600000X1.600000*%
%ADD16R,2.400000X1.700000*%
%ADD17O,2.400000X1.700000*%
%ADD18O,1.700000X1.700000*%
%ADD19R,1.900000X2.700000*%
%ADD20O,1.000000X1.000000*%
%ADD21C,1.500000*%
%ADD22O,1.600000X1.600000*%
%ADD23C,2.000000*%
%ADD24R,0.400000X3.200000*%
%ADD25R,0.400000X1.000000*%
%ADD26R,0.800000X0.900000*%
%ADD27C,1.800000*%
%ADD28R,1.800000X1.800000*%
%ADD29R,1.800000X1.500000*%
G04 APERTURE END LIST*
D10*
X75941428Y-91142000D02*
X75941428Y-91903904D01*
X76322380Y-91522952D02*
X75560476Y-91522952D01*
X75322380Y-92284857D02*
X75322380Y-92903904D01*
X75703333Y-92570571D01*
X75703333Y-92713428D01*
X75750952Y-92808666D01*
X75798571Y-92856285D01*
X75893809Y-92903904D01*
X76131904Y-92903904D01*
X76227142Y-92856285D01*
X76274761Y-92808666D01*
X76322380Y-92713428D01*
X76322380Y-92427714D01*
X76274761Y-92332476D01*
X76227142Y-92284857D01*
X76227142Y-93332476D02*
X76274761Y-93380095D01*
X76322380Y-93332476D01*
X76274761Y-93284857D01*
X76227142Y-93332476D01*
X76322380Y-93332476D01*
X75322380Y-93713428D02*
X75322380Y-94332476D01*
X75703333Y-93999142D01*
X75703333Y-94142000D01*
X75750952Y-94237238D01*
X75798571Y-94284857D01*
X75893809Y-94332476D01*
X76131904Y-94332476D01*
X76227142Y-94284857D01*
X76274761Y-94237238D01*
X76322380Y-94142000D01*
X76322380Y-93856285D01*
X76274761Y-93761047D01*
X76227142Y-93713428D01*
X75322380Y-94618190D02*
X76322380Y-94951523D01*
X75322380Y-95284857D01*
X75941428Y-85125285D02*
X75941428Y-85887190D01*
X76322380Y-85506238D02*
X75560476Y-85506238D01*
X75322380Y-86839571D02*
X75322380Y-86363380D01*
X75798571Y-86315761D01*
X75750952Y-86363380D01*
X75703333Y-86458619D01*
X75703333Y-86696714D01*
X75750952Y-86791952D01*
X75798571Y-86839571D01*
X75893809Y-86887190D01*
X76131904Y-86887190D01*
X76227142Y-86839571D01*
X76274761Y-86791952D01*
X76322380Y-86696714D01*
X76322380Y-86458619D01*
X76274761Y-86363380D01*
X76227142Y-86315761D01*
X75322380Y-87172904D02*
X76322380Y-87506238D01*
X75322380Y-87839571D01*
D11*
%TO.C,U4*%
X86039500Y-75030000D02*
X86039500Y-96530000D01*
X103311500Y-75030000D02*
X103311500Y-96530000D01*
X103311500Y-75030000D02*
X86039500Y-75030000D01*
X91500500Y-75030000D02*
X91500500Y-96530000D01*
X103311500Y-96530000D02*
X86039500Y-96530000D01*
X93100500Y-75030000D02*
X93100500Y-96530000D01*
%TO.C,U1*%
X75708000Y-98543000D02*
X75708000Y-75043000D01*
X76708000Y-98543000D02*
X76708000Y-75043000D01*
X75708000Y-98543000D02*
X89208000Y-98543000D01*
X89208000Y-75043000D02*
X75708000Y-75043000D01*
X89208000Y-98543000D02*
X89208000Y-75043000D01*
%TO.C,JP4*%
X101780000Y-75502000D02*
X101780000Y-76632000D01*
X102540000Y-75502000D02*
X101780000Y-75502000D01*
X101845000Y-78209530D02*
X101845000Y-79032000D01*
X101845000Y-77392000D02*
X101845000Y-77594470D01*
X101976529Y-77392000D02*
X101845000Y-77392000D01*
X103246529Y-77392000D02*
X103103471Y-77392000D01*
X103300000Y-77195471D02*
X103300000Y-77338529D01*
X103300000Y-75502000D02*
X103300000Y-76068529D01*
X101845000Y-79032000D02*
X104505000Y-79032000D01*
X103300000Y-75502000D02*
X104505000Y-75502000D01*
X104505000Y-76939530D02*
X104505000Y-77594470D01*
X104505000Y-78209530D02*
X104505000Y-79032000D01*
X104505000Y-75502000D02*
X104505000Y-76324470D01*
%TO.C,R27*%
X107634500Y-84585742D02*
X107634500Y-85060258D01*
X106589500Y-84585742D02*
X106589500Y-85060258D01*
%TO.C,L1*%
X91922436Y-93550000D02*
X92376564Y-93550000D01*
X91922436Y-95020000D02*
X92376564Y-95020000D01*
%TO.C,C16*%
X102796000Y-86918420D02*
X102796000Y-87199580D01*
X101776000Y-86918420D02*
X101776000Y-87199580D01*
%TO.C,C14*%
X96444580Y-94287000D02*
X96163420Y-94287000D01*
X96444580Y-93267000D02*
X96163420Y-93267000D01*
%TO.C,GND1*%
X79737000Y-86665000D02*
G75*
G03*
X79737000Y-86665000I-1200000J0D01*
G01*
%TO.C,Y2*%
X100530000Y-81515000D02*
X100530000Y-79515000D01*
X96930000Y-79515000D02*
X96930000Y-81515000D01*
X97980000Y-79115000D02*
X97980000Y-78715000D01*
X96730000Y-81515000D02*
X96730000Y-79515000D01*
X100530000Y-79515000D02*
X100530000Y-79115000D01*
X96930000Y-79515000D02*
X96930000Y-79115000D01*
X96730000Y-79515000D02*
X96730000Y-79115000D01*
X96930000Y-81515000D02*
X97080000Y-81515000D01*
X96930000Y-79115000D02*
X97080000Y-79115000D01*
X97980000Y-79115000D02*
X97930000Y-79115000D01*
X100530000Y-79115000D02*
X100380000Y-79115000D01*
X100530000Y-81515000D02*
X100380000Y-81515000D01*
D10*
%TO.C,U6*%
X101332000Y-86672000D02*
X101232000Y-86672000D01*
X95807000Y-86647000D02*
X95832000Y-86647000D01*
X95807000Y-91297000D02*
X95832000Y-91297000D01*
X101332000Y-92372000D02*
X101332000Y-86672000D01*
X95807000Y-91297000D02*
X95807000Y-86647000D01*
D11*
%TO.C,R26*%
X99030258Y-82459500D02*
X98555742Y-82459500D01*
X99030258Y-83504500D02*
X98555742Y-83504500D01*
%TO.C,R22*%
X99876436Y-97433000D02*
X100330564Y-97433000D01*
X99876436Y-95963000D02*
X100330564Y-95963000D01*
%TO.C,R17*%
X96694564Y-95963000D02*
X96240436Y-95963000D01*
X96694564Y-97433000D02*
X96240436Y-97433000D01*
%TO.C,R12*%
X89582564Y-97995000D02*
X89128436Y-97995000D01*
X89582564Y-99465000D02*
X89128436Y-99465000D01*
%TO.C,R11*%
X93138564Y-96725000D02*
X92684436Y-96725000D01*
X93138564Y-98195000D02*
X92684436Y-98195000D01*
%TO.C,R7*%
X108175258Y-80554500D02*
X107700742Y-80554500D01*
X108175258Y-81599500D02*
X107700742Y-81599500D01*
%TO.C,R3*%
X108175258Y-82078500D02*
X107700742Y-82078500D01*
X108175258Y-83123500D02*
X107700742Y-83123500D01*
%TO.C,Q1*%
X106106000Y-77761000D02*
X107036000Y-77761000D01*
X109266000Y-77761000D02*
X108336000Y-77761000D01*
X109266000Y-77761000D02*
X109266000Y-79921000D01*
X106106000Y-77761000D02*
X106106000Y-79221000D01*
%TO.C,C19*%
X97204000Y-76732420D02*
X97204000Y-77013580D01*
X98224000Y-76732420D02*
X98224000Y-77013580D01*
%TO.C,C18*%
X99236000Y-76732420D02*
X99236000Y-77013580D01*
X100256000Y-76732420D02*
X100256000Y-77013580D01*
%TO.C,C13*%
X100327252Y-93804000D02*
X99804748Y-93804000D01*
X100327252Y-95274000D02*
X99804748Y-95274000D01*
%TO.C,C8*%
X84228000Y-77902580D02*
X84228000Y-77621420D01*
X83208000Y-77902580D02*
X83208000Y-77621420D01*
%TO.C,C6*%
X85778000Y-77902580D02*
X85778000Y-77621420D01*
X84758000Y-77902580D02*
X84758000Y-77621420D01*
%TO.C,R4*%
X118081258Y-82078500D02*
X117606742Y-82078500D01*
X118081258Y-83123500D02*
X117606742Y-83123500D01*
%TO.C,R10*%
X118081258Y-80554500D02*
X117606742Y-80554500D01*
X118081258Y-81599500D02*
X117606742Y-81599500D01*
%TO.C,Q2*%
X116012000Y-77793000D02*
X116942000Y-77793000D01*
X119172000Y-77793000D02*
X118242000Y-77793000D01*
X119172000Y-77793000D02*
X119172000Y-79953000D01*
X116012000Y-77793000D02*
X116012000Y-79253000D01*
%TO.C,R14*%
X78490742Y-90743500D02*
X78965258Y-90743500D01*
X78490742Y-89698500D02*
X78965258Y-89698500D01*
%TO.C,D6*%
X75389000Y-90284500D02*
X75389000Y-87999500D01*
X75389000Y-87999500D02*
X76859000Y-87999500D01*
X76859000Y-87999500D02*
X76859000Y-90284500D01*
%TO.C,U2*%
X115066000Y-99550000D02*
X109566000Y-99550000D01*
X109566000Y-75050000D02*
X109566000Y-99550000D01*
X115066000Y-75050000D02*
X109566000Y-75050000D01*
X115066000Y-75050000D02*
X115066000Y-99550000D01*
%TO.C,R16*%
X117311000Y-92772000D02*
X117311000Y-93972000D01*
X119011000Y-93972000D02*
X119011000Y-92772000D01*
%TO.C,R15*%
X107532000Y-92772000D02*
X107532000Y-93972000D01*
X109232000Y-93972000D02*
X109232000Y-92772000D01*
%TO.C,D2*%
X118669000Y-76732000D02*
X116384000Y-76732000D01*
X116384000Y-76732000D02*
X116384000Y-75262000D01*
X116384000Y-75262000D02*
X118669000Y-75262000D01*
%TO.C,D1*%
X108763000Y-76732000D02*
X106478000Y-76732000D01*
X106478000Y-76732000D02*
X106478000Y-75262000D01*
X106478000Y-75262000D02*
X108763000Y-75262000D01*
%TO.C,R13*%
X78362742Y-84901500D02*
X78837258Y-84901500D01*
X78362742Y-83856500D02*
X78837258Y-83856500D01*
%TO.C,D5*%
X75389000Y-84391500D02*
X75389000Y-82106500D01*
X75389000Y-82106500D02*
X76859000Y-82106500D01*
X76859000Y-82106500D02*
X76859000Y-84391500D01*
%TO.C,U3*%
X124972000Y-99550000D02*
X119472000Y-99550000D01*
X119472000Y-75050000D02*
X119472000Y-99550000D01*
X124972000Y-75050000D02*
X119472000Y-75050000D01*
X124972000Y-75050000D02*
X124972000Y-99550000D01*
%TO.C,U4*%
D10*
X94919904Y-75322380D02*
X94919904Y-76131904D01*
X94872285Y-76227142D01*
X94824666Y-76274761D01*
X94729428Y-76322380D01*
X94538952Y-76322380D01*
X94443714Y-76274761D01*
X94396095Y-76227142D01*
X94348476Y-76131904D01*
X94348476Y-75322380D01*
X93443714Y-75655714D02*
X93443714Y-76322380D01*
X93681809Y-75274761D02*
X93919904Y-75989047D01*
X93300857Y-75989047D01*
%TO.C,U1*%
X82460380Y-86031095D02*
X83269904Y-86031095D01*
X83365142Y-86078714D01*
X83412761Y-86126333D01*
X83460380Y-86221571D01*
X83460380Y-86412047D01*
X83412761Y-86507285D01*
X83365142Y-86554904D01*
X83269904Y-86602523D01*
X82460380Y-86602523D01*
X83460380Y-87602523D02*
X83460380Y-87031095D01*
X83460380Y-87316809D02*
X82460380Y-87316809D01*
X82603238Y-87221571D01*
X82698476Y-87126333D01*
X82746095Y-87031095D01*
%TO.C,JP4*%
X104008333Y-79386380D02*
X104008333Y-80100666D01*
X104055952Y-80243523D01*
X104151190Y-80338761D01*
X104294047Y-80386380D01*
X104389285Y-80386380D01*
X103532142Y-80386380D02*
X103532142Y-79386380D01*
X103151190Y-79386380D01*
X103055952Y-79434000D01*
X103008333Y-79481619D01*
X102960714Y-79576857D01*
X102960714Y-79719714D01*
X103008333Y-79814952D01*
X103055952Y-79862571D01*
X103151190Y-79910190D01*
X103532142Y-79910190D01*
X102103571Y-79719714D02*
X102103571Y-80386380D01*
X102341666Y-79338761D02*
X102579761Y-80053047D01*
X101960714Y-80053047D01*
%TO.C,R27*%
X107754857Y-87244380D02*
X108088190Y-86768190D01*
X108326285Y-87244380D02*
X108326285Y-86244380D01*
X107945333Y-86244380D01*
X107850095Y-86292000D01*
X107802476Y-86339619D01*
X107754857Y-86434857D01*
X107754857Y-86577714D01*
X107802476Y-86672952D01*
X107850095Y-86720571D01*
X107945333Y-86768190D01*
X108326285Y-86768190D01*
X107373904Y-86339619D02*
X107326285Y-86292000D01*
X107231047Y-86244380D01*
X106992952Y-86244380D01*
X106897714Y-86292000D01*
X106850095Y-86339619D01*
X106802476Y-86434857D01*
X106802476Y-86530095D01*
X106850095Y-86672952D01*
X107421523Y-87244380D01*
X106802476Y-87244380D01*
X106469142Y-86244380D02*
X105802476Y-86244380D01*
X106231047Y-87244380D01*
%TO.C,L1*%
X89799666Y-94737380D02*
X90275857Y-94737380D01*
X90275857Y-93737380D01*
X88942523Y-94737380D02*
X89513952Y-94737380D01*
X89228238Y-94737380D02*
X89228238Y-93737380D01*
X89323476Y-93880238D01*
X89418714Y-93975476D01*
X89513952Y-94023095D01*
%TO.C,C16*%
X102643142Y-89197142D02*
X102690761Y-89149523D01*
X102738380Y-89006666D01*
X102738380Y-88911428D01*
X102690761Y-88768571D01*
X102595523Y-88673333D01*
X102500285Y-88625714D01*
X102309809Y-88578095D01*
X102166952Y-88578095D01*
X101976476Y-88625714D01*
X101881238Y-88673333D01*
X101786000Y-88768571D01*
X101738380Y-88911428D01*
X101738380Y-89006666D01*
X101786000Y-89149523D01*
X101833619Y-89197142D01*
X102738380Y-90149523D02*
X102738380Y-89578095D01*
X102738380Y-89863809D02*
X101738380Y-89863809D01*
X101881238Y-89768571D01*
X101976476Y-89673333D01*
X102024095Y-89578095D01*
X101738380Y-91006666D02*
X101738380Y-90816190D01*
X101786000Y-90720952D01*
X101833619Y-90673333D01*
X101976476Y-90578095D01*
X102166952Y-90530476D01*
X102547904Y-90530476D01*
X102643142Y-90578095D01*
X102690761Y-90625714D01*
X102738380Y-90720952D01*
X102738380Y-90911428D01*
X102690761Y-91006666D01*
X102643142Y-91054285D01*
X102547904Y-91101904D01*
X102309809Y-91101904D01*
X102214571Y-91054285D01*
X102166952Y-91006666D01*
X102119333Y-90911428D01*
X102119333Y-90720952D01*
X102166952Y-90625714D01*
X102214571Y-90578095D01*
X102309809Y-90530476D01*
%TO.C,C14*%
X96959857Y-95404142D02*
X97007476Y-95451761D01*
X97150333Y-95499380D01*
X97245571Y-95499380D01*
X97388428Y-95451761D01*
X97483666Y-95356523D01*
X97531285Y-95261285D01*
X97578904Y-95070809D01*
X97578904Y-94927952D01*
X97531285Y-94737476D01*
X97483666Y-94642238D01*
X97388428Y-94547000D01*
X97245571Y-94499380D01*
X97150333Y-94499380D01*
X97007476Y-94547000D01*
X96959857Y-94594619D01*
X96007476Y-95499380D02*
X96578904Y-95499380D01*
X96293190Y-95499380D02*
X96293190Y-94499380D01*
X96388428Y-94642238D01*
X96483666Y-94737476D01*
X96578904Y-94785095D01*
X95150333Y-94832714D02*
X95150333Y-95499380D01*
X95388428Y-94451761D02*
X95626523Y-95166047D01*
X95007476Y-95166047D01*
%TO.C,GND1*%
X82950095Y-86419000D02*
X83045333Y-86371380D01*
X83188190Y-86371380D01*
X83331047Y-86419000D01*
X83426285Y-86514238D01*
X83473904Y-86609476D01*
X83521523Y-86799952D01*
X83521523Y-86942809D01*
X83473904Y-87133285D01*
X83426285Y-87228523D01*
X83331047Y-87323761D01*
X83188190Y-87371380D01*
X83092952Y-87371380D01*
X82950095Y-87323761D01*
X82902476Y-87276142D01*
X82902476Y-86942809D01*
X83092952Y-86942809D01*
X82473904Y-87371380D02*
X82473904Y-86371380D01*
X81902476Y-87371380D01*
X81902476Y-86371380D01*
X81426285Y-87371380D02*
X81426285Y-86371380D01*
X81188190Y-86371380D01*
X81045333Y-86419000D01*
X80950095Y-86514238D01*
X80902476Y-86609476D01*
X80854857Y-86799952D01*
X80854857Y-86942809D01*
X80902476Y-87133285D01*
X80950095Y-87228523D01*
X81045333Y-87323761D01*
X81188190Y-87371380D01*
X81426285Y-87371380D01*
X79902476Y-87371380D02*
X80473904Y-87371380D01*
X80188190Y-87371380D02*
X80188190Y-86371380D01*
X80283428Y-86514238D01*
X80378666Y-86609476D01*
X80473904Y-86657095D01*
%TO.C,Y2*%
X96031190Y-80291190D02*
X96031190Y-80767380D01*
X96364523Y-79767380D02*
X96031190Y-80291190D01*
X95697857Y-79767380D01*
X95412142Y-79862619D02*
X95364523Y-79815000D01*
X95269285Y-79767380D01*
X95031190Y-79767380D01*
X94935952Y-79815000D01*
X94888333Y-79862619D01*
X94840714Y-79957857D01*
X94840714Y-80053095D01*
X94888333Y-80195952D01*
X95459761Y-80767380D01*
X94840714Y-80767380D01*
%TO.C,U6*%
X95300904Y-86625380D02*
X95300904Y-87434904D01*
X95253285Y-87530142D01*
X95205666Y-87577761D01*
X95110428Y-87625380D01*
X94919952Y-87625380D01*
X94824714Y-87577761D01*
X94777095Y-87530142D01*
X94729476Y-87434904D01*
X94729476Y-86625380D01*
X93824714Y-86625380D02*
X94015190Y-86625380D01*
X94110428Y-86673000D01*
X94158047Y-86720619D01*
X94253285Y-86863476D01*
X94300904Y-87053952D01*
X94300904Y-87434904D01*
X94253285Y-87530142D01*
X94205666Y-87577761D01*
X94110428Y-87625380D01*
X93919952Y-87625380D01*
X93824714Y-87577761D01*
X93777095Y-87530142D01*
X93729476Y-87434904D01*
X93729476Y-87196809D01*
X93777095Y-87101571D01*
X93824714Y-87053952D01*
X93919952Y-87006333D01*
X94110428Y-87006333D01*
X94205666Y-87053952D01*
X94253285Y-87101571D01*
X94300904Y-87196809D01*
%TO.C,R26*%
X96578857Y-83434380D02*
X96912190Y-82958190D01*
X97150285Y-83434380D02*
X97150285Y-82434380D01*
X96769333Y-82434380D01*
X96674095Y-82482000D01*
X96626476Y-82529619D01*
X96578857Y-82624857D01*
X96578857Y-82767714D01*
X96626476Y-82862952D01*
X96674095Y-82910571D01*
X96769333Y-82958190D01*
X97150285Y-82958190D01*
X96197904Y-82529619D02*
X96150285Y-82482000D01*
X96055047Y-82434380D01*
X95816952Y-82434380D01*
X95721714Y-82482000D01*
X95674095Y-82529619D01*
X95626476Y-82624857D01*
X95626476Y-82720095D01*
X95674095Y-82862952D01*
X96245523Y-83434380D01*
X95626476Y-83434380D01*
X94769333Y-82434380D02*
X94959809Y-82434380D01*
X95055047Y-82482000D01*
X95102666Y-82529619D01*
X95197904Y-82672476D01*
X95245523Y-82862952D01*
X95245523Y-83243904D01*
X95197904Y-83339142D01*
X95150285Y-83386761D01*
X95055047Y-83434380D01*
X94864571Y-83434380D01*
X94769333Y-83386761D01*
X94721714Y-83339142D01*
X94674095Y-83243904D01*
X94674095Y-83005809D01*
X94721714Y-82910571D01*
X94769333Y-82862952D01*
X94864571Y-82815333D01*
X95055047Y-82815333D01*
X95150285Y-82862952D01*
X95197904Y-82910571D01*
X95245523Y-83005809D01*
%TO.C,R22*%
X100769857Y-98674380D02*
X101103190Y-98198190D01*
X101341285Y-98674380D02*
X101341285Y-97674380D01*
X100960333Y-97674380D01*
X100865095Y-97722000D01*
X100817476Y-97769619D01*
X100769857Y-97864857D01*
X100769857Y-98007714D01*
X100817476Y-98102952D01*
X100865095Y-98150571D01*
X100960333Y-98198190D01*
X101341285Y-98198190D01*
X100388904Y-97769619D02*
X100341285Y-97722000D01*
X100246047Y-97674380D01*
X100007952Y-97674380D01*
X99912714Y-97722000D01*
X99865095Y-97769619D01*
X99817476Y-97864857D01*
X99817476Y-97960095D01*
X99865095Y-98102952D01*
X100436523Y-98674380D01*
X99817476Y-98674380D01*
X99436523Y-97769619D02*
X99388904Y-97722000D01*
X99293666Y-97674380D01*
X99055571Y-97674380D01*
X98960333Y-97722000D01*
X98912714Y-97769619D01*
X98865095Y-97864857D01*
X98865095Y-97960095D01*
X98912714Y-98102952D01*
X99484142Y-98674380D01*
X98865095Y-98674380D01*
%TO.C,R17*%
X97086857Y-98674380D02*
X97420190Y-98198190D01*
X97658285Y-98674380D02*
X97658285Y-97674380D01*
X97277333Y-97674380D01*
X97182095Y-97722000D01*
X97134476Y-97769619D01*
X97086857Y-97864857D01*
X97086857Y-98007714D01*
X97134476Y-98102952D01*
X97182095Y-98150571D01*
X97277333Y-98198190D01*
X97658285Y-98198190D01*
X96134476Y-98674380D02*
X96705904Y-98674380D01*
X96420190Y-98674380D02*
X96420190Y-97674380D01*
X96515428Y-97817238D01*
X96610666Y-97912476D01*
X96705904Y-97960095D01*
X95801142Y-97674380D02*
X95134476Y-97674380D01*
X95563047Y-98674380D01*
%TO.C,R12*%
X89847857Y-97658380D02*
X90181190Y-97182190D01*
X90419285Y-97658380D02*
X90419285Y-96658380D01*
X90038333Y-96658380D01*
X89943095Y-96706000D01*
X89895476Y-96753619D01*
X89847857Y-96848857D01*
X89847857Y-96991714D01*
X89895476Y-97086952D01*
X89943095Y-97134571D01*
X90038333Y-97182190D01*
X90419285Y-97182190D01*
X88895476Y-97658380D02*
X89466904Y-97658380D01*
X89181190Y-97658380D02*
X89181190Y-96658380D01*
X89276428Y-96801238D01*
X89371666Y-96896476D01*
X89466904Y-96944095D01*
X88514523Y-96753619D02*
X88466904Y-96706000D01*
X88371666Y-96658380D01*
X88133571Y-96658380D01*
X88038333Y-96706000D01*
X87990714Y-96753619D01*
X87943095Y-96848857D01*
X87943095Y-96944095D01*
X87990714Y-97086952D01*
X88562142Y-97658380D01*
X87943095Y-97658380D01*
%TO.C,R11*%
X93530857Y-99436380D02*
X93864190Y-98960190D01*
X94102285Y-99436380D02*
X94102285Y-98436380D01*
X93721333Y-98436380D01*
X93626095Y-98484000D01*
X93578476Y-98531619D01*
X93530857Y-98626857D01*
X93530857Y-98769714D01*
X93578476Y-98864952D01*
X93626095Y-98912571D01*
X93721333Y-98960190D01*
X94102285Y-98960190D01*
X92578476Y-99436380D02*
X93149904Y-99436380D01*
X92864190Y-99436380D02*
X92864190Y-98436380D01*
X92959428Y-98579238D01*
X93054666Y-98674476D01*
X93149904Y-98722095D01*
X91626095Y-99436380D02*
X92197523Y-99436380D01*
X91911809Y-99436380D02*
X91911809Y-98436380D01*
X92007047Y-98579238D01*
X92102285Y-98674476D01*
X92197523Y-98722095D01*
%TO.C,R7*%
X105882666Y-81402380D02*
X106216000Y-80926190D01*
X106454095Y-81402380D02*
X106454095Y-80402380D01*
X106073142Y-80402380D01*
X105977904Y-80450000D01*
X105930285Y-80497619D01*
X105882666Y-80592857D01*
X105882666Y-80735714D01*
X105930285Y-80830952D01*
X105977904Y-80878571D01*
X106073142Y-80926190D01*
X106454095Y-80926190D01*
X105549333Y-80402380D02*
X104882666Y-80402380D01*
X105311238Y-81402380D01*
%TO.C,R3*%
X108040666Y-84424980D02*
X108374000Y-83948790D01*
X108612095Y-84424980D02*
X108612095Y-83424980D01*
X108231142Y-83424980D01*
X108135904Y-83472600D01*
X108088285Y-83520219D01*
X108040666Y-83615457D01*
X108040666Y-83758314D01*
X108088285Y-83853552D01*
X108135904Y-83901171D01*
X108231142Y-83948790D01*
X108612095Y-83948790D01*
X107707333Y-83424980D02*
X107088285Y-83424980D01*
X107421619Y-83805933D01*
X107278761Y-83805933D01*
X107183523Y-83853552D01*
X107135904Y-83901171D01*
X107088285Y-83996409D01*
X107088285Y-84234504D01*
X107135904Y-84329742D01*
X107183523Y-84377361D01*
X107278761Y-84424980D01*
X107564476Y-84424980D01*
X107659714Y-84377361D01*
X107707333Y-84329742D01*
%TO.C,Q1*%
X105881619Y-78425761D02*
X105834000Y-78330523D01*
X105738761Y-78235285D01*
X105595904Y-78092428D01*
X105548285Y-77997190D01*
X105548285Y-77901952D01*
X105786380Y-77949571D02*
X105738761Y-77854333D01*
X105643523Y-77759095D01*
X105453047Y-77711476D01*
X105119714Y-77711476D01*
X104929238Y-77759095D01*
X104834000Y-77854333D01*
X104786380Y-77949571D01*
X104786380Y-78140047D01*
X104834000Y-78235285D01*
X104929238Y-78330523D01*
X105119714Y-78378142D01*
X105453047Y-78378142D01*
X105643523Y-78330523D01*
X105738761Y-78235285D01*
X105786380Y-78140047D01*
X105786380Y-77949571D01*
X105786380Y-79330523D02*
X105786380Y-78759095D01*
X105786380Y-79044809D02*
X104786380Y-79044809D01*
X104929238Y-78949571D01*
X105024476Y-78854333D01*
X105072095Y-78759095D01*
%TO.C,C19*%
X96928142Y-76243142D02*
X96975761Y-76195523D01*
X97023380Y-76052666D01*
X97023380Y-75957428D01*
X96975761Y-75814571D01*
X96880523Y-75719333D01*
X96785285Y-75671714D01*
X96594809Y-75624095D01*
X96451952Y-75624095D01*
X96261476Y-75671714D01*
X96166238Y-75719333D01*
X96071000Y-75814571D01*
X96023380Y-75957428D01*
X96023380Y-76052666D01*
X96071000Y-76195523D01*
X96118619Y-76243142D01*
X97023380Y-77195523D02*
X97023380Y-76624095D01*
X97023380Y-76909809D02*
X96023380Y-76909809D01*
X96166238Y-76814571D01*
X96261476Y-76719333D01*
X96309095Y-76624095D01*
X97023380Y-77671714D02*
X97023380Y-77862190D01*
X96975761Y-77957428D01*
X96928142Y-78005047D01*
X96785285Y-78100285D01*
X96594809Y-78147904D01*
X96213857Y-78147904D01*
X96118619Y-78100285D01*
X96071000Y-78052666D01*
X96023380Y-77957428D01*
X96023380Y-77766952D01*
X96071000Y-77671714D01*
X96118619Y-77624095D01*
X96213857Y-77576476D01*
X96451952Y-77576476D01*
X96547190Y-77624095D01*
X96594809Y-77671714D01*
X96642428Y-77766952D01*
X96642428Y-77957428D01*
X96594809Y-78052666D01*
X96547190Y-78100285D01*
X96451952Y-78147904D01*
%TO.C,C18*%
X101373142Y-75989142D02*
X101420761Y-75941523D01*
X101468380Y-75798666D01*
X101468380Y-75703428D01*
X101420761Y-75560571D01*
X101325523Y-75465333D01*
X101230285Y-75417714D01*
X101039809Y-75370095D01*
X100896952Y-75370095D01*
X100706476Y-75417714D01*
X100611238Y-75465333D01*
X100516000Y-75560571D01*
X100468380Y-75703428D01*
X100468380Y-75798666D01*
X100516000Y-75941523D01*
X100563619Y-75989142D01*
X101468380Y-76941523D02*
X101468380Y-76370095D01*
X101468380Y-76655809D02*
X100468380Y-76655809D01*
X100611238Y-76560571D01*
X100706476Y-76465333D01*
X100754095Y-76370095D01*
X100896952Y-77512952D02*
X100849333Y-77417714D01*
X100801714Y-77370095D01*
X100706476Y-77322476D01*
X100658857Y-77322476D01*
X100563619Y-77370095D01*
X100516000Y-77417714D01*
X100468380Y-77512952D01*
X100468380Y-77703428D01*
X100516000Y-77798666D01*
X100563619Y-77846285D01*
X100658857Y-77893904D01*
X100706476Y-77893904D01*
X100801714Y-77846285D01*
X100849333Y-77798666D01*
X100896952Y-77703428D01*
X100896952Y-77512952D01*
X100944571Y-77417714D01*
X100992190Y-77370095D01*
X101087428Y-77322476D01*
X101277904Y-77322476D01*
X101373142Y-77370095D01*
X101420761Y-77417714D01*
X101468380Y-77512952D01*
X101468380Y-77703428D01*
X101420761Y-77798666D01*
X101373142Y-77846285D01*
X101277904Y-77893904D01*
X101087428Y-77893904D01*
X100992190Y-77846285D01*
X100944571Y-77798666D01*
X100896952Y-77703428D01*
%TO.C,C13*%
X102770142Y-93896142D02*
X102817761Y-93848523D01*
X102865380Y-93705666D01*
X102865380Y-93610428D01*
X102817761Y-93467571D01*
X102722523Y-93372333D01*
X102627285Y-93324714D01*
X102436809Y-93277095D01*
X102293952Y-93277095D01*
X102103476Y-93324714D01*
X102008238Y-93372333D01*
X101913000Y-93467571D01*
X101865380Y-93610428D01*
X101865380Y-93705666D01*
X101913000Y-93848523D01*
X101960619Y-93896142D01*
X102865380Y-94848523D02*
X102865380Y-94277095D01*
X102865380Y-94562809D02*
X101865380Y-94562809D01*
X102008238Y-94467571D01*
X102103476Y-94372333D01*
X102151095Y-94277095D01*
X101865380Y-95181857D02*
X101865380Y-95800904D01*
X102246333Y-95467571D01*
X102246333Y-95610428D01*
X102293952Y-95705666D01*
X102341571Y-95753285D01*
X102436809Y-95800904D01*
X102674904Y-95800904D01*
X102770142Y-95753285D01*
X102817761Y-95705666D01*
X102865380Y-95610428D01*
X102865380Y-95324714D01*
X102817761Y-95229476D01*
X102770142Y-95181857D01*
%TO.C,C8*%
X84101142Y-79894333D02*
X84148761Y-79846714D01*
X84196380Y-79703857D01*
X84196380Y-79608619D01*
X84148761Y-79465761D01*
X84053523Y-79370523D01*
X83958285Y-79322904D01*
X83767809Y-79275285D01*
X83624952Y-79275285D01*
X83434476Y-79322904D01*
X83339238Y-79370523D01*
X83244000Y-79465761D01*
X83196380Y-79608619D01*
X83196380Y-79703857D01*
X83244000Y-79846714D01*
X83291619Y-79894333D01*
X83624952Y-80465761D02*
X83577333Y-80370523D01*
X83529714Y-80322904D01*
X83434476Y-80275285D01*
X83386857Y-80275285D01*
X83291619Y-80322904D01*
X83244000Y-80370523D01*
X83196380Y-80465761D01*
X83196380Y-80656238D01*
X83244000Y-80751476D01*
X83291619Y-80799095D01*
X83386857Y-80846714D01*
X83434476Y-80846714D01*
X83529714Y-80799095D01*
X83577333Y-80751476D01*
X83624952Y-80656238D01*
X83624952Y-80465761D01*
X83672571Y-80370523D01*
X83720190Y-80322904D01*
X83815428Y-80275285D01*
X84005904Y-80275285D01*
X84101142Y-80322904D01*
X84148761Y-80370523D01*
X84196380Y-80465761D01*
X84196380Y-80656238D01*
X84148761Y-80751476D01*
X84101142Y-80799095D01*
X84005904Y-80846714D01*
X83815428Y-80846714D01*
X83720190Y-80799095D01*
X83672571Y-80751476D01*
X83624952Y-80656238D01*
%TO.C,C6*%
X85625142Y-79894333D02*
X85672761Y-79846714D01*
X85720380Y-79703857D01*
X85720380Y-79608619D01*
X85672761Y-79465761D01*
X85577523Y-79370523D01*
X85482285Y-79322904D01*
X85291809Y-79275285D01*
X85148952Y-79275285D01*
X84958476Y-79322904D01*
X84863238Y-79370523D01*
X84768000Y-79465761D01*
X84720380Y-79608619D01*
X84720380Y-79703857D01*
X84768000Y-79846714D01*
X84815619Y-79894333D01*
X84720380Y-80751476D02*
X84720380Y-80561000D01*
X84768000Y-80465761D01*
X84815619Y-80418142D01*
X84958476Y-80322904D01*
X85148952Y-80275285D01*
X85529904Y-80275285D01*
X85625142Y-80322904D01*
X85672761Y-80370523D01*
X85720380Y-80465761D01*
X85720380Y-80656238D01*
X85672761Y-80751476D01*
X85625142Y-80799095D01*
X85529904Y-80846714D01*
X85291809Y-80846714D01*
X85196571Y-80799095D01*
X85148952Y-80751476D01*
X85101333Y-80656238D01*
X85101333Y-80465761D01*
X85148952Y-80370523D01*
X85196571Y-80322904D01*
X85291809Y-80275285D01*
%TO.C,R4*%
X117946666Y-84450380D02*
X118280000Y-83974190D01*
X118518095Y-84450380D02*
X118518095Y-83450380D01*
X118137142Y-83450380D01*
X118041904Y-83498000D01*
X117994285Y-83545619D01*
X117946666Y-83640857D01*
X117946666Y-83783714D01*
X117994285Y-83878952D01*
X118041904Y-83926571D01*
X118137142Y-83974190D01*
X118518095Y-83974190D01*
X117089523Y-83783714D02*
X117089523Y-84450380D01*
X117327619Y-83402761D02*
X117565714Y-84117047D01*
X116946666Y-84117047D01*
%TO.C,R10*%
X116200380Y-83101142D02*
X115724190Y-82767809D01*
X116200380Y-82529714D02*
X115200380Y-82529714D01*
X115200380Y-82910666D01*
X115248000Y-83005904D01*
X115295619Y-83053523D01*
X115390857Y-83101142D01*
X115533714Y-83101142D01*
X115628952Y-83053523D01*
X115676571Y-83005904D01*
X115724190Y-82910666D01*
X115724190Y-82529714D01*
X116200380Y-84053523D02*
X116200380Y-83482095D01*
X116200380Y-83767809D02*
X115200380Y-83767809D01*
X115343238Y-83672571D01*
X115438476Y-83577333D01*
X115486095Y-83482095D01*
X115200380Y-84672571D02*
X115200380Y-84767809D01*
X115248000Y-84863047D01*
X115295619Y-84910666D01*
X115390857Y-84958285D01*
X115581333Y-85005904D01*
X115819428Y-85005904D01*
X116009904Y-84958285D01*
X116105142Y-84910666D01*
X116152761Y-84863047D01*
X116200380Y-84767809D01*
X116200380Y-84672571D01*
X116152761Y-84577333D01*
X116105142Y-84529714D01*
X116009904Y-84482095D01*
X115819428Y-84434476D01*
X115581333Y-84434476D01*
X115390857Y-84482095D01*
X115295619Y-84529714D01*
X115248000Y-84577333D01*
X115200380Y-84672571D01*
%TO.C,Q2*%
X116295619Y-81108761D02*
X116248000Y-81013523D01*
X116152761Y-80918285D01*
X116009904Y-80775428D01*
X115962285Y-80680190D01*
X115962285Y-80584952D01*
X116200380Y-80632571D02*
X116152761Y-80537333D01*
X116057523Y-80442095D01*
X115867047Y-80394476D01*
X115533714Y-80394476D01*
X115343238Y-80442095D01*
X115248000Y-80537333D01*
X115200380Y-80632571D01*
X115200380Y-80823047D01*
X115248000Y-80918285D01*
X115343238Y-81013523D01*
X115533714Y-81061142D01*
X115867047Y-81061142D01*
X116057523Y-81013523D01*
X116152761Y-80918285D01*
X116200380Y-80823047D01*
X116200380Y-80632571D01*
X115295619Y-81442095D02*
X115248000Y-81489714D01*
X115200380Y-81584952D01*
X115200380Y-81823047D01*
X115248000Y-81918285D01*
X115295619Y-81965904D01*
X115390857Y-82013523D01*
X115486095Y-82013523D01*
X115628952Y-81965904D01*
X116200380Y-81394476D01*
X116200380Y-82013523D01*
%TO.C,R14*%
X82227857Y-90800380D02*
X82561190Y-90324190D01*
X82799285Y-90800380D02*
X82799285Y-89800380D01*
X82418333Y-89800380D01*
X82323095Y-89848000D01*
X82275476Y-89895619D01*
X82227857Y-89990857D01*
X82227857Y-90133714D01*
X82275476Y-90228952D01*
X82323095Y-90276571D01*
X82418333Y-90324190D01*
X82799285Y-90324190D01*
X81275476Y-90800380D02*
X81846904Y-90800380D01*
X81561190Y-90800380D02*
X81561190Y-89800380D01*
X81656428Y-89943238D01*
X81751666Y-90038476D01*
X81846904Y-90086095D01*
X80418333Y-90133714D02*
X80418333Y-90800380D01*
X80656428Y-89752761D02*
X80894523Y-90467047D01*
X80275476Y-90467047D01*
%TO.C,D6*%
X78640095Y-89276380D02*
X78640095Y-88276380D01*
X78402000Y-88276380D01*
X78259142Y-88324000D01*
X78163904Y-88419238D01*
X78116285Y-88514476D01*
X78068666Y-88704952D01*
X78068666Y-88847809D01*
X78116285Y-89038285D01*
X78163904Y-89133523D01*
X78259142Y-89228761D01*
X78402000Y-89276380D01*
X78640095Y-89276380D01*
X77211523Y-88276380D02*
X77402000Y-88276380D01*
X77497238Y-88324000D01*
X77544857Y-88371619D01*
X77640095Y-88514476D01*
X77687714Y-88704952D01*
X77687714Y-89085904D01*
X77640095Y-89181142D01*
X77592476Y-89228761D01*
X77497238Y-89276380D01*
X77306761Y-89276380D01*
X77211523Y-89228761D01*
X77163904Y-89181142D01*
X77116285Y-89085904D01*
X77116285Y-88847809D01*
X77163904Y-88752571D01*
X77211523Y-88704952D01*
X77306761Y-88657333D01*
X77497238Y-88657333D01*
X77592476Y-88704952D01*
X77640095Y-88752571D01*
X77687714Y-88847809D01*
%TO.C,U2*%
X109270904Y-96023380D02*
X109270904Y-96832904D01*
X109223285Y-96928142D01*
X109175666Y-96975761D01*
X109080428Y-97023380D01*
X108889952Y-97023380D01*
X108794714Y-96975761D01*
X108747095Y-96928142D01*
X108699476Y-96832904D01*
X108699476Y-96023380D01*
X108270904Y-96118619D02*
X108223285Y-96071000D01*
X108128047Y-96023380D01*
X107889952Y-96023380D01*
X107794714Y-96071000D01*
X107747095Y-96118619D01*
X107699476Y-96213857D01*
X107699476Y-96309095D01*
X107747095Y-96451952D01*
X108318523Y-97023380D01*
X107699476Y-97023380D01*
%TO.C,R16*%
X116962380Y-92705142D02*
X116486190Y-92371809D01*
X116962380Y-92133714D02*
X115962380Y-92133714D01*
X115962380Y-92514666D01*
X116010000Y-92609904D01*
X116057619Y-92657523D01*
X116152857Y-92705142D01*
X116295714Y-92705142D01*
X116390952Y-92657523D01*
X116438571Y-92609904D01*
X116486190Y-92514666D01*
X116486190Y-92133714D01*
X116962380Y-93657523D02*
X116962380Y-93086095D01*
X116962380Y-93371809D02*
X115962380Y-93371809D01*
X116105238Y-93276571D01*
X116200476Y-93181333D01*
X116248095Y-93086095D01*
X115962380Y-94514666D02*
X115962380Y-94324190D01*
X116010000Y-94228952D01*
X116057619Y-94181333D01*
X116200476Y-94086095D01*
X116390952Y-94038476D01*
X116771904Y-94038476D01*
X116867142Y-94086095D01*
X116914761Y-94133714D01*
X116962380Y-94228952D01*
X116962380Y-94419428D01*
X116914761Y-94514666D01*
X116867142Y-94562285D01*
X116771904Y-94609904D01*
X116533809Y-94609904D01*
X116438571Y-94562285D01*
X116390952Y-94514666D01*
X116343333Y-94419428D01*
X116343333Y-94228952D01*
X116390952Y-94133714D01*
X116438571Y-94086095D01*
X116533809Y-94038476D01*
%TO.C,R15*%
X107183380Y-92832142D02*
X106707190Y-92498809D01*
X107183380Y-92260714D02*
X106183380Y-92260714D01*
X106183380Y-92641666D01*
X106231000Y-92736904D01*
X106278619Y-92784523D01*
X106373857Y-92832142D01*
X106516714Y-92832142D01*
X106611952Y-92784523D01*
X106659571Y-92736904D01*
X106707190Y-92641666D01*
X106707190Y-92260714D01*
X107183380Y-93784523D02*
X107183380Y-93213095D01*
X107183380Y-93498809D02*
X106183380Y-93498809D01*
X106326238Y-93403571D01*
X106421476Y-93308333D01*
X106469095Y-93213095D01*
X106183380Y-94689285D02*
X106183380Y-94213095D01*
X106659571Y-94165476D01*
X106611952Y-94213095D01*
X106564333Y-94308333D01*
X106564333Y-94546428D01*
X106611952Y-94641666D01*
X106659571Y-94689285D01*
X106754809Y-94736904D01*
X106992904Y-94736904D01*
X107088142Y-94689285D01*
X107135761Y-94641666D01*
X107183380Y-94546428D01*
X107183380Y-94308333D01*
X107135761Y-94213095D01*
X107088142Y-94165476D01*
%TO.C,D2*%
X116187880Y-75258904D02*
X115187880Y-75258904D01*
X115187880Y-75497000D01*
X115235500Y-75639857D01*
X115330738Y-75735095D01*
X115425976Y-75782714D01*
X115616452Y-75830333D01*
X115759309Y-75830333D01*
X115949785Y-75782714D01*
X116045023Y-75735095D01*
X116140261Y-75639857D01*
X116187880Y-75497000D01*
X116187880Y-75258904D01*
X115283119Y-76211285D02*
X115235500Y-76258904D01*
X115187880Y-76354142D01*
X115187880Y-76592238D01*
X115235500Y-76687476D01*
X115283119Y-76735095D01*
X115378357Y-76782714D01*
X115473595Y-76782714D01*
X115616452Y-76735095D01*
X116187880Y-76163666D01*
X116187880Y-76782714D01*
%TO.C,D1*%
X106281880Y-75258904D02*
X105281880Y-75258904D01*
X105281880Y-75497000D01*
X105329500Y-75639857D01*
X105424738Y-75735095D01*
X105519976Y-75782714D01*
X105710452Y-75830333D01*
X105853309Y-75830333D01*
X106043785Y-75782714D01*
X106139023Y-75735095D01*
X106234261Y-75639857D01*
X106281880Y-75497000D01*
X106281880Y-75258904D01*
X106281880Y-76782714D02*
X106281880Y-76211285D01*
X106281880Y-76497000D02*
X105281880Y-76497000D01*
X105424738Y-76401761D01*
X105519976Y-76306523D01*
X105567595Y-76211285D01*
%TO.C,R13*%
X81021380Y-83736142D02*
X80545190Y-83402809D01*
X81021380Y-83164714D02*
X80021380Y-83164714D01*
X80021380Y-83545666D01*
X80069000Y-83640904D01*
X80116619Y-83688523D01*
X80211857Y-83736142D01*
X80354714Y-83736142D01*
X80449952Y-83688523D01*
X80497571Y-83640904D01*
X80545190Y-83545666D01*
X80545190Y-83164714D01*
X81021380Y-84688523D02*
X81021380Y-84117095D01*
X81021380Y-84402809D02*
X80021380Y-84402809D01*
X80164238Y-84307571D01*
X80259476Y-84212333D01*
X80307095Y-84117095D01*
X80021380Y-85021857D02*
X80021380Y-85640904D01*
X80402333Y-85307571D01*
X80402333Y-85450428D01*
X80449952Y-85545666D01*
X80497571Y-85593285D01*
X80592809Y-85640904D01*
X80830904Y-85640904D01*
X80926142Y-85593285D01*
X80973761Y-85545666D01*
X81021380Y-85450428D01*
X81021380Y-85164714D01*
X80973761Y-85069476D01*
X80926142Y-85021857D01*
%TO.C,D5*%
X78640095Y-83307380D02*
X78640095Y-82307380D01*
X78402000Y-82307380D01*
X78259142Y-82355000D01*
X78163904Y-82450238D01*
X78116285Y-82545476D01*
X78068666Y-82735952D01*
X78068666Y-82878809D01*
X78116285Y-83069285D01*
X78163904Y-83164523D01*
X78259142Y-83259761D01*
X78402000Y-83307380D01*
X78640095Y-83307380D01*
X77163904Y-82307380D02*
X77640095Y-82307380D01*
X77687714Y-82783571D01*
X77640095Y-82735952D01*
X77544857Y-82688333D01*
X77306761Y-82688333D01*
X77211523Y-82735952D01*
X77163904Y-82783571D01*
X77116285Y-82878809D01*
X77116285Y-83116904D01*
X77163904Y-83212142D01*
X77211523Y-83259761D01*
X77306761Y-83307380D01*
X77544857Y-83307380D01*
X77640095Y-83259761D01*
X77687714Y-83212142D01*
%TO.C,U3*%
X119049904Y-96023380D02*
X119049904Y-96832904D01*
X119002285Y-96928142D01*
X118954666Y-96975761D01*
X118859428Y-97023380D01*
X118668952Y-97023380D01*
X118573714Y-96975761D01*
X118526095Y-96928142D01*
X118478476Y-96832904D01*
X118478476Y-96023380D01*
X118097523Y-96023380D02*
X117478476Y-96023380D01*
X117811809Y-96404333D01*
X117668952Y-96404333D01*
X117573714Y-96451952D01*
X117526095Y-96499571D01*
X117478476Y-96594809D01*
X117478476Y-96832904D01*
X117526095Y-96928142D01*
X117573714Y-96975761D01*
X117668952Y-97023380D01*
X117954666Y-97023380D01*
X118049904Y-96975761D01*
X118097523Y-96928142D01*
%TD*%
%LPC*%
D12*
%TO.C,U7*%
X104191000Y-84887000D03*
X104191000Y-83617000D03*
X102921000Y-84887000D03*
X102921000Y-83617000D03*
X101651000Y-84887000D03*
D13*
X101651000Y-83617000D03*
D12*
X84379000Y-84887000D03*
X84379000Y-83617000D03*
X83109000Y-84887000D03*
X83109000Y-83617000D03*
X81839000Y-84887000D03*
D13*
X81839000Y-83617000D03*
%TD*%
D14*
%TO.C,U4*%
X87427000Y-94158000D03*
X87427000Y-91618000D03*
X87436500Y-89078000D03*
X87427000Y-83998000D03*
X87427000Y-81458000D03*
X87427000Y-78918000D03*
D15*
X87427000Y-76378000D03*
%TD*%
D16*
%TO.C,U1*%
X81458000Y-97333000D03*
D17*
X81458000Y-92253000D03*
X81458000Y-79553000D03*
X81458000Y-77013000D03*
%TD*%
D18*
%TO.C,J4*%
X118542000Y-98222000D03*
X121082000Y-98222000D03*
D19*
X123622000Y-97714000D03*
%TD*%
D18*
%TO.C,J3*%
X108636000Y-98222000D03*
X111176000Y-98222000D03*
D19*
X113716000Y-97714000D03*
%TD*%
D18*
%TO.C,J1*%
X76378000Y-98222000D03*
X78918000Y-98222000D03*
D19*
X81458000Y-97714000D03*
%TD*%
D20*
%TO.C,JP4*%
X103810000Y-77902000D03*
X103810000Y-76632000D03*
X102540000Y-77902000D03*
D13*
X102540000Y-76632000D03*
%TD*%
D20*
%TO.C,J6*%
X89459000Y-79680000D03*
X89459000Y-80950000D03*
X90729000Y-79680000D03*
X90729000Y-80950000D03*
X91999000Y-79680000D03*
D13*
X91999000Y-80950000D03*
%TD*%
D21*
%TO.C,KP1*%
X89205000Y-86157000D03*
%TD*%
D22*
%TO.C,F1*%
X112700000Y-85522000D03*
D14*
X112700000Y-93142000D03*
%TD*%
%TO.C,R27*%
G36*
G01*
X106837000Y-85248000D02*
X107387000Y-85248000D01*
G75*
G02*
X107587000Y-85448000I0J-200000D01*
G01*
X107587000Y-85848000D01*
G75*
G02*
X107387000Y-86048000I-200000J0D01*
G01*
X106837000Y-86048000D01*
G75*
G02*
X106637000Y-85848000I0J200000D01*
G01*
X106637000Y-85448000D01*
G75*
G02*
X106837000Y-85248000I200000J0D01*
G01*
G37*
G36*
G01*
X106837000Y-83598000D02*
X107387000Y-83598000D01*
G75*
G02*
X107587000Y-83798000I0J-200000D01*
G01*
X107587000Y-84198000D01*
G75*
G02*
X107387000Y-84398000I-200000J0D01*
G01*
X106837000Y-84398000D01*
G75*
G02*
X106637000Y-84198000I0J200000D01*
G01*
X106637000Y-83798000D01*
G75*
G02*
X106837000Y-83598000I200000J0D01*
G01*
G37*
%TD*%
%TO.C,L1*%
G36*
G01*
X92549500Y-94735001D02*
X92549500Y-93834999D01*
G75*
G02*
X92799499Y-93585000I249999J0D01*
G01*
X93324501Y-93585000D01*
G75*
G02*
X93574500Y-93834999I0J-249999D01*
G01*
X93574500Y-94735001D01*
G75*
G02*
X93324501Y-94985000I-249999J0D01*
G01*
X92799499Y-94985000D01*
G75*
G02*
X92549500Y-94735001I0J249999D01*
G01*
G37*
G36*
G01*
X90724500Y-94735001D02*
X90724500Y-93834999D01*
G75*
G02*
X90974499Y-93585000I249999J0D01*
G01*
X91499501Y-93585000D01*
G75*
G02*
X91749500Y-93834999I0J-249999D01*
G01*
X91749500Y-94735001D01*
G75*
G02*
X91499501Y-94985000I-249999J0D01*
G01*
X90974499Y-94985000D01*
G75*
G02*
X90724500Y-94735001I0J249999D01*
G01*
G37*
%TD*%
%TO.C,C16*%
G36*
G01*
X102036000Y-87384000D02*
X102536000Y-87384000D01*
G75*
G02*
X102761000Y-87609000I0J-225000D01*
G01*
X102761000Y-88059000D01*
G75*
G02*
X102536000Y-88284000I-225000J0D01*
G01*
X102036000Y-88284000D01*
G75*
G02*
X101811000Y-88059000I0J225000D01*
G01*
X101811000Y-87609000D01*
G75*
G02*
X102036000Y-87384000I225000J0D01*
G01*
G37*
G36*
G01*
X102036000Y-85834000D02*
X102536000Y-85834000D01*
G75*
G02*
X102761000Y-86059000I0J-225000D01*
G01*
X102761000Y-86509000D01*
G75*
G02*
X102536000Y-86734000I-225000J0D01*
G01*
X102036000Y-86734000D01*
G75*
G02*
X101811000Y-86509000I0J225000D01*
G01*
X101811000Y-86059000D01*
G75*
G02*
X102036000Y-85834000I225000J0D01*
G01*
G37*
%TD*%
%TO.C,C14*%
G36*
G01*
X95979000Y-93527000D02*
X95979000Y-94027000D01*
G75*
G02*
X95754000Y-94252000I-225000J0D01*
G01*
X95304000Y-94252000D01*
G75*
G02*
X95079000Y-94027000I0J225000D01*
G01*
X95079000Y-93527000D01*
G75*
G02*
X95304000Y-93302000I225000J0D01*
G01*
X95754000Y-93302000D01*
G75*
G02*
X95979000Y-93527000I0J-225000D01*
G01*
G37*
G36*
G01*
X97529000Y-93527000D02*
X97529000Y-94027000D01*
G75*
G02*
X97304000Y-94252000I-225000J0D01*
G01*
X96854000Y-94252000D01*
G75*
G02*
X96629000Y-94027000I0J225000D01*
G01*
X96629000Y-93527000D01*
G75*
G02*
X96854000Y-93302000I225000J0D01*
G01*
X97304000Y-93302000D01*
G75*
G02*
X97529000Y-93527000I0J-225000D01*
G01*
G37*
%TD*%
D23*
%TO.C,GND1*%
X78537000Y-86665000D03*
%TD*%
D24*
%TO.C,Y2*%
X99930000Y-80315000D03*
X98730000Y-80315000D03*
X97530000Y-80315000D03*
%TD*%
D25*
%TO.C,U6*%
X100807000Y-86072000D03*
X100157000Y-86072000D03*
X99507000Y-86072000D03*
X98857000Y-86072000D03*
X98207000Y-86072000D03*
X97557000Y-86072000D03*
X96907000Y-86072000D03*
X96257000Y-86072000D03*
X96257000Y-91872000D03*
X96907000Y-91872000D03*
X97557000Y-91872000D03*
X98207000Y-91872000D03*
X98857000Y-91872000D03*
X99507000Y-91872000D03*
X100157000Y-91872000D03*
X100807000Y-91872000D03*
%TD*%
%TO.C,R26*%
G36*
G01*
X98368000Y-82707000D02*
X98368000Y-83257000D01*
G75*
G02*
X98168000Y-83457000I-200000J0D01*
G01*
X97768000Y-83457000D01*
G75*
G02*
X97568000Y-83257000I0J200000D01*
G01*
X97568000Y-82707000D01*
G75*
G02*
X97768000Y-82507000I200000J0D01*
G01*
X98168000Y-82507000D01*
G75*
G02*
X98368000Y-82707000I0J-200000D01*
G01*
G37*
G36*
G01*
X100018000Y-82707000D02*
X100018000Y-83257000D01*
G75*
G02*
X99818000Y-83457000I-200000J0D01*
G01*
X99418000Y-83457000D01*
G75*
G02*
X99218000Y-83257000I0J200000D01*
G01*
X99218000Y-82707000D01*
G75*
G02*
X99418000Y-82507000I200000J0D01*
G01*
X99818000Y-82507000D01*
G75*
G02*
X100018000Y-82707000I0J-200000D01*
G01*
G37*
%TD*%
%TO.C,R22*%
G36*
G01*
X100503500Y-97148001D02*
X100503500Y-96247999D01*
G75*
G02*
X100753499Y-95998000I249999J0D01*
G01*
X101278501Y-95998000D01*
G75*
G02*
X101528500Y-96247999I0J-249999D01*
G01*
X101528500Y-97148001D01*
G75*
G02*
X101278501Y-97398000I-249999J0D01*
G01*
X100753499Y-97398000D01*
G75*
G02*
X100503500Y-97148001I0J249999D01*
G01*
G37*
G36*
G01*
X98678500Y-97148001D02*
X98678500Y-96247999D01*
G75*
G02*
X98928499Y-95998000I249999J0D01*
G01*
X99453501Y-95998000D01*
G75*
G02*
X99703500Y-96247999I0J-249999D01*
G01*
X99703500Y-97148001D01*
G75*
G02*
X99453501Y-97398000I-249999J0D01*
G01*
X98928499Y-97398000D01*
G75*
G02*
X98678500Y-97148001I0J249999D01*
G01*
G37*
%TD*%
%TO.C,R17*%
G36*
G01*
X96067500Y-96247999D02*
X96067500Y-97148001D01*
G75*
G02*
X95817501Y-97398000I-249999J0D01*
G01*
X95292499Y-97398000D01*
G75*
G02*
X95042500Y-97148001I0J249999D01*
G01*
X95042500Y-96247999D01*
G75*
G02*
X95292499Y-95998000I249999J0D01*
G01*
X95817501Y-95998000D01*
G75*
G02*
X96067500Y-96247999I0J-249999D01*
G01*
G37*
G36*
G01*
X97892500Y-96247999D02*
X97892500Y-97148001D01*
G75*
G02*
X97642501Y-97398000I-249999J0D01*
G01*
X97117499Y-97398000D01*
G75*
G02*
X96867500Y-97148001I0J249999D01*
G01*
X96867500Y-96247999D01*
G75*
G02*
X97117499Y-95998000I249999J0D01*
G01*
X97642501Y-95998000D01*
G75*
G02*
X97892500Y-96247999I0J-249999D01*
G01*
G37*
%TD*%
%TO.C,R12*%
G36*
G01*
X88955500Y-98279999D02*
X88955500Y-99180001D01*
G75*
G02*
X88705501Y-99430000I-249999J0D01*
G01*
X88180499Y-99430000D01*
G75*
G02*
X87930500Y-99180001I0J249999D01*
G01*
X87930500Y-98279999D01*
G75*
G02*
X88180499Y-98030000I249999J0D01*
G01*
X88705501Y-98030000D01*
G75*
G02*
X88955500Y-98279999I0J-249999D01*
G01*
G37*
G36*
G01*
X90780500Y-98279999D02*
X90780500Y-99180001D01*
G75*
G02*
X90530501Y-99430000I-249999J0D01*
G01*
X90005499Y-99430000D01*
G75*
G02*
X89755500Y-99180001I0J249999D01*
G01*
X89755500Y-98279999D01*
G75*
G02*
X90005499Y-98030000I249999J0D01*
G01*
X90530501Y-98030000D01*
G75*
G02*
X90780500Y-98279999I0J-249999D01*
G01*
G37*
%TD*%
%TO.C,R11*%
G36*
G01*
X92511500Y-97009999D02*
X92511500Y-97910001D01*
G75*
G02*
X92261501Y-98160000I-249999J0D01*
G01*
X91736499Y-98160000D01*
G75*
G02*
X91486500Y-97910001I0J249999D01*
G01*
X91486500Y-97009999D01*
G75*
G02*
X91736499Y-96760000I249999J0D01*
G01*
X92261501Y-96760000D01*
G75*
G02*
X92511500Y-97009999I0J-249999D01*
G01*
G37*
G36*
G01*
X94336500Y-97009999D02*
X94336500Y-97910001D01*
G75*
G02*
X94086501Y-98160000I-249999J0D01*
G01*
X93561499Y-98160000D01*
G75*
G02*
X93311500Y-97910001I0J249999D01*
G01*
X93311500Y-97009999D01*
G75*
G02*
X93561499Y-96760000I249999J0D01*
G01*
X94086501Y-96760000D01*
G75*
G02*
X94336500Y-97009999I0J-249999D01*
G01*
G37*
%TD*%
%TO.C,R7*%
G36*
G01*
X107513000Y-80802000D02*
X107513000Y-81352000D01*
G75*
G02*
X107313000Y-81552000I-200000J0D01*
G01*
X106913000Y-81552000D01*
G75*
G02*
X106713000Y-81352000I0J200000D01*
G01*
X106713000Y-80802000D01*
G75*
G02*
X106913000Y-80602000I200000J0D01*
G01*
X107313000Y-80602000D01*
G75*
G02*
X107513000Y-80802000I0J-200000D01*
G01*
G37*
G36*
G01*
X109163000Y-80802000D02*
X109163000Y-81352000D01*
G75*
G02*
X108963000Y-81552000I-200000J0D01*
G01*
X108563000Y-81552000D01*
G75*
G02*
X108363000Y-81352000I0J200000D01*
G01*
X108363000Y-80802000D01*
G75*
G02*
X108563000Y-80602000I200000J0D01*
G01*
X108963000Y-80602000D01*
G75*
G02*
X109163000Y-80802000I0J-200000D01*
G01*
G37*
%TD*%
%TO.C,R3*%
G36*
G01*
X107513000Y-82326000D02*
X107513000Y-82876000D01*
G75*
G02*
X107313000Y-83076000I-200000J0D01*
G01*
X106913000Y-83076000D01*
G75*
G02*
X106713000Y-82876000I0J200000D01*
G01*
X106713000Y-82326000D01*
G75*
G02*
X106913000Y-82126000I200000J0D01*
G01*
X107313000Y-82126000D01*
G75*
G02*
X107513000Y-82326000I0J-200000D01*
G01*
G37*
G36*
G01*
X109163000Y-82326000D02*
X109163000Y-82876000D01*
G75*
G02*
X108963000Y-83076000I-200000J0D01*
G01*
X108563000Y-83076000D01*
G75*
G02*
X108363000Y-82876000I0J200000D01*
G01*
X108363000Y-82326000D01*
G75*
G02*
X108563000Y-82126000I200000J0D01*
G01*
X108963000Y-82126000D01*
G75*
G02*
X109163000Y-82326000I0J-200000D01*
G01*
G37*
%TD*%
D26*
%TO.C,Q1*%
X107686000Y-77521000D03*
X106736000Y-79521000D03*
X108636000Y-79521000D03*
%TD*%
%TO.C,C19*%
G36*
G01*
X97464000Y-77198000D02*
X97964000Y-77198000D01*
G75*
G02*
X98189000Y-77423000I0J-225000D01*
G01*
X98189000Y-77873000D01*
G75*
G02*
X97964000Y-78098000I-225000J0D01*
G01*
X97464000Y-78098000D01*
G75*
G02*
X97239000Y-77873000I0J225000D01*
G01*
X97239000Y-77423000D01*
G75*
G02*
X97464000Y-77198000I225000J0D01*
G01*
G37*
G36*
G01*
X97464000Y-75648000D02*
X97964000Y-75648000D01*
G75*
G02*
X98189000Y-75873000I0J-225000D01*
G01*
X98189000Y-76323000D01*
G75*
G02*
X97964000Y-76548000I-225000J0D01*
G01*
X97464000Y-76548000D01*
G75*
G02*
X97239000Y-76323000I0J225000D01*
G01*
X97239000Y-75873000D01*
G75*
G02*
X97464000Y-75648000I225000J0D01*
G01*
G37*
%TD*%
%TO.C,C18*%
G36*
G01*
X99496000Y-77198000D02*
X99996000Y-77198000D01*
G75*
G02*
X100221000Y-77423000I0J-225000D01*
G01*
X100221000Y-77873000D01*
G75*
G02*
X99996000Y-78098000I-225000J0D01*
G01*
X99496000Y-78098000D01*
G75*
G02*
X99271000Y-77873000I0J225000D01*
G01*
X99271000Y-77423000D01*
G75*
G02*
X99496000Y-77198000I225000J0D01*
G01*
G37*
G36*
G01*
X99496000Y-75648000D02*
X99996000Y-75648000D01*
G75*
G02*
X100221000Y-75873000I0J-225000D01*
G01*
X100221000Y-76323000D01*
G75*
G02*
X99996000Y-76548000I-225000J0D01*
G01*
X99496000Y-76548000D01*
G75*
G02*
X99271000Y-76323000I0J225000D01*
G01*
X99271000Y-75873000D01*
G75*
G02*
X99496000Y-75648000I225000J0D01*
G01*
G37*
%TD*%
%TO.C,C13*%
G36*
G01*
X99616000Y-94064000D02*
X99616000Y-95014000D01*
G75*
G02*
X99366000Y-95264000I-250000J0D01*
G01*
X98866000Y-95264000D01*
G75*
G02*
X98616000Y-95014000I0J250000D01*
G01*
X98616000Y-94064000D01*
G75*
G02*
X98866000Y-93814000I250000J0D01*
G01*
X99366000Y-93814000D01*
G75*
G02*
X99616000Y-94064000I0J-250000D01*
G01*
G37*
G36*
G01*
X101516000Y-94064000D02*
X101516000Y-95014000D01*
G75*
G02*
X101266000Y-95264000I-250000J0D01*
G01*
X100766000Y-95264000D01*
G75*
G02*
X100516000Y-95014000I0J250000D01*
G01*
X100516000Y-94064000D01*
G75*
G02*
X100766000Y-93814000I250000J0D01*
G01*
X101266000Y-93814000D01*
G75*
G02*
X101516000Y-94064000I0J-250000D01*
G01*
G37*
%TD*%
%TO.C,C8*%
G36*
G01*
X83968000Y-77437000D02*
X83468000Y-77437000D01*
G75*
G02*
X83243000Y-77212000I0J225000D01*
G01*
X83243000Y-76762000D01*
G75*
G02*
X83468000Y-76537000I225000J0D01*
G01*
X83968000Y-76537000D01*
G75*
G02*
X84193000Y-76762000I0J-225000D01*
G01*
X84193000Y-77212000D01*
G75*
G02*
X83968000Y-77437000I-225000J0D01*
G01*
G37*
G36*
G01*
X83968000Y-78987000D02*
X83468000Y-78987000D01*
G75*
G02*
X83243000Y-78762000I0J225000D01*
G01*
X83243000Y-78312000D01*
G75*
G02*
X83468000Y-78087000I225000J0D01*
G01*
X83968000Y-78087000D01*
G75*
G02*
X84193000Y-78312000I0J-225000D01*
G01*
X84193000Y-78762000D01*
G75*
G02*
X83968000Y-78987000I-225000J0D01*
G01*
G37*
%TD*%
%TO.C,C6*%
G36*
G01*
X85518000Y-77437000D02*
X85018000Y-77437000D01*
G75*
G02*
X84793000Y-77212000I0J225000D01*
G01*
X84793000Y-76762000D01*
G75*
G02*
X85018000Y-76537000I225000J0D01*
G01*
X85518000Y-76537000D01*
G75*
G02*
X85743000Y-76762000I0J-225000D01*
G01*
X85743000Y-77212000D01*
G75*
G02*
X85518000Y-77437000I-225000J0D01*
G01*
G37*
G36*
G01*
X85518000Y-78987000D02*
X85018000Y-78987000D01*
G75*
G02*
X84793000Y-78762000I0J225000D01*
G01*
X84793000Y-78312000D01*
G75*
G02*
X85018000Y-78087000I225000J0D01*
G01*
X85518000Y-78087000D01*
G75*
G02*
X85743000Y-78312000I0J-225000D01*
G01*
X85743000Y-78762000D01*
G75*
G02*
X85518000Y-78987000I-225000J0D01*
G01*
G37*
%TD*%
%TO.C,R4*%
G36*
G01*
X117419000Y-82326000D02*
X117419000Y-82876000D01*
G75*
G02*
X117219000Y-83076000I-200000J0D01*
G01*
X116819000Y-83076000D01*
G75*
G02*
X116619000Y-82876000I0J200000D01*
G01*
X116619000Y-82326000D01*
G75*
G02*
X116819000Y-82126000I200000J0D01*
G01*
X117219000Y-82126000D01*
G75*
G02*
X117419000Y-82326000I0J-200000D01*
G01*
G37*
G36*
G01*
X119069000Y-82326000D02*
X119069000Y-82876000D01*
G75*
G02*
X118869000Y-83076000I-200000J0D01*
G01*
X118469000Y-83076000D01*
G75*
G02*
X118269000Y-82876000I0J200000D01*
G01*
X118269000Y-82326000D01*
G75*
G02*
X118469000Y-82126000I200000J0D01*
G01*
X118869000Y-82126000D01*
G75*
G02*
X119069000Y-82326000I0J-200000D01*
G01*
G37*
%TD*%
%TO.C,R10*%
G36*
G01*
X117419000Y-80802000D02*
X117419000Y-81352000D01*
G75*
G02*
X117219000Y-81552000I-200000J0D01*
G01*
X116819000Y-81552000D01*
G75*
G02*
X116619000Y-81352000I0J200000D01*
G01*
X116619000Y-80802000D01*
G75*
G02*
X116819000Y-80602000I200000J0D01*
G01*
X117219000Y-80602000D01*
G75*
G02*
X117419000Y-80802000I0J-200000D01*
G01*
G37*
G36*
G01*
X119069000Y-80802000D02*
X119069000Y-81352000D01*
G75*
G02*
X118869000Y-81552000I-200000J0D01*
G01*
X118469000Y-81552000D01*
G75*
G02*
X118269000Y-81352000I0J200000D01*
G01*
X118269000Y-80802000D01*
G75*
G02*
X118469000Y-80602000I200000J0D01*
G01*
X118869000Y-80602000D01*
G75*
G02*
X119069000Y-80802000I0J-200000D01*
G01*
G37*
%TD*%
%TO.C,Q2*%
X117592000Y-77553000D03*
X116642000Y-79553000D03*
X118542000Y-79553000D03*
%TD*%
%TO.C,R14*%
G36*
G01*
X79153000Y-90496000D02*
X79153000Y-89946000D01*
G75*
G02*
X79353000Y-89746000I200000J0D01*
G01*
X79753000Y-89746000D01*
G75*
G02*
X79953000Y-89946000I0J-200000D01*
G01*
X79953000Y-90496000D01*
G75*
G02*
X79753000Y-90696000I-200000J0D01*
G01*
X79353000Y-90696000D01*
G75*
G02*
X79153000Y-90496000I0J200000D01*
G01*
G37*
G36*
G01*
X77503000Y-90496000D02*
X77503000Y-89946000D01*
G75*
G02*
X77703000Y-89746000I200000J0D01*
G01*
X78103000Y-89746000D01*
G75*
G02*
X78303000Y-89946000I0J-200000D01*
G01*
X78303000Y-90496000D01*
G75*
G02*
X78103000Y-90696000I-200000J0D01*
G01*
X77703000Y-90696000D01*
G75*
G02*
X77503000Y-90496000I0J200000D01*
G01*
G37*
%TD*%
%TO.C,D6*%
G36*
G01*
X75867750Y-89834500D02*
X76380250Y-89834500D01*
G75*
G02*
X76599000Y-90053250I0J-218750D01*
G01*
X76599000Y-90490750D01*
G75*
G02*
X76380250Y-90709500I-218750J0D01*
G01*
X75867750Y-90709500D01*
G75*
G02*
X75649000Y-90490750I0J218750D01*
G01*
X75649000Y-90053250D01*
G75*
G02*
X75867750Y-89834500I218750J0D01*
G01*
G37*
G36*
G01*
X75867750Y-88259500D02*
X76380250Y-88259500D01*
G75*
G02*
X76599000Y-88478250I0J-218750D01*
G01*
X76599000Y-88915750D01*
G75*
G02*
X76380250Y-89134500I-218750J0D01*
G01*
X75867750Y-89134500D01*
G75*
G02*
X75649000Y-88915750I0J218750D01*
G01*
X75649000Y-88478250D01*
G75*
G02*
X75867750Y-88259500I218750J0D01*
G01*
G37*
%TD*%
D27*
%TO.C,U2*%
X113716000Y-77140000D03*
X113716000Y-79680000D03*
X113716000Y-89840000D03*
D28*
X113716000Y-97460000D03*
%TD*%
D29*
%TO.C,R16*%
X118161000Y-91872000D03*
X118161000Y-94872000D03*
%TD*%
%TO.C,R15*%
X108382000Y-91872000D03*
X108382000Y-94872000D03*
%TD*%
%TO.C,D2*%
G36*
G01*
X118219000Y-76253250D02*
X118219000Y-75740750D01*
G75*
G02*
X118437750Y-75522000I218750J0D01*
G01*
X118875250Y-75522000D01*
G75*
G02*
X119094000Y-75740750I0J-218750D01*
G01*
X119094000Y-76253250D01*
G75*
G02*
X118875250Y-76472000I-218750J0D01*
G01*
X118437750Y-76472000D01*
G75*
G02*
X118219000Y-76253250I0J218750D01*
G01*
G37*
G36*
G01*
X116644000Y-76253250D02*
X116644000Y-75740750D01*
G75*
G02*
X116862750Y-75522000I218750J0D01*
G01*
X117300250Y-75522000D01*
G75*
G02*
X117519000Y-75740750I0J-218750D01*
G01*
X117519000Y-76253250D01*
G75*
G02*
X117300250Y-76472000I-218750J0D01*
G01*
X116862750Y-76472000D01*
G75*
G02*
X116644000Y-76253250I0J218750D01*
G01*
G37*
%TD*%
%TO.C,D1*%
G36*
G01*
X108313000Y-76253250D02*
X108313000Y-75740750D01*
G75*
G02*
X108531750Y-75522000I218750J0D01*
G01*
X108969250Y-75522000D01*
G75*
G02*
X109188000Y-75740750I0J-218750D01*
G01*
X109188000Y-76253250D01*
G75*
G02*
X108969250Y-76472000I-218750J0D01*
G01*
X108531750Y-76472000D01*
G75*
G02*
X108313000Y-76253250I0J218750D01*
G01*
G37*
G36*
G01*
X106738000Y-76253250D02*
X106738000Y-75740750D01*
G75*
G02*
X106956750Y-75522000I218750J0D01*
G01*
X107394250Y-75522000D01*
G75*
G02*
X107613000Y-75740750I0J-218750D01*
G01*
X107613000Y-76253250D01*
G75*
G02*
X107394250Y-76472000I-218750J0D01*
G01*
X106956750Y-76472000D01*
G75*
G02*
X106738000Y-76253250I0J218750D01*
G01*
G37*
%TD*%
%TO.C,R13*%
G36*
G01*
X79025000Y-84654000D02*
X79025000Y-84104000D01*
G75*
G02*
X79225000Y-83904000I200000J0D01*
G01*
X79625000Y-83904000D01*
G75*
G02*
X79825000Y-84104000I0J-200000D01*
G01*
X79825000Y-84654000D01*
G75*
G02*
X79625000Y-84854000I-200000J0D01*
G01*
X79225000Y-84854000D01*
G75*
G02*
X79025000Y-84654000I0J200000D01*
G01*
G37*
G36*
G01*
X77375000Y-84654000D02*
X77375000Y-84104000D01*
G75*
G02*
X77575000Y-83904000I200000J0D01*
G01*
X77975000Y-83904000D01*
G75*
G02*
X78175000Y-84104000I0J-200000D01*
G01*
X78175000Y-84654000D01*
G75*
G02*
X77975000Y-84854000I-200000J0D01*
G01*
X77575000Y-84854000D01*
G75*
G02*
X77375000Y-84654000I0J200000D01*
G01*
G37*
%TD*%
%TO.C,D5*%
G36*
G01*
X75867750Y-83941500D02*
X76380250Y-83941500D01*
G75*
G02*
X76599000Y-84160250I0J-218750D01*
G01*
X76599000Y-84597750D01*
G75*
G02*
X76380250Y-84816500I-218750J0D01*
G01*
X75867750Y-84816500D01*
G75*
G02*
X75649000Y-84597750I0J218750D01*
G01*
X75649000Y-84160250D01*
G75*
G02*
X75867750Y-83941500I218750J0D01*
G01*
G37*
G36*
G01*
X75867750Y-82366500D02*
X76380250Y-82366500D01*
G75*
G02*
X76599000Y-82585250I0J-218750D01*
G01*
X76599000Y-83022750D01*
G75*
G02*
X76380250Y-83241500I-218750J0D01*
G01*
X75867750Y-83241500D01*
G75*
G02*
X75649000Y-83022750I0J218750D01*
G01*
X75649000Y-82585250D01*
G75*
G02*
X75867750Y-82366500I218750J0D01*
G01*
G37*
%TD*%
D27*
%TO.C,U3*%
X123622000Y-77140000D03*
X123622000Y-79680000D03*
X123622000Y-89840000D03*
D28*
X123622000Y-97460000D03*
%TD*%
D20*
%TO.C,J2*%
X76251000Y-79680000D03*
X76251000Y-80950000D03*
X77521000Y-79680000D03*
X77521000Y-80950000D03*
X78791000Y-79680000D03*
D13*
X78791000Y-80950000D03*
%TD*%
D22*
%TO.C,F2*%
X122733000Y-85522000D03*
D14*
X122733000Y-93142000D03*
%TD*%
M02*
