%TF.GenerationSoftware,KiCad,Pcbnew,(5.1.10)-1*%
%TF.CreationDate,2022-01-18T17:52:15+07:00*%
%TF.ProjectId,Power_manager_v3,506f7765-725f-46d6-916e-616765725f76,rev?*%
%TF.SameCoordinates,Original*%
%TF.FileFunction,Copper,L1,Top*%
%TF.FilePolarity,Positive*%
%FSLAX46Y46*%
G04 Gerber Fmt 4.6, Leading zero omitted, Abs format (unit mm)*
G04 Created by KiCad (PCBNEW (5.1.10)-1) date 2022-01-18 17:52:15*
%MOMM*%
%LPD*%
G01*
G04 APERTURE LIST*
%TA.AperFunction,SMDPad,CuDef*%
%ADD10R,1.800000X0.650000*%
%TD*%
%TA.AperFunction,ComponentPad*%
%ADD11C,1.000000*%
%TD*%
%TA.AperFunction,ComponentPad*%
%ADD12R,1.000000X1.000000*%
%TD*%
%TA.AperFunction,ComponentPad*%
%ADD13C,1.600000*%
%TD*%
%TA.AperFunction,ComponentPad*%
%ADD14R,1.600000X1.600000*%
%TD*%
%TA.AperFunction,ComponentPad*%
%ADD15R,2.400000X1.700000*%
%TD*%
%TA.AperFunction,ComponentPad*%
%ADD16O,2.400000X1.700000*%
%TD*%
%TA.AperFunction,ComponentPad*%
%ADD17O,1.700000X1.700000*%
%TD*%
%TA.AperFunction,ComponentPad*%
%ADD18R,1.900000X2.700000*%
%TD*%
%TA.AperFunction,ComponentPad*%
%ADD19O,1.000000X1.000000*%
%TD*%
%TA.AperFunction,ComponentPad*%
%ADD20C,1.500000*%
%TD*%
%TA.AperFunction,ComponentPad*%
%ADD21O,1.600000X1.600000*%
%TD*%
%TA.AperFunction,SMDPad,CuDef*%
%ADD22R,0.400000X3.200000*%
%TD*%
%TA.AperFunction,ComponentPad*%
%ADD23C,2.000000*%
%TD*%
%TA.AperFunction,SMDPad,CuDef*%
%ADD24C,0.020000*%
%TD*%
%TA.AperFunction,ComponentPad*%
%ADD25C,1.800000*%
%TD*%
%TA.AperFunction,ComponentPad*%
%ADD26R,1.800000X1.800000*%
%TD*%
%TA.AperFunction,SMDPad,CuDef*%
%ADD27R,0.450000X0.600000*%
%TD*%
%TA.AperFunction,ViaPad*%
%ADD28C,0.800000*%
%TD*%
%TA.AperFunction,ViaPad*%
%ADD29C,1.200000*%
%TD*%
%TA.AperFunction,ViaPad*%
%ADD30C,1.000000*%
%TD*%
%TA.AperFunction,Conductor*%
%ADD31C,0.800000*%
%TD*%
%TA.AperFunction,Conductor*%
%ADD32C,1.000000*%
%TD*%
%TA.AperFunction,Conductor*%
%ADD33C,0.300000*%
%TD*%
%TA.AperFunction,Conductor*%
%ADD34C,0.500000*%
%TD*%
%TA.AperFunction,Conductor*%
%ADD35C,1.400000*%
%TD*%
%TA.AperFunction,Conductor*%
%ADD36C,0.250000*%
%TD*%
%TA.AperFunction,Conductor*%
%ADD37C,0.400000*%
%TD*%
%TA.AperFunction,Conductor*%
%ADD38C,0.600000*%
%TD*%
%TA.AperFunction,Conductor*%
%ADD39C,0.700000*%
%TD*%
%TA.AperFunction,Conductor*%
%ADD40C,2.000000*%
%TD*%
G04 APERTURE END LIST*
D10*
%TO.P,J5,5*%
%TO.N,/nRst*%
X99238000Y-89078000D03*
%TO.P,J5,3*%
%TO.N,GNDPWR*%
X99238000Y-91618000D03*
%TO.P,J5,1*%
%TO.N,+3.3VP*%
X99238000Y-94158000D03*
%TO.P,J5,4*%
%TO.N,/SWDIO*%
X101938000Y-90348000D03*
%TO.P,J5,2*%
%TO.N,/SWCLK*%
X101938000Y-92888000D03*
%TD*%
D11*
%TO.P,U7,B6*%
%TO.N,/Int*%
X104191000Y-84887000D03*
%TO.P,U7,B5*%
%TO.N,/+5V_valid*%
X104191000Y-83617000D03*
%TO.P,U7,B4*%
%TO.N,/I2C_SCL*%
X102921000Y-84887000D03*
%TO.P,U7,B3*%
%TO.N,/I2C_SDA*%
X102921000Y-83617000D03*
%TO.P,U7,B2*%
%TO.N,GNDPWR*%
X101651000Y-84887000D03*
D12*
%TO.P,U7,B1*%
%TO.N,+3.3VP*%
X101651000Y-83617000D03*
D11*
%TO.P,U7,A6*%
%TO.N,GND1*%
X84379000Y-84887000D03*
%TO.P,U7,A5*%
%TO.N,+5P*%
X84379000Y-83617000D03*
%TO.P,U7,A4*%
%TO.N,/scl0*%
X83109000Y-84887000D03*
%TO.P,U7,A3*%
%TO.N,/sda0*%
X83109000Y-83617000D03*
%TO.P,U7,A2*%
%TO.N,/I2C_Int*%
X81839000Y-84887000D03*
D12*
%TO.P,U7,A1*%
%TO.N,/+5V_state*%
X81839000Y-83617000D03*
%TD*%
D13*
%TO.P,U4,7*%
%TO.N,Net-(JP6-Pad1)*%
X87427000Y-94158000D03*
%TO.P,U4,6*%
%TO.N,GNDPWR*%
X87427000Y-91618000D03*
%TO.P,U4,5*%
%TO.N,Net-(JP5-Pad1)*%
X87436500Y-89078000D03*
%TO.P,U4,4*%
%TO.N,/+5V_state*%
X87427000Y-83998000D03*
%TO.P,U4,3*%
%TO.N,+5P*%
X87427000Y-81458000D03*
%TO.P,U4,2*%
%TO.N,GND1*%
X87427000Y-78918000D03*
D14*
%TO.P,U4,1*%
%TO.N,Net-(C6-Pad2)*%
X87427000Y-76378000D03*
%TD*%
D15*
%TO.P,U1,1*%
%TO.N,Net-(J1-Pad1)*%
X81458000Y-97333000D03*
D16*
%TO.P,U1,2*%
%TO.N,Net-(J1-Pad3)*%
X81458000Y-92253000D03*
%TO.P,U1,3*%
%TO.N,+5V*%
X81458000Y-79553000D03*
%TO.P,U1,4*%
%TO.N,GND1*%
X81458000Y-77013000D03*
%TD*%
D17*
%TO.P,J4,3*%
%TO.N,/Load2N*%
X118542000Y-98222000D03*
%TO.P,J4,2*%
%TO.N,N/C*%
X121082000Y-98222000D03*
D18*
%TO.P,J4,1*%
%TO.N,Net-(J4-Pad1)*%
X123622000Y-97714000D03*
%TD*%
D17*
%TO.P,J3,3*%
%TO.N,/Load1N*%
X108636000Y-98222000D03*
%TO.P,J3,2*%
%TO.N,N/C*%
X111176000Y-98222000D03*
D18*
%TO.P,J3,1*%
%TO.N,Net-(J3-Pad1)*%
X113716000Y-97714000D03*
%TD*%
D17*
%TO.P,J1,3*%
%TO.N,Net-(J1-Pad3)*%
X76378000Y-98222000D03*
%TO.P,J1,2*%
%TO.N,N/C*%
X78918000Y-98222000D03*
D18*
%TO.P,J1,1*%
%TO.N,Net-(J1-Pad1)*%
X81458000Y-97714000D03*
%TD*%
D19*
%TO.P,JP4,4*%
%TO.N,/nRst*%
X103810000Y-77902000D03*
%TO.P,JP4,3*%
%TO.N,GNDPWR*%
X103810000Y-76632000D03*
%TO.P,JP4,2*%
%TO.N,Net-(JP4-Pad2)*%
X102540000Y-77902000D03*
D12*
%TO.P,JP4,1*%
%TO.N,GNDPWR*%
X102540000Y-76632000D03*
%TD*%
D19*
%TO.P,J6,6*%
%TO.N,/sda0*%
X89459000Y-79680000D03*
%TO.P,J6,5*%
%TO.N,/scl0*%
X89459000Y-80950000D03*
%TO.P,J6,4*%
%TO.N,GND1*%
X90729000Y-79680000D03*
%TO.P,J6,3*%
X90729000Y-80950000D03*
%TO.P,J6,2*%
%TO.N,/I2C_Int*%
X91999000Y-79680000D03*
D12*
%TO.P,J6,1*%
%TO.N,/+5V_state*%
X91999000Y-80950000D03*
%TD*%
%TO.P,C17,2*%
%TO.N,Net-(C17-Pad2)*%
%TA.AperFunction,SMDPad,CuDef*%
G36*
G01*
X91829000Y-84375000D02*
X91829000Y-83875000D01*
G75*
G02*
X92054000Y-83650000I225000J0D01*
G01*
X92504000Y-83650000D01*
G75*
G02*
X92729000Y-83875000I0J-225000D01*
G01*
X92729000Y-84375000D01*
G75*
G02*
X92504000Y-84600000I-225000J0D01*
G01*
X92054000Y-84600000D01*
G75*
G02*
X91829000Y-84375000I0J225000D01*
G01*
G37*
%TD.AperFunction*%
%TO.P,C17,1*%
%TO.N,GNDPWR*%
%TA.AperFunction,SMDPad,CuDef*%
G36*
G01*
X90279000Y-84375000D02*
X90279000Y-83875000D01*
G75*
G02*
X90504000Y-83650000I225000J0D01*
G01*
X90954000Y-83650000D01*
G75*
G02*
X91179000Y-83875000I0J-225000D01*
G01*
X91179000Y-84375000D01*
G75*
G02*
X90954000Y-84600000I-225000J0D01*
G01*
X90504000Y-84600000D01*
G75*
G02*
X90279000Y-84375000I0J225000D01*
G01*
G37*
%TD.AperFunction*%
%TD*%
D20*
%TO.P,KP1,1*%
%TO.N,Net-(KP1-Pad1)*%
X89205000Y-86157000D03*
%TD*%
D21*
%TO.P,F1,2*%
%TO.N,Net-(F1-Pad2)*%
X112700000Y-85522000D03*
D13*
%TO.P,F1,1*%
%TO.N,AC*%
X112700000Y-93142000D03*
%TD*%
%TO.P,R25,2*%
%TO.N,/nRst*%
%TA.AperFunction,SMDPad,CuDef*%
G36*
G01*
X104339000Y-80462000D02*
X103789000Y-80462000D01*
G75*
G02*
X103589000Y-80262000I0J200000D01*
G01*
X103589000Y-79862000D01*
G75*
G02*
X103789000Y-79662000I200000J0D01*
G01*
X104339000Y-79662000D01*
G75*
G02*
X104539000Y-79862000I0J-200000D01*
G01*
X104539000Y-80262000D01*
G75*
G02*
X104339000Y-80462000I-200000J0D01*
G01*
G37*
%TD.AperFunction*%
%TO.P,R25,1*%
%TO.N,+3.3VP*%
%TA.AperFunction,SMDPad,CuDef*%
G36*
G01*
X104339000Y-82112000D02*
X103789000Y-82112000D01*
G75*
G02*
X103589000Y-81912000I0J200000D01*
G01*
X103589000Y-81512000D01*
G75*
G02*
X103789000Y-81312000I200000J0D01*
G01*
X104339000Y-81312000D01*
G75*
G02*
X104539000Y-81512000I0J-200000D01*
G01*
X104539000Y-81912000D01*
G75*
G02*
X104339000Y-82112000I-200000J0D01*
G01*
G37*
%TD.AperFunction*%
%TD*%
%TO.P,R23,2*%
%TO.N,+3.3VP*%
%TA.AperFunction,SMDPad,CuDef*%
G36*
G01*
X102138000Y-81311000D02*
X102688000Y-81311000D01*
G75*
G02*
X102888000Y-81511000I0J-200000D01*
G01*
X102888000Y-81911000D01*
G75*
G02*
X102688000Y-82111000I-200000J0D01*
G01*
X102138000Y-82111000D01*
G75*
G02*
X101938000Y-81911000I0J200000D01*
G01*
X101938000Y-81511000D01*
G75*
G02*
X102138000Y-81311000I200000J0D01*
G01*
G37*
%TD.AperFunction*%
%TO.P,R23,1*%
%TO.N,Net-(JP4-Pad2)*%
%TA.AperFunction,SMDPad,CuDef*%
G36*
G01*
X102138000Y-79661000D02*
X102688000Y-79661000D01*
G75*
G02*
X102888000Y-79861000I0J-200000D01*
G01*
X102888000Y-80261000D01*
G75*
G02*
X102688000Y-80461000I-200000J0D01*
G01*
X102138000Y-80461000D01*
G75*
G02*
X101938000Y-80261000I0J200000D01*
G01*
X101938000Y-79861000D01*
G75*
G02*
X102138000Y-79661000I200000J0D01*
G01*
G37*
%TD.AperFunction*%
%TD*%
%TO.P,C15,2*%
%TO.N,GNDPWR*%
%TA.AperFunction,SMDPad,CuDef*%
G36*
G01*
X96642000Y-94027000D02*
X96642000Y-93527000D01*
G75*
G02*
X96867000Y-93302000I225000J0D01*
G01*
X97317000Y-93302000D01*
G75*
G02*
X97542000Y-93527000I0J-225000D01*
G01*
X97542000Y-94027000D01*
G75*
G02*
X97317000Y-94252000I-225000J0D01*
G01*
X96867000Y-94252000D01*
G75*
G02*
X96642000Y-94027000I0J225000D01*
G01*
G37*
%TD.AperFunction*%
%TO.P,C15,1*%
%TO.N,+3.3VP*%
%TA.AperFunction,SMDPad,CuDef*%
G36*
G01*
X95092000Y-94027000D02*
X95092000Y-93527000D01*
G75*
G02*
X95317000Y-93302000I225000J0D01*
G01*
X95767000Y-93302000D01*
G75*
G02*
X95992000Y-93527000I0J-225000D01*
G01*
X95992000Y-94027000D01*
G75*
G02*
X95767000Y-94252000I-225000J0D01*
G01*
X95317000Y-94252000D01*
G75*
G02*
X95092000Y-94027000I0J225000D01*
G01*
G37*
%TD.AperFunction*%
%TD*%
%TO.P,C7,2*%
%TO.N,GNDPWR*%
%TA.AperFunction,SMDPad,CuDef*%
G36*
G01*
X106662000Y-81327000D02*
X106662000Y-80827000D01*
G75*
G02*
X106887000Y-80602000I225000J0D01*
G01*
X107337000Y-80602000D01*
G75*
G02*
X107562000Y-80827000I0J-225000D01*
G01*
X107562000Y-81327000D01*
G75*
G02*
X107337000Y-81552000I-225000J0D01*
G01*
X106887000Y-81552000D01*
G75*
G02*
X106662000Y-81327000I0J225000D01*
G01*
G37*
%TD.AperFunction*%
%TO.P,C7,1*%
%TO.N,/nRst*%
%TA.AperFunction,SMDPad,CuDef*%
G36*
G01*
X105112000Y-81327000D02*
X105112000Y-80827000D01*
G75*
G02*
X105337000Y-80602000I225000J0D01*
G01*
X105787000Y-80602000D01*
G75*
G02*
X106012000Y-80827000I0J-225000D01*
G01*
X106012000Y-81327000D01*
G75*
G02*
X105787000Y-81552000I-225000J0D01*
G01*
X105337000Y-81552000D01*
G75*
G02*
X105112000Y-81327000I0J225000D01*
G01*
G37*
%TD.AperFunction*%
%TD*%
D22*
%TO.P,Y1,3*%
%TO.N,Net-(C5-Pad1)*%
X93974000Y-80315000D03*
%TO.P,Y1,2*%
%TO.N,GNDPWR*%
X95174000Y-80315000D03*
%TO.P,Y1,1*%
%TO.N,Net-(C4-Pad1)*%
X96374000Y-80315000D03*
%TD*%
%TO.P,U5,20*%
%TO.N,/SWCLK*%
%TA.AperFunction,SMDPad,CuDef*%
G36*
G01*
X96987000Y-91134500D02*
X97187000Y-91134500D01*
G75*
G02*
X97287000Y-91234500I0J-100000D01*
G01*
X97287000Y-92509500D01*
G75*
G02*
X97187000Y-92609500I-100000J0D01*
G01*
X96987000Y-92609500D01*
G75*
G02*
X96887000Y-92509500I0J100000D01*
G01*
X96887000Y-91234500D01*
G75*
G02*
X96987000Y-91134500I100000J0D01*
G01*
G37*
%TD.AperFunction*%
%TO.P,U5,19*%
%TO.N,/SWDIO*%
%TA.AperFunction,SMDPad,CuDef*%
G36*
G01*
X96337000Y-91134500D02*
X96537000Y-91134500D01*
G75*
G02*
X96637000Y-91234500I0J-100000D01*
G01*
X96637000Y-92509500D01*
G75*
G02*
X96537000Y-92609500I-100000J0D01*
G01*
X96337000Y-92609500D01*
G75*
G02*
X96237000Y-92509500I0J100000D01*
G01*
X96237000Y-91234500D01*
G75*
G02*
X96337000Y-91134500I100000J0D01*
G01*
G37*
%TD.AperFunction*%
%TO.P,U5,18*%
%TO.N,/I2C_SDA*%
%TA.AperFunction,SMDPad,CuDef*%
G36*
G01*
X95687000Y-91134500D02*
X95887000Y-91134500D01*
G75*
G02*
X95987000Y-91234500I0J-100000D01*
G01*
X95987000Y-92509500D01*
G75*
G02*
X95887000Y-92609500I-100000J0D01*
G01*
X95687000Y-92609500D01*
G75*
G02*
X95587000Y-92509500I0J100000D01*
G01*
X95587000Y-91234500D01*
G75*
G02*
X95687000Y-91134500I100000J0D01*
G01*
G37*
%TD.AperFunction*%
%TO.P,U5,17*%
%TO.N,/I2C_SCL*%
%TA.AperFunction,SMDPad,CuDef*%
G36*
G01*
X95037000Y-91134500D02*
X95237000Y-91134500D01*
G75*
G02*
X95337000Y-91234500I0J-100000D01*
G01*
X95337000Y-92509500D01*
G75*
G02*
X95237000Y-92609500I-100000J0D01*
G01*
X95037000Y-92609500D01*
G75*
G02*
X94937000Y-92509500I0J100000D01*
G01*
X94937000Y-91234500D01*
G75*
G02*
X95037000Y-91134500I100000J0D01*
G01*
G37*
%TD.AperFunction*%
%TO.P,U5,16*%
%TO.N,+3.3VP*%
%TA.AperFunction,SMDPad,CuDef*%
G36*
G01*
X94387000Y-91134500D02*
X94587000Y-91134500D01*
G75*
G02*
X94687000Y-91234500I0J-100000D01*
G01*
X94687000Y-92509500D01*
G75*
G02*
X94587000Y-92609500I-100000J0D01*
G01*
X94387000Y-92609500D01*
G75*
G02*
X94287000Y-92509500I0J100000D01*
G01*
X94287000Y-91234500D01*
G75*
G02*
X94387000Y-91134500I100000J0D01*
G01*
G37*
%TD.AperFunction*%
%TO.P,U5,15*%
%TO.N,GNDPWR*%
%TA.AperFunction,SMDPad,CuDef*%
G36*
G01*
X93737000Y-91134500D02*
X93937000Y-91134500D01*
G75*
G02*
X94037000Y-91234500I0J-100000D01*
G01*
X94037000Y-92509500D01*
G75*
G02*
X93937000Y-92609500I-100000J0D01*
G01*
X93737000Y-92609500D01*
G75*
G02*
X93637000Y-92509500I0J100000D01*
G01*
X93637000Y-91234500D01*
G75*
G02*
X93737000Y-91134500I100000J0D01*
G01*
G37*
%TD.AperFunction*%
%TO.P,U5,14*%
%TO.N,/+5V_valid*%
%TA.AperFunction,SMDPad,CuDef*%
G36*
G01*
X93087000Y-91134500D02*
X93287000Y-91134500D01*
G75*
G02*
X93387000Y-91234500I0J-100000D01*
G01*
X93387000Y-92509500D01*
G75*
G02*
X93287000Y-92609500I-100000J0D01*
G01*
X93087000Y-92609500D01*
G75*
G02*
X92987000Y-92509500I0J100000D01*
G01*
X92987000Y-91234500D01*
G75*
G02*
X93087000Y-91134500I100000J0D01*
G01*
G37*
%TD.AperFunction*%
%TO.P,U5,13*%
%TO.N,/SPI_MOSI*%
%TA.AperFunction,SMDPad,CuDef*%
G36*
G01*
X92437000Y-91134500D02*
X92637000Y-91134500D01*
G75*
G02*
X92737000Y-91234500I0J-100000D01*
G01*
X92737000Y-92509500D01*
G75*
G02*
X92637000Y-92609500I-100000J0D01*
G01*
X92437000Y-92609500D01*
G75*
G02*
X92337000Y-92509500I0J100000D01*
G01*
X92337000Y-91234500D01*
G75*
G02*
X92437000Y-91134500I100000J0D01*
G01*
G37*
%TD.AperFunction*%
%TO.P,U5,12*%
%TO.N,/SPI_MISO*%
%TA.AperFunction,SMDPad,CuDef*%
G36*
G01*
X91787000Y-91134500D02*
X91987000Y-91134500D01*
G75*
G02*
X92087000Y-91234500I0J-100000D01*
G01*
X92087000Y-92509500D01*
G75*
G02*
X91987000Y-92609500I-100000J0D01*
G01*
X91787000Y-92609500D01*
G75*
G02*
X91687000Y-92509500I0J100000D01*
G01*
X91687000Y-91234500D01*
G75*
G02*
X91787000Y-91134500I100000J0D01*
G01*
G37*
%TD.AperFunction*%
%TO.P,U5,11*%
%TO.N,/SPI_SCLK*%
%TA.AperFunction,SMDPad,CuDef*%
G36*
G01*
X91137000Y-91134500D02*
X91337000Y-91134500D01*
G75*
G02*
X91437000Y-91234500I0J-100000D01*
G01*
X91437000Y-92509500D01*
G75*
G02*
X91337000Y-92609500I-100000J0D01*
G01*
X91137000Y-92609500D01*
G75*
G02*
X91037000Y-92509500I0J100000D01*
G01*
X91037000Y-91234500D01*
G75*
G02*
X91137000Y-91134500I100000J0D01*
G01*
G37*
%TD.AperFunction*%
%TO.P,U5,10*%
%TO.N,/SPI_SSEL*%
%TA.AperFunction,SMDPad,CuDef*%
G36*
G01*
X91137000Y-85409500D02*
X91337000Y-85409500D01*
G75*
G02*
X91437000Y-85509500I0J-100000D01*
G01*
X91437000Y-86784500D01*
G75*
G02*
X91337000Y-86884500I-100000J0D01*
G01*
X91137000Y-86884500D01*
G75*
G02*
X91037000Y-86784500I0J100000D01*
G01*
X91037000Y-85509500D01*
G75*
G02*
X91137000Y-85409500I100000J0D01*
G01*
G37*
%TD.AperFunction*%
%TO.P,U5,9*%
%TO.N,Net-(KP1-Pad1)*%
%TA.AperFunction,SMDPad,CuDef*%
G36*
G01*
X91787000Y-85409500D02*
X91987000Y-85409500D01*
G75*
G02*
X92087000Y-85509500I0J-100000D01*
G01*
X92087000Y-86784500D01*
G75*
G02*
X91987000Y-86884500I-100000J0D01*
G01*
X91787000Y-86884500D01*
G75*
G02*
X91687000Y-86784500I0J100000D01*
G01*
X91687000Y-85509500D01*
G75*
G02*
X91787000Y-85409500I100000J0D01*
G01*
G37*
%TD.AperFunction*%
%TO.P,U5,8*%
%TO.N,/L1_o2_nEn*%
%TA.AperFunction,SMDPad,CuDef*%
G36*
G01*
X92437000Y-85409500D02*
X92637000Y-85409500D01*
G75*
G02*
X92737000Y-85509500I0J-100000D01*
G01*
X92737000Y-86784500D01*
G75*
G02*
X92637000Y-86884500I-100000J0D01*
G01*
X92437000Y-86884500D01*
G75*
G02*
X92337000Y-86784500I0J100000D01*
G01*
X92337000Y-85509500D01*
G75*
G02*
X92437000Y-85409500I100000J0D01*
G01*
G37*
%TD.AperFunction*%
%TO.P,U5,7*%
%TO.N,/L1_o1_nEn*%
%TA.AperFunction,SMDPad,CuDef*%
G36*
G01*
X93087000Y-85409500D02*
X93287000Y-85409500D01*
G75*
G02*
X93387000Y-85509500I0J-100000D01*
G01*
X93387000Y-86784500D01*
G75*
G02*
X93287000Y-86884500I-100000J0D01*
G01*
X93087000Y-86884500D01*
G75*
G02*
X92987000Y-86784500I0J100000D01*
G01*
X92987000Y-85509500D01*
G75*
G02*
X93087000Y-85409500I100000J0D01*
G01*
G37*
%TD.AperFunction*%
%TO.P,U5,6*%
%TO.N,/Int*%
%TA.AperFunction,SMDPad,CuDef*%
G36*
G01*
X93737000Y-85409500D02*
X93937000Y-85409500D01*
G75*
G02*
X94037000Y-85509500I0J-100000D01*
G01*
X94037000Y-86784500D01*
G75*
G02*
X93937000Y-86884500I-100000J0D01*
G01*
X93737000Y-86884500D01*
G75*
G02*
X93637000Y-86784500I0J100000D01*
G01*
X93637000Y-85509500D01*
G75*
G02*
X93737000Y-85409500I100000J0D01*
G01*
G37*
%TD.AperFunction*%
%TO.P,U5,5*%
%TO.N,Net-(C17-Pad2)*%
%TA.AperFunction,SMDPad,CuDef*%
G36*
G01*
X94387000Y-85409500D02*
X94587000Y-85409500D01*
G75*
G02*
X94687000Y-85509500I0J-100000D01*
G01*
X94687000Y-86784500D01*
G75*
G02*
X94587000Y-86884500I-100000J0D01*
G01*
X94387000Y-86884500D01*
G75*
G02*
X94287000Y-86784500I0J100000D01*
G01*
X94287000Y-85509500D01*
G75*
G02*
X94387000Y-85409500I100000J0D01*
G01*
G37*
%TD.AperFunction*%
%TO.P,U5,4*%
%TO.N,/nRst*%
%TA.AperFunction,SMDPad,CuDef*%
G36*
G01*
X95037000Y-85409500D02*
X95237000Y-85409500D01*
G75*
G02*
X95337000Y-85509500I0J-100000D01*
G01*
X95337000Y-86784500D01*
G75*
G02*
X95237000Y-86884500I-100000J0D01*
G01*
X95037000Y-86884500D01*
G75*
G02*
X94937000Y-86784500I0J100000D01*
G01*
X94937000Y-85509500D01*
G75*
G02*
X95037000Y-85409500I100000J0D01*
G01*
G37*
%TD.AperFunction*%
%TO.P,U5,3*%
%TO.N,Net-(R24-Pad2)*%
%TA.AperFunction,SMDPad,CuDef*%
G36*
G01*
X95687000Y-85409500D02*
X95887000Y-85409500D01*
G75*
G02*
X95987000Y-85509500I0J-100000D01*
G01*
X95987000Y-86784500D01*
G75*
G02*
X95887000Y-86884500I-100000J0D01*
G01*
X95687000Y-86884500D01*
G75*
G02*
X95587000Y-86784500I0J100000D01*
G01*
X95587000Y-85509500D01*
G75*
G02*
X95687000Y-85409500I100000J0D01*
G01*
G37*
%TD.AperFunction*%
%TO.P,U5,2*%
%TO.N,Net-(C4-Pad1)*%
%TA.AperFunction,SMDPad,CuDef*%
G36*
G01*
X96337000Y-85409500D02*
X96537000Y-85409500D01*
G75*
G02*
X96637000Y-85509500I0J-100000D01*
G01*
X96637000Y-86784500D01*
G75*
G02*
X96537000Y-86884500I-100000J0D01*
G01*
X96337000Y-86884500D01*
G75*
G02*
X96237000Y-86784500I0J100000D01*
G01*
X96237000Y-85509500D01*
G75*
G02*
X96337000Y-85409500I100000J0D01*
G01*
G37*
%TD.AperFunction*%
%TO.P,U5,1*%
%TO.N,Net-(JP4-Pad2)*%
%TA.AperFunction,SMDPad,CuDef*%
G36*
G01*
X96987000Y-85409500D02*
X97187000Y-85409500D01*
G75*
G02*
X97287000Y-85509500I0J-100000D01*
G01*
X97287000Y-86784500D01*
G75*
G02*
X97187000Y-86884500I-100000J0D01*
G01*
X96987000Y-86884500D01*
G75*
G02*
X96887000Y-86784500I0J100000D01*
G01*
X96887000Y-85509500D01*
G75*
G02*
X96987000Y-85409500I100000J0D01*
G01*
G37*
%TD.AperFunction*%
%TD*%
%TO.P,R24,2*%
%TO.N,Net-(R24-Pad2)*%
%TA.AperFunction,SMDPad,CuDef*%
G36*
G01*
X95345000Y-83257000D02*
X95345000Y-82707000D01*
G75*
G02*
X95545000Y-82507000I200000J0D01*
G01*
X95945000Y-82507000D01*
G75*
G02*
X96145000Y-82707000I0J-200000D01*
G01*
X96145000Y-83257000D01*
G75*
G02*
X95945000Y-83457000I-200000J0D01*
G01*
X95545000Y-83457000D01*
G75*
G02*
X95345000Y-83257000I0J200000D01*
G01*
G37*
%TD.AperFunction*%
%TO.P,R24,1*%
%TO.N,Net-(C5-Pad1)*%
%TA.AperFunction,SMDPad,CuDef*%
G36*
G01*
X93695000Y-83257000D02*
X93695000Y-82707000D01*
G75*
G02*
X93895000Y-82507000I200000J0D01*
G01*
X94295000Y-82507000D01*
G75*
G02*
X94495000Y-82707000I0J-200000D01*
G01*
X94495000Y-83257000D01*
G75*
G02*
X94295000Y-83457000I-200000J0D01*
G01*
X93895000Y-83457000D01*
G75*
G02*
X93695000Y-83257000I0J200000D01*
G01*
G37*
%TD.AperFunction*%
%TD*%
%TO.P,C5,2*%
%TO.N,GNDPWR*%
%TA.AperFunction,SMDPad,CuDef*%
G36*
G01*
X94408000Y-76548000D02*
X93908000Y-76548000D01*
G75*
G02*
X93683000Y-76323000I0J225000D01*
G01*
X93683000Y-75873000D01*
G75*
G02*
X93908000Y-75648000I225000J0D01*
G01*
X94408000Y-75648000D01*
G75*
G02*
X94633000Y-75873000I0J-225000D01*
G01*
X94633000Y-76323000D01*
G75*
G02*
X94408000Y-76548000I-225000J0D01*
G01*
G37*
%TD.AperFunction*%
%TO.P,C5,1*%
%TO.N,Net-(C5-Pad1)*%
%TA.AperFunction,SMDPad,CuDef*%
G36*
G01*
X94408000Y-78098000D02*
X93908000Y-78098000D01*
G75*
G02*
X93683000Y-77873000I0J225000D01*
G01*
X93683000Y-77423000D01*
G75*
G02*
X93908000Y-77198000I225000J0D01*
G01*
X94408000Y-77198000D01*
G75*
G02*
X94633000Y-77423000I0J-225000D01*
G01*
X94633000Y-77873000D01*
G75*
G02*
X94408000Y-78098000I-225000J0D01*
G01*
G37*
%TD.AperFunction*%
%TD*%
%TO.P,C4,2*%
%TO.N,GNDPWR*%
%TA.AperFunction,SMDPad,CuDef*%
G36*
G01*
X96440000Y-76548000D02*
X95940000Y-76548000D01*
G75*
G02*
X95715000Y-76323000I0J225000D01*
G01*
X95715000Y-75873000D01*
G75*
G02*
X95940000Y-75648000I225000J0D01*
G01*
X96440000Y-75648000D01*
G75*
G02*
X96665000Y-75873000I0J-225000D01*
G01*
X96665000Y-76323000D01*
G75*
G02*
X96440000Y-76548000I-225000J0D01*
G01*
G37*
%TD.AperFunction*%
%TO.P,C4,1*%
%TO.N,Net-(C4-Pad1)*%
%TA.AperFunction,SMDPad,CuDef*%
G36*
G01*
X96440000Y-78098000D02*
X95940000Y-78098000D01*
G75*
G02*
X95715000Y-77873000I0J225000D01*
G01*
X95715000Y-77423000D01*
G75*
G02*
X95940000Y-77198000I225000J0D01*
G01*
X96440000Y-77198000D01*
G75*
G02*
X96665000Y-77423000I0J-225000D01*
G01*
X96665000Y-77873000D01*
G75*
G02*
X96440000Y-78098000I-225000J0D01*
G01*
G37*
%TD.AperFunction*%
%TD*%
D23*
%TO.P,GND1,1*%
%TO.N,GND1*%
X78537000Y-86665000D03*
%TD*%
%TA.AperFunction,SMDPad,CuDef*%
D24*
%TO.P,JP6,1*%
%TO.N,Net-(JP6-Pad1)*%
G36*
X90332000Y-94158000D02*
G01*
X89832000Y-94908000D01*
X88832000Y-94908000D01*
X88832000Y-93408000D01*
X89832000Y-93408000D01*
X90332000Y-94158000D01*
G37*
%TD.AperFunction*%
%TA.AperFunction,SMDPad,CuDef*%
%TO.P,JP6,2*%
%TO.N,+3.3VP*%
G36*
X91282000Y-94908000D02*
G01*
X90132000Y-94908000D01*
X90632000Y-94158000D01*
X90132000Y-93408000D01*
X91282000Y-93408000D01*
X91282000Y-94908000D01*
G37*
%TD.AperFunction*%
%TD*%
%TA.AperFunction,SMDPad,CuDef*%
%TO.P,JP5,1*%
%TO.N,Net-(JP5-Pad1)*%
G36*
X89332000Y-89824000D02*
G01*
X88582000Y-89324000D01*
X88582000Y-88324000D01*
X90082000Y-88324000D01*
X90082000Y-89324000D01*
X89332000Y-89824000D01*
G37*
%TD.AperFunction*%
%TA.AperFunction,SMDPad,CuDef*%
%TO.P,JP5,2*%
%TO.N,+5VP*%
G36*
X88582000Y-90774000D02*
G01*
X88582000Y-89624000D01*
X89332000Y-90124000D01*
X90082000Y-89624000D01*
X90082000Y-90774000D01*
X88582000Y-90774000D01*
G37*
%TD.AperFunction*%
%TD*%
%TA.AperFunction,SMDPad,CuDef*%
%TO.P,JP3,1*%
%TO.N,+5V*%
G36*
X84252000Y-76701000D02*
G01*
X85002000Y-77201000D01*
X85002000Y-78201000D01*
X83502000Y-78201000D01*
X83502000Y-77201000D01*
X84252000Y-76701000D01*
G37*
%TD.AperFunction*%
%TA.AperFunction,SMDPad,CuDef*%
%TO.P,JP3,2*%
%TO.N,Net-(C6-Pad2)*%
G36*
X85002000Y-75751000D02*
G01*
X85002000Y-76901000D01*
X84252000Y-76401000D01*
X83502000Y-76901000D01*
X83502000Y-75751000D01*
X85002000Y-75751000D01*
G37*
%TD.AperFunction*%
%TD*%
%TA.AperFunction,SMDPad,CuDef*%
%TO.P,JP2,1*%
%TO.N,Net-(J1-Pad3)*%
G36*
X84871000Y-91618000D02*
G01*
X84371000Y-92368000D01*
X83371000Y-92368000D01*
X83371000Y-90868000D01*
X84371000Y-90868000D01*
X84871000Y-91618000D01*
G37*
%TD.AperFunction*%
%TA.AperFunction,SMDPad,CuDef*%
%TO.P,JP2,2*%
%TO.N,GNDPWR*%
G36*
X85821000Y-92368000D02*
G01*
X84671000Y-92368000D01*
X85171000Y-91618000D01*
X84671000Y-90868000D01*
X85821000Y-90868000D01*
X85821000Y-92368000D01*
G37*
%TD.AperFunction*%
%TD*%
D25*
%TO.P,U2,4*%
%TO.N,Net-(D3-Pad2)*%
X113716000Y-77140000D03*
%TO.P,U2,3*%
%TO.N,+5VP*%
X113716000Y-79680000D03*
%TO.P,U2,2*%
%TO.N,Net-(F1-Pad2)*%
X113716000Y-89840000D03*
D26*
%TO.P,U2,1*%
%TO.N,Net-(J3-Pad1)*%
X113716000Y-97460000D03*
%TD*%
%TO.P,R21,2*%
%TO.N,Net-(C12-Pad1)*%
%TA.AperFunction,SMDPad,CuDef*%
G36*
G01*
X117276500Y-87230999D02*
X117276500Y-88131001D01*
G75*
G02*
X117026501Y-88381000I-249999J0D01*
G01*
X116501499Y-88381000D01*
G75*
G02*
X116251500Y-88131001I0J249999D01*
G01*
X116251500Y-87230999D01*
G75*
G02*
X116501499Y-86981000I249999J0D01*
G01*
X117026501Y-86981000D01*
G75*
G02*
X117276500Y-87230999I0J-249999D01*
G01*
G37*
%TD.AperFunction*%
%TO.P,R21,1*%
%TO.N,GNDPWR*%
%TA.AperFunction,SMDPad,CuDef*%
G36*
G01*
X119101500Y-87230999D02*
X119101500Y-88131001D01*
G75*
G02*
X118851501Y-88381000I-249999J0D01*
G01*
X118326499Y-88381000D01*
G75*
G02*
X118076500Y-88131001I0J249999D01*
G01*
X118076500Y-87230999D01*
G75*
G02*
X118326499Y-86981000I249999J0D01*
G01*
X118851501Y-86981000D01*
G75*
G02*
X119101500Y-87230999I0J-249999D01*
G01*
G37*
%TD.AperFunction*%
%TD*%
%TO.P,R20,1*%
%TO.N,/Load2N*%
%TA.AperFunction,SMDPad,CuDef*%
G36*
G01*
X119101500Y-94215999D02*
X119101500Y-95116001D01*
G75*
G02*
X118851501Y-95366000I-249999J0D01*
G01*
X118326499Y-95366000D01*
G75*
G02*
X118076500Y-95116001I0J249999D01*
G01*
X118076500Y-94215999D01*
G75*
G02*
X118326499Y-93966000I249999J0D01*
G01*
X118851501Y-93966000D01*
G75*
G02*
X119101500Y-94215999I0J-249999D01*
G01*
G37*
%TD.AperFunction*%
%TO.P,R20,2*%
%TO.N,Net-(C11-Pad2)*%
%TA.AperFunction,SMDPad,CuDef*%
G36*
G01*
X117276500Y-94215999D02*
X117276500Y-95116001D01*
G75*
G02*
X117026501Y-95366000I-249999J0D01*
G01*
X116501499Y-95366000D01*
G75*
G02*
X116251500Y-95116001I0J249999D01*
G01*
X116251500Y-94215999D01*
G75*
G02*
X116501499Y-93966000I249999J0D01*
G01*
X117026501Y-93966000D01*
G75*
G02*
X117276500Y-94215999I0J-249999D01*
G01*
G37*
%TD.AperFunction*%
%TD*%
%TO.P,R19,2*%
%TO.N,Net-(C10-Pad1)*%
%TA.AperFunction,SMDPad,CuDef*%
G36*
G01*
X107370500Y-87230999D02*
X107370500Y-88131001D01*
G75*
G02*
X107120501Y-88381000I-249999J0D01*
G01*
X106595499Y-88381000D01*
G75*
G02*
X106345500Y-88131001I0J249999D01*
G01*
X106345500Y-87230999D01*
G75*
G02*
X106595499Y-86981000I249999J0D01*
G01*
X107120501Y-86981000D01*
G75*
G02*
X107370500Y-87230999I0J-249999D01*
G01*
G37*
%TD.AperFunction*%
%TO.P,R19,1*%
%TO.N,GNDPWR*%
%TA.AperFunction,SMDPad,CuDef*%
G36*
G01*
X109195500Y-87230999D02*
X109195500Y-88131001D01*
G75*
G02*
X108945501Y-88381000I-249999J0D01*
G01*
X108420499Y-88381000D01*
G75*
G02*
X108170500Y-88131001I0J249999D01*
G01*
X108170500Y-87230999D01*
G75*
G02*
X108420499Y-86981000I249999J0D01*
G01*
X108945501Y-86981000D01*
G75*
G02*
X109195500Y-87230999I0J-249999D01*
G01*
G37*
%TD.AperFunction*%
%TD*%
%TO.P,R18,2*%
%TO.N,Net-(C9-Pad2)*%
%TA.AperFunction,SMDPad,CuDef*%
G36*
G01*
X107243500Y-94215999D02*
X107243500Y-95116001D01*
G75*
G02*
X106993501Y-95366000I-249999J0D01*
G01*
X106468499Y-95366000D01*
G75*
G02*
X106218500Y-95116001I0J249999D01*
G01*
X106218500Y-94215999D01*
G75*
G02*
X106468499Y-93966000I249999J0D01*
G01*
X106993501Y-93966000D01*
G75*
G02*
X107243500Y-94215999I0J-249999D01*
G01*
G37*
%TD.AperFunction*%
%TO.P,R18,1*%
%TO.N,/Load1N*%
%TA.AperFunction,SMDPad,CuDef*%
G36*
G01*
X109068500Y-94215999D02*
X109068500Y-95116001D01*
G75*
G02*
X108818501Y-95366000I-249999J0D01*
G01*
X108293499Y-95366000D01*
G75*
G02*
X108043500Y-95116001I0J249999D01*
G01*
X108043500Y-94215999D01*
G75*
G02*
X108293499Y-93966000I249999J0D01*
G01*
X108818501Y-93966000D01*
G75*
G02*
X109068500Y-94215999I0J-249999D01*
G01*
G37*
%TD.AperFunction*%
%TD*%
%TO.P,C12,2*%
%TO.N,GNDPWR*%
%TA.AperFunction,SMDPad,CuDef*%
G36*
G01*
X118164000Y-90188000D02*
X118164000Y-89238000D01*
G75*
G02*
X118414000Y-88988000I250000J0D01*
G01*
X118914000Y-88988000D01*
G75*
G02*
X119164000Y-89238000I0J-250000D01*
G01*
X119164000Y-90188000D01*
G75*
G02*
X118914000Y-90438000I-250000J0D01*
G01*
X118414000Y-90438000D01*
G75*
G02*
X118164000Y-90188000I0J250000D01*
G01*
G37*
%TD.AperFunction*%
%TO.P,C12,1*%
%TO.N,Net-(C12-Pad1)*%
%TA.AperFunction,SMDPad,CuDef*%
G36*
G01*
X116264000Y-90188000D02*
X116264000Y-89238000D01*
G75*
G02*
X116514000Y-88988000I250000J0D01*
G01*
X117014000Y-88988000D01*
G75*
G02*
X117264000Y-89238000I0J-250000D01*
G01*
X117264000Y-90188000D01*
G75*
G02*
X117014000Y-90438000I-250000J0D01*
G01*
X116514000Y-90438000D01*
G75*
G02*
X116264000Y-90188000I0J250000D01*
G01*
G37*
%TD.AperFunction*%
%TD*%
%TO.P,C11,2*%
%TO.N,Net-(C11-Pad2)*%
%TA.AperFunction,SMDPad,CuDef*%
G36*
G01*
X117269000Y-92159000D02*
X117269000Y-93109000D01*
G75*
G02*
X117019000Y-93359000I-250000J0D01*
G01*
X116519000Y-93359000D01*
G75*
G02*
X116269000Y-93109000I0J250000D01*
G01*
X116269000Y-92159000D01*
G75*
G02*
X116519000Y-91909000I250000J0D01*
G01*
X117019000Y-91909000D01*
G75*
G02*
X117269000Y-92159000I0J-250000D01*
G01*
G37*
%TD.AperFunction*%
%TO.P,C11,1*%
%TO.N,GNDPWR*%
%TA.AperFunction,SMDPad,CuDef*%
G36*
G01*
X119169000Y-92159000D02*
X119169000Y-93109000D01*
G75*
G02*
X118919000Y-93359000I-250000J0D01*
G01*
X118419000Y-93359000D01*
G75*
G02*
X118169000Y-93109000I0J250000D01*
G01*
X118169000Y-92159000D01*
G75*
G02*
X118419000Y-91909000I250000J0D01*
G01*
X118919000Y-91909000D01*
G75*
G02*
X119169000Y-92159000I0J-250000D01*
G01*
G37*
%TD.AperFunction*%
%TD*%
%TO.P,C10,2*%
%TO.N,GNDPWR*%
%TA.AperFunction,SMDPad,CuDef*%
G36*
G01*
X108263000Y-90188000D02*
X108263000Y-89238000D01*
G75*
G02*
X108513000Y-88988000I250000J0D01*
G01*
X109013000Y-88988000D01*
G75*
G02*
X109263000Y-89238000I0J-250000D01*
G01*
X109263000Y-90188000D01*
G75*
G02*
X109013000Y-90438000I-250000J0D01*
G01*
X108513000Y-90438000D01*
G75*
G02*
X108263000Y-90188000I0J250000D01*
G01*
G37*
%TD.AperFunction*%
%TO.P,C10,1*%
%TO.N,Net-(C10-Pad1)*%
%TA.AperFunction,SMDPad,CuDef*%
G36*
G01*
X106363000Y-90188000D02*
X106363000Y-89238000D01*
G75*
G02*
X106613000Y-88988000I250000J0D01*
G01*
X107113000Y-88988000D01*
G75*
G02*
X107363000Y-89238000I0J-250000D01*
G01*
X107363000Y-90188000D01*
G75*
G02*
X107113000Y-90438000I-250000J0D01*
G01*
X106613000Y-90438000D01*
G75*
G02*
X106363000Y-90188000I0J250000D01*
G01*
G37*
%TD.AperFunction*%
%TD*%
%TO.P,C9,2*%
%TO.N,Net-(C9-Pad2)*%
%TA.AperFunction,SMDPad,CuDef*%
G36*
G01*
X107231000Y-92159000D02*
X107231000Y-93109000D01*
G75*
G02*
X106981000Y-93359000I-250000J0D01*
G01*
X106481000Y-93359000D01*
G75*
G02*
X106231000Y-93109000I0J250000D01*
G01*
X106231000Y-92159000D01*
G75*
G02*
X106481000Y-91909000I250000J0D01*
G01*
X106981000Y-91909000D01*
G75*
G02*
X107231000Y-92159000I0J-250000D01*
G01*
G37*
%TD.AperFunction*%
%TO.P,C9,1*%
%TO.N,GNDPWR*%
%TA.AperFunction,SMDPad,CuDef*%
G36*
G01*
X109131000Y-92159000D02*
X109131000Y-93109000D01*
G75*
G02*
X108881000Y-93359000I-250000J0D01*
G01*
X108381000Y-93359000D01*
G75*
G02*
X108131000Y-93109000I0J250000D01*
G01*
X108131000Y-92159000D01*
G75*
G02*
X108381000Y-91909000I250000J0D01*
G01*
X108881000Y-91909000D01*
G75*
G02*
X109131000Y-92159000I0J-250000D01*
G01*
G37*
%TD.AperFunction*%
%TD*%
%TO.P,R9,2*%
%TO.N,Net-(C2-Pad1)*%
%TA.AperFunction,SMDPad,CuDef*%
G36*
G01*
X117989500Y-77284100D02*
X117989500Y-77834100D01*
G75*
G02*
X117789500Y-78034100I-200000J0D01*
G01*
X117389500Y-78034100D01*
G75*
G02*
X117189500Y-77834100I0J200000D01*
G01*
X117189500Y-77284100D01*
G75*
G02*
X117389500Y-77084100I200000J0D01*
G01*
X117789500Y-77084100D01*
G75*
G02*
X117989500Y-77284100I0J-200000D01*
G01*
G37*
%TD.AperFunction*%
%TO.P,R9,1*%
%TO.N,Net-(C2-Pad2)*%
%TA.AperFunction,SMDPad,CuDef*%
G36*
G01*
X119639500Y-77284100D02*
X119639500Y-77834100D01*
G75*
G02*
X119439500Y-78034100I-200000J0D01*
G01*
X119039500Y-78034100D01*
G75*
G02*
X118839500Y-77834100I0J200000D01*
G01*
X118839500Y-77284100D01*
G75*
G02*
X119039500Y-77084100I200000J0D01*
G01*
X119439500Y-77084100D01*
G75*
G02*
X119639500Y-77284100I0J-200000D01*
G01*
G37*
%TD.AperFunction*%
%TD*%
%TO.P,R8,2*%
%TO.N,Net-(D4-Pad2)*%
%TA.AperFunction,SMDPad,CuDef*%
G36*
G01*
X121443000Y-76272000D02*
X121443000Y-75722000D01*
G75*
G02*
X121643000Y-75522000I200000J0D01*
G01*
X122043000Y-75522000D01*
G75*
G02*
X122243000Y-75722000I0J-200000D01*
G01*
X122243000Y-76272000D01*
G75*
G02*
X122043000Y-76472000I-200000J0D01*
G01*
X121643000Y-76472000D01*
G75*
G02*
X121443000Y-76272000I0J200000D01*
G01*
G37*
%TD.AperFunction*%
%TO.P,R8,1*%
%TO.N,Net-(C2-Pad2)*%
%TA.AperFunction,SMDPad,CuDef*%
G36*
G01*
X119793000Y-76272000D02*
X119793000Y-75722000D01*
G75*
G02*
X119993000Y-75522000I200000J0D01*
G01*
X120393000Y-75522000D01*
G75*
G02*
X120593000Y-75722000I0J-200000D01*
G01*
X120593000Y-76272000D01*
G75*
G02*
X120393000Y-76472000I-200000J0D01*
G01*
X119993000Y-76472000D01*
G75*
G02*
X119793000Y-76272000I0J200000D01*
G01*
G37*
%TD.AperFunction*%
%TD*%
%TO.P,R6,2*%
%TO.N,Net-(C1-Pad1)*%
%TA.AperFunction,SMDPad,CuDef*%
G36*
G01*
X108083500Y-77246000D02*
X108083500Y-77796000D01*
G75*
G02*
X107883500Y-77996000I-200000J0D01*
G01*
X107483500Y-77996000D01*
G75*
G02*
X107283500Y-77796000I0J200000D01*
G01*
X107283500Y-77246000D01*
G75*
G02*
X107483500Y-77046000I200000J0D01*
G01*
X107883500Y-77046000D01*
G75*
G02*
X108083500Y-77246000I0J-200000D01*
G01*
G37*
%TD.AperFunction*%
%TO.P,R6,1*%
%TO.N,Net-(C1-Pad2)*%
%TA.AperFunction,SMDPad,CuDef*%
G36*
G01*
X109733500Y-77246000D02*
X109733500Y-77796000D01*
G75*
G02*
X109533500Y-77996000I-200000J0D01*
G01*
X109133500Y-77996000D01*
G75*
G02*
X108933500Y-77796000I0J200000D01*
G01*
X108933500Y-77246000D01*
G75*
G02*
X109133500Y-77046000I200000J0D01*
G01*
X109533500Y-77046000D01*
G75*
G02*
X109733500Y-77246000I0J-200000D01*
G01*
G37*
%TD.AperFunction*%
%TD*%
%TO.P,R5,2*%
%TO.N,Net-(D3-Pad2)*%
%TA.AperFunction,SMDPad,CuDef*%
G36*
G01*
X111537000Y-76272000D02*
X111537000Y-75722000D01*
G75*
G02*
X111737000Y-75522000I200000J0D01*
G01*
X112137000Y-75522000D01*
G75*
G02*
X112337000Y-75722000I0J-200000D01*
G01*
X112337000Y-76272000D01*
G75*
G02*
X112137000Y-76472000I-200000J0D01*
G01*
X111737000Y-76472000D01*
G75*
G02*
X111537000Y-76272000I0J200000D01*
G01*
G37*
%TD.AperFunction*%
%TO.P,R5,1*%
%TO.N,Net-(C1-Pad2)*%
%TA.AperFunction,SMDPad,CuDef*%
G36*
G01*
X109887000Y-76272000D02*
X109887000Y-75722000D01*
G75*
G02*
X110087000Y-75522000I200000J0D01*
G01*
X110487000Y-75522000D01*
G75*
G02*
X110687000Y-75722000I0J-200000D01*
G01*
X110687000Y-76272000D01*
G75*
G02*
X110487000Y-76472000I-200000J0D01*
G01*
X110087000Y-76472000D01*
G75*
G02*
X109887000Y-76272000I0J200000D01*
G01*
G37*
%TD.AperFunction*%
%TD*%
%TO.P,R2,2*%
%TO.N,Net-(D2-Pad1)*%
%TA.AperFunction,SMDPad,CuDef*%
G36*
G01*
X117481500Y-75722000D02*
X117481500Y-76272000D01*
G75*
G02*
X117281500Y-76472000I-200000J0D01*
G01*
X116881500Y-76472000D01*
G75*
G02*
X116681500Y-76272000I0J200000D01*
G01*
X116681500Y-75722000D01*
G75*
G02*
X116881500Y-75522000I200000J0D01*
G01*
X117281500Y-75522000D01*
G75*
G02*
X117481500Y-75722000I0J-200000D01*
G01*
G37*
%TD.AperFunction*%
%TO.P,R2,1*%
%TO.N,Net-(C2-Pad2)*%
%TA.AperFunction,SMDPad,CuDef*%
G36*
G01*
X119131500Y-75722000D02*
X119131500Y-76272000D01*
G75*
G02*
X118931500Y-76472000I-200000J0D01*
G01*
X118531500Y-76472000D01*
G75*
G02*
X118331500Y-76272000I0J200000D01*
G01*
X118331500Y-75722000D01*
G75*
G02*
X118531500Y-75522000I200000J0D01*
G01*
X118931500Y-75522000D01*
G75*
G02*
X119131500Y-75722000I0J-200000D01*
G01*
G37*
%TD.AperFunction*%
%TD*%
%TO.P,R1,2*%
%TO.N,Net-(D1-Pad1)*%
%TA.AperFunction,SMDPad,CuDef*%
G36*
G01*
X107575500Y-75722000D02*
X107575500Y-76272000D01*
G75*
G02*
X107375500Y-76472000I-200000J0D01*
G01*
X106975500Y-76472000D01*
G75*
G02*
X106775500Y-76272000I0J200000D01*
G01*
X106775500Y-75722000D01*
G75*
G02*
X106975500Y-75522000I200000J0D01*
G01*
X107375500Y-75522000D01*
G75*
G02*
X107575500Y-75722000I0J-200000D01*
G01*
G37*
%TD.AperFunction*%
%TO.P,R1,1*%
%TO.N,Net-(C1-Pad2)*%
%TA.AperFunction,SMDPad,CuDef*%
G36*
G01*
X109225500Y-75722000D02*
X109225500Y-76272000D01*
G75*
G02*
X109025500Y-76472000I-200000J0D01*
G01*
X108625500Y-76472000D01*
G75*
G02*
X108425500Y-76272000I0J200000D01*
G01*
X108425500Y-75722000D01*
G75*
G02*
X108625500Y-75522000I200000J0D01*
G01*
X109025500Y-75522000D01*
G75*
G02*
X109225500Y-75722000I0J-200000D01*
G01*
G37*
%TD.AperFunction*%
%TD*%
D27*
%TO.P,D4,2*%
%TO.N,Net-(D4-Pad2)*%
X121463000Y-77394000D03*
%TO.P,D4,1*%
%TO.N,+5VP*%
X121463000Y-79494000D03*
%TD*%
%TO.P,D3,2*%
%TO.N,Net-(D3-Pad2)*%
X111557000Y-77394000D03*
%TO.P,D3,1*%
%TO.N,+5VP*%
X111557000Y-79494000D03*
%TD*%
%TO.P,C2,2*%
%TO.N,Net-(C2-Pad2)*%
%TA.AperFunction,SMDPad,CuDef*%
G36*
G01*
X118753000Y-79422000D02*
X118753000Y-78922000D01*
G75*
G02*
X118978000Y-78697000I225000J0D01*
G01*
X119428000Y-78697000D01*
G75*
G02*
X119653000Y-78922000I0J-225000D01*
G01*
X119653000Y-79422000D01*
G75*
G02*
X119428000Y-79647000I-225000J0D01*
G01*
X118978000Y-79647000D01*
G75*
G02*
X118753000Y-79422000I0J225000D01*
G01*
G37*
%TD.AperFunction*%
%TO.P,C2,1*%
%TO.N,Net-(C2-Pad1)*%
%TA.AperFunction,SMDPad,CuDef*%
G36*
G01*
X117203000Y-79422000D02*
X117203000Y-78922000D01*
G75*
G02*
X117428000Y-78697000I225000J0D01*
G01*
X117878000Y-78697000D01*
G75*
G02*
X118103000Y-78922000I0J-225000D01*
G01*
X118103000Y-79422000D01*
G75*
G02*
X117878000Y-79647000I-225000J0D01*
G01*
X117428000Y-79647000D01*
G75*
G02*
X117203000Y-79422000I0J225000D01*
G01*
G37*
%TD.AperFunction*%
%TD*%
%TO.P,C1,2*%
%TO.N,Net-(C1-Pad2)*%
%TA.AperFunction,SMDPad,CuDef*%
G36*
G01*
X108847000Y-79422000D02*
X108847000Y-78922000D01*
G75*
G02*
X109072000Y-78697000I225000J0D01*
G01*
X109522000Y-78697000D01*
G75*
G02*
X109747000Y-78922000I0J-225000D01*
G01*
X109747000Y-79422000D01*
G75*
G02*
X109522000Y-79647000I-225000J0D01*
G01*
X109072000Y-79647000D01*
G75*
G02*
X108847000Y-79422000I0J225000D01*
G01*
G37*
%TD.AperFunction*%
%TO.P,C1,1*%
%TO.N,Net-(C1-Pad1)*%
%TA.AperFunction,SMDPad,CuDef*%
G36*
G01*
X107297000Y-79422000D02*
X107297000Y-78922000D01*
G75*
G02*
X107522000Y-78697000I225000J0D01*
G01*
X107972000Y-78697000D01*
G75*
G02*
X108197000Y-78922000I0J-225000D01*
G01*
X108197000Y-79422000D01*
G75*
G02*
X107972000Y-79647000I-225000J0D01*
G01*
X107522000Y-79647000D01*
G75*
G02*
X107297000Y-79422000I0J225000D01*
G01*
G37*
%TD.AperFunction*%
%TD*%
%TO.P,C3,2*%
%TO.N,+5V*%
%TA.AperFunction,SMDPad,CuDef*%
G36*
G01*
X84041000Y-79176000D02*
X84041000Y-79676000D01*
G75*
G02*
X83816000Y-79901000I-225000J0D01*
G01*
X83366000Y-79901000D01*
G75*
G02*
X83141000Y-79676000I0J225000D01*
G01*
X83141000Y-79176000D01*
G75*
G02*
X83366000Y-78951000I225000J0D01*
G01*
X83816000Y-78951000D01*
G75*
G02*
X84041000Y-79176000I0J-225000D01*
G01*
G37*
%TD.AperFunction*%
%TO.P,C3,1*%
%TO.N,GND1*%
%TA.AperFunction,SMDPad,CuDef*%
G36*
G01*
X85591000Y-79176000D02*
X85591000Y-79676000D01*
G75*
G02*
X85366000Y-79901000I-225000J0D01*
G01*
X84916000Y-79901000D01*
G75*
G02*
X84691000Y-79676000I0J225000D01*
G01*
X84691000Y-79176000D01*
G75*
G02*
X84916000Y-78951000I225000J0D01*
G01*
X85366000Y-78951000D01*
G75*
G02*
X85591000Y-79176000I0J-225000D01*
G01*
G37*
%TD.AperFunction*%
%TD*%
D25*
%TO.P,U3,4*%
%TO.N,Net-(D4-Pad2)*%
X123622000Y-77140000D03*
%TO.P,U3,3*%
%TO.N,+5VP*%
X123622000Y-79680000D03*
%TO.P,U3,2*%
%TO.N,Net-(F2-Pad2)*%
X123622000Y-89840000D03*
D26*
%TO.P,U3,1*%
%TO.N,Net-(J4-Pad1)*%
X123622000Y-97460000D03*
%TD*%
%TA.AperFunction,SMDPad,CuDef*%
D24*
%TO.P,JP1,1*%
%TO.N,Net-(J1-Pad1)*%
G36*
X84871000Y-98603000D02*
G01*
X84371000Y-99353000D01*
X83371000Y-99353000D01*
X83371000Y-97853000D01*
X84371000Y-97853000D01*
X84871000Y-98603000D01*
G37*
%TD.AperFunction*%
%TA.AperFunction,SMDPad,CuDef*%
%TO.P,JP1,2*%
%TO.N,AC*%
G36*
X85821000Y-99353000D02*
G01*
X84671000Y-99353000D01*
X85171000Y-98603000D01*
X84671000Y-97853000D01*
X85821000Y-97853000D01*
X85821000Y-99353000D01*
G37*
%TD.AperFunction*%
%TD*%
D19*
%TO.P,J2,6*%
%TO.N,+5V*%
X76251000Y-79680000D03*
%TO.P,J2,5*%
X76251000Y-80950000D03*
%TO.P,J2,4*%
%TO.N,GND1*%
X77521000Y-79680000D03*
%TO.P,J2,3*%
X77521000Y-80950000D03*
%TO.P,J2,2*%
%TO.N,+5P*%
X78791000Y-79680000D03*
D12*
%TO.P,J2,1*%
X78791000Y-80950000D03*
%TD*%
D21*
%TO.P,F2,2*%
%TO.N,Net-(F2-Pad2)*%
X122733000Y-85522000D03*
D13*
%TO.P,F2,1*%
%TO.N,AC*%
X122733000Y-93142000D03*
%TD*%
D28*
%TO.N,GNDPWR*%
X117018000Y-81077000D03*
D29*
X118669000Y-91110000D03*
X108763000Y-91110000D03*
D28*
X95174000Y-76505000D03*
X107112000Y-81077000D03*
X98730000Y-76505000D03*
X118589000Y-87681000D03*
X108683000Y-87681000D03*
X76124000Y-88697000D03*
X100960945Y-95063065D03*
X97057425Y-93755425D03*
X90729000Y-84125022D03*
X93978402Y-93274063D03*
D29*
%TO.N,+5VP*%
X89332000Y-90729000D03*
%TO.N,AC*%
X86919000Y-98730000D03*
%TO.N,+3.3VP*%
X91257678Y-94260868D03*
D28*
X102286000Y-87834000D03*
X94412000Y-94285000D03*
D30*
X99287627Y-93071744D03*
D28*
X104064000Y-81712000D03*
%TO.N,Net-(C9-Pad2)*%
X103571824Y-92141826D03*
%TO.N,Net-(C10-Pad1)*%
X106863013Y-89712998D03*
%TO.N,Net-(C11-Pad2)*%
X110282337Y-90352659D03*
%TO.N,Net-(C12-Pad1)*%
X116764000Y-89713000D03*
%TO.N,/L1_o1_nEn*%
X107112000Y-82601000D03*
X92888000Y-87500679D03*
%TO.N,/L1_o2_nEn*%
X93777000Y-84760000D03*
X110160000Y-82473998D03*
%TO.N,/SPI_MOSI*%
X91361034Y-88840237D03*
%TO.N,/SPI_MISO*%
X91764927Y-90528876D03*
%TO.N,/SPI_SCLK*%
X90960803Y-89882612D03*
%TO.N,/SPI_SSEL*%
X94936969Y-88973799D03*
%TO.N,/Int*%
X100662621Y-87172012D03*
X93899241Y-87490007D03*
%TO.N,Net-(C1-Pad1)*%
X107683500Y-77521000D03*
%TO.N,Net-(C2-Pad1)*%
X117589500Y-77559100D03*
%TO.N,Net-(D1-Pad1)*%
X107175500Y-75997000D03*
%TO.N,Net-(D2-Pad1)*%
X117081500Y-75997000D03*
%TO.N,+5V*%
X79425000Y-84379000D03*
%TO.N,Net-(C17-Pad2)*%
X93062000Y-94285000D03*
X92279000Y-84125020D03*
%TO.N,Net-(R27-Pad2)*%
X97737978Y-89373021D03*
X107096675Y-85632675D03*
%TO.N,/I2C_SDA*%
X96069875Y-90454535D03*
%TO.N,/I2C_SCL*%
X99024357Y-87311990D03*
X95030639Y-90502033D03*
%TO.N,/+5V_valid*%
X93777002Y-90475002D03*
%TD*%
D31*
%TO.N,GND1*%
X86919000Y-79426000D02*
X87427000Y-78918000D01*
X85141000Y-79426000D02*
X86919000Y-79426000D01*
D32*
X87865001Y-78479999D02*
X87427000Y-78918000D01*
X90035001Y-78479999D02*
X87865001Y-78479999D01*
X90659001Y-79103999D02*
X90035001Y-78479999D01*
X90659001Y-79610001D02*
X90659001Y-79103999D01*
X90729000Y-79680000D02*
X90659001Y-79610001D01*
X90729000Y-79680000D02*
X90729000Y-80950000D01*
D33*
%TO.N,GNDPWR*%
X85321000Y-91618000D02*
X85649000Y-91618000D01*
D34*
X118589000Y-89638000D02*
X118664000Y-89713000D01*
X118589000Y-87681000D02*
X118589000Y-89638000D01*
X118664000Y-91105000D02*
X118669000Y-91110000D01*
X118664000Y-89713000D02*
X118664000Y-91105000D01*
X118669000Y-92634000D02*
X118669000Y-91110000D01*
X108683000Y-89633000D02*
X108763000Y-89713000D01*
X108683000Y-87681000D02*
X108683000Y-89633000D01*
X108763000Y-89713000D02*
X108763000Y-91110000D01*
X108631000Y-91242000D02*
X108763000Y-91110000D01*
X108631000Y-92634000D02*
X108631000Y-91242000D01*
D35*
X87427000Y-91618000D02*
X85903000Y-91618000D01*
D31*
X85903000Y-91618000D02*
X85649000Y-91618000D01*
D33*
X85321000Y-91618000D02*
X85903000Y-91618000D01*
D36*
X94158000Y-76098000D02*
X94767000Y-76098000D01*
X94767000Y-76098000D02*
X95174000Y-76505000D01*
X95581000Y-76098000D02*
X95174000Y-76505000D01*
X94158000Y-76111000D02*
X94780000Y-76111000D01*
X94780000Y-76111000D02*
X95174000Y-76505000D01*
X96190000Y-76098000D02*
X95581000Y-76098000D01*
X95174000Y-76505000D02*
X95174000Y-80315000D01*
D34*
X99873000Y-91618000D02*
X100587999Y-92332999D01*
X100587999Y-92332999D02*
X100587999Y-93472997D01*
X100960945Y-93845943D02*
X100960945Y-95063065D01*
X99238000Y-91618000D02*
X99873000Y-91618000D01*
X100587999Y-93472997D02*
X100960945Y-93845943D01*
D36*
X93837000Y-93075000D02*
X94158000Y-93396000D01*
X93837000Y-91872000D02*
X93837000Y-93075000D01*
D37*
%TO.N,+5VP*%
X113530000Y-79494000D02*
X113716000Y-79680000D01*
X111557000Y-79494000D02*
X113530000Y-79494000D01*
X123436000Y-79494000D02*
X123622000Y-79680000D01*
X121463000Y-79494000D02*
X123436000Y-79494000D01*
D33*
%TO.N,Net-(D3-Pad2)*%
X111557000Y-76377000D02*
X111937000Y-75997000D01*
X111557000Y-77394000D02*
X111557000Y-76377000D01*
D37*
X112573000Y-75997000D02*
X113716000Y-77140000D01*
X111937000Y-75997000D02*
X112573000Y-75997000D01*
D31*
%TO.N,Net-(D4-Pad2)*%
X123622000Y-77140000D02*
X123114000Y-77140000D01*
D33*
X121463000Y-76377000D02*
X121843000Y-75997000D01*
X121463000Y-77394000D02*
X121463000Y-76377000D01*
D37*
X122479000Y-75997000D02*
X123622000Y-77140000D01*
X121843000Y-75997000D02*
X122479000Y-75997000D01*
D33*
%TO.N,AC*%
X85776000Y-98603000D02*
X85903000Y-98730000D01*
X85321000Y-98603000D02*
X85776000Y-98603000D01*
D35*
X86919000Y-98730000D02*
X85903000Y-98730000D01*
D34*
%TO.N,/Load1N*%
X108556000Y-98142000D02*
X108636000Y-98222000D01*
X108556000Y-94666000D02*
X108556000Y-98142000D01*
%TO.N,/Load2N*%
X118589000Y-98175000D02*
X118542000Y-98222000D01*
X118589000Y-94666000D02*
X118589000Y-98175000D01*
D33*
%TO.N,/scl0*%
X89078000Y-81331000D02*
X89459000Y-80950000D01*
X89078000Y-84049002D02*
X89078000Y-81331000D01*
X87390001Y-85737001D02*
X89078000Y-84049002D01*
X83959001Y-85737001D02*
X87390001Y-85737001D01*
X83109000Y-84887000D02*
X83959001Y-85737001D01*
%TO.N,/sda0*%
X88577001Y-80561999D02*
X89459000Y-79680000D01*
X88577001Y-82085999D02*
X88577001Y-80561999D01*
X87935000Y-82728000D02*
X88577001Y-82085999D01*
X83998000Y-82728000D02*
X87935000Y-82728000D01*
X83109000Y-83617000D02*
X83998000Y-82728000D01*
D31*
%TO.N,Net-(J1-Pad1)*%
X82347000Y-98603000D02*
X81458000Y-97714000D01*
X83871000Y-98603000D02*
X82347000Y-98603000D01*
D38*
%TO.N,+3.3VP*%
X91297046Y-94221500D02*
X91257678Y-94260868D01*
X91300500Y-94221500D02*
X91297046Y-94221500D01*
D33*
X94487000Y-92722000D02*
X95542000Y-93777000D01*
X94487000Y-91872000D02*
X94487000Y-92722000D01*
D38*
X104063000Y-81711000D02*
X104063000Y-81711000D01*
X102413000Y-81711000D02*
X104063000Y-81711000D01*
X101651000Y-82473000D02*
X102413000Y-81711000D01*
X101651000Y-83617000D02*
X101651000Y-82473000D01*
D39*
X95034000Y-94285000D02*
X95542000Y-93777000D01*
X94412000Y-94285000D02*
X95034000Y-94285000D01*
D34*
X99238000Y-93121371D02*
X99287627Y-93071744D01*
X99238000Y-94158000D02*
X99238000Y-93121371D01*
D38*
X104063000Y-81711000D02*
X104064000Y-81712000D01*
D36*
%TO.N,Net-(C5-Pad1)*%
X93974000Y-77832000D02*
X94158000Y-77648000D01*
X93974000Y-80315000D02*
X93974000Y-77832000D01*
X93974000Y-82861000D02*
X94095000Y-82982000D01*
X93974000Y-80315000D02*
X93974000Y-82861000D01*
D33*
%TO.N,/nRst*%
X105079000Y-81077000D02*
X104064000Y-80062000D01*
X105562000Y-81077000D02*
X105079000Y-81077000D01*
X104064000Y-78156000D02*
X103810000Y-77902000D01*
X104064000Y-80062000D02*
X104064000Y-78156000D01*
X97968000Y-87808000D02*
X99238000Y-89078000D01*
X96060500Y-87808000D02*
X97968000Y-87808000D01*
X95137000Y-86884500D02*
X96060500Y-87808000D01*
X95137000Y-86147000D02*
X95137000Y-86884500D01*
X105562000Y-81865000D02*
X105562000Y-81077000D01*
X105080000Y-86284000D02*
X105080000Y-82347000D01*
X105080000Y-82347000D02*
X105562000Y-81865000D01*
X99238000Y-89078000D02*
X102286000Y-89078000D01*
X102286000Y-89078000D02*
X105080000Y-86284000D01*
D34*
%TO.N,Net-(C9-Pad2)*%
X106731000Y-94666000D02*
X106731000Y-92634000D01*
D33*
X104063998Y-92634000D02*
X103571824Y-92141826D01*
X106731000Y-92634000D02*
X104063998Y-92634000D01*
D34*
%TO.N,Net-(C10-Pad1)*%
X106858000Y-87681000D02*
X106858000Y-89708000D01*
D36*
X106863002Y-89712998D02*
X106863013Y-89712998D01*
X106863000Y-89713000D02*
X106863002Y-89712998D01*
D34*
%TO.N,Net-(C11-Pad2)*%
X116769000Y-94661000D02*
X116764000Y-94666000D01*
X116769000Y-92634000D02*
X116769000Y-94661000D01*
D36*
X115626000Y-91491000D02*
X116769000Y-92634000D01*
X112573000Y-91491000D02*
X115626000Y-91491000D01*
X111430000Y-90348000D02*
X112573000Y-91491000D01*
X110286996Y-90348000D02*
X111430000Y-90348000D01*
X110282337Y-90352659D02*
X110286996Y-90348000D01*
D34*
%TO.N,Net-(C12-Pad1)*%
X116764000Y-87681000D02*
X116764000Y-89713000D01*
D33*
%TO.N,/SWDIO*%
X96437000Y-91148086D02*
X96437000Y-91872000D01*
X101938000Y-90348000D02*
X97237086Y-90348000D01*
X97237086Y-90348000D02*
X96437000Y-91148086D01*
%TO.N,/SWCLK*%
X100410009Y-90942999D02*
X98016001Y-90942999D01*
X98016001Y-90942999D02*
X97087000Y-91872000D01*
X101938000Y-92888000D02*
X101408999Y-92358999D01*
X101408999Y-92358999D02*
X101408999Y-91941989D01*
X101408999Y-91941989D02*
X100410009Y-90942999D01*
%TO.N,/L1_o1_nEn*%
X93187000Y-87201679D02*
X92888000Y-87500679D01*
X93187000Y-86147000D02*
X93187000Y-87201679D01*
%TO.N,/L1_o2_nEn*%
X93186500Y-84760000D02*
X93777000Y-84760000D01*
X92537000Y-85409500D02*
X93186500Y-84760000D01*
X92537000Y-86147000D02*
X92537000Y-85409500D01*
%TO.N,/SPI_MOSI*%
X92537000Y-91872000D02*
X92537000Y-90016203D01*
X92537000Y-90016203D02*
X91361034Y-88840237D01*
%TO.N,/SPI_MISO*%
X91887000Y-91872000D02*
X91887000Y-90650949D01*
X91887000Y-90650949D02*
X91764927Y-90528876D01*
%TO.N,/SPI_SCLK*%
X91237000Y-91872000D02*
X90960803Y-91595803D01*
X90960803Y-91595803D02*
X90960803Y-89882612D01*
%TO.N,/SPI_SSEL*%
X91237000Y-86147000D02*
X91237000Y-87206264D01*
X93004535Y-88973799D02*
X94936969Y-88973799D01*
X91237000Y-87206264D02*
X93004535Y-88973799D01*
%TO.N,/Int*%
X101905988Y-87172012D02*
X100662621Y-87172012D01*
X104191000Y-84887000D02*
X101905988Y-87172012D01*
X93837000Y-87427766D02*
X93899241Y-87490007D01*
X93837000Y-86147000D02*
X93837000Y-87427766D01*
%TO.N,Net-(C1-Pad2)*%
X109333500Y-79135500D02*
X109297000Y-79172000D01*
X109333500Y-77521000D02*
X109333500Y-79135500D01*
X108825500Y-77013000D02*
X109333500Y-77521000D01*
X108825500Y-75997000D02*
X108825500Y-77013000D01*
X108825500Y-75997000D02*
X110287000Y-75997000D01*
%TO.N,Net-(C1-Pad1)*%
X107747000Y-77584500D02*
X107683500Y-77521000D01*
X107747000Y-79172000D02*
X107747000Y-77584500D01*
%TO.N,Net-(C2-Pad2)*%
X120193000Y-75997000D02*
X118731500Y-75997000D01*
X118731500Y-77051100D02*
X119239500Y-77559100D01*
X118731500Y-75997000D02*
X118731500Y-77051100D01*
X119239500Y-79135500D02*
X119203000Y-79172000D01*
X119239500Y-77559100D02*
X119239500Y-79135500D01*
%TO.N,Net-(C2-Pad1)*%
X117653000Y-77622600D02*
X117589500Y-77559100D01*
X117653000Y-79172000D02*
X117653000Y-77622600D01*
D31*
%TO.N,+5V*%
X83591000Y-78362000D02*
X84252000Y-77701000D01*
X83591000Y-79426000D02*
X83591000Y-78362000D01*
X81585000Y-79426000D02*
X81458000Y-79553000D01*
X83591000Y-79426000D02*
X81585000Y-79426000D01*
D32*
X76251000Y-79680000D02*
X76251000Y-80950000D01*
X76251000Y-79173998D02*
X76251000Y-79680000D01*
X77014998Y-78410000D02*
X76251000Y-79173998D01*
X80315000Y-78410000D02*
X77014998Y-78410000D01*
X81458000Y-79553000D02*
X80315000Y-78410000D01*
D37*
X76251000Y-81205000D02*
X79425000Y-84379000D01*
X76251000Y-80950000D02*
X76251000Y-81205000D01*
D36*
%TO.N,Net-(C4-Pad1)*%
X96374000Y-77832000D02*
X96190000Y-77648000D01*
X96374000Y-80315000D02*
X96374000Y-77832000D01*
X96437000Y-85131000D02*
X96437000Y-84894000D01*
X96495010Y-82479178D02*
X96374000Y-82358168D01*
X96495010Y-83484822D02*
X96495010Y-82479178D01*
X96374000Y-82358168D02*
X96374000Y-80315000D01*
X96437000Y-83542832D02*
X96495010Y-83484822D01*
X96437000Y-86147000D02*
X96437000Y-83542832D01*
D37*
%TO.N,Net-(C6-Pad2)*%
X84791954Y-76000990D02*
X84252000Y-76000990D01*
X85168964Y-76378000D02*
X84791954Y-76000990D01*
D32*
X87427000Y-76378000D02*
X85168964Y-76378000D01*
D33*
%TO.N,Net-(C17-Pad2)*%
X92279000Y-84252000D02*
X92279000Y-84252000D01*
X92394022Y-84009998D02*
X92279000Y-84125020D01*
X94137002Y-84009998D02*
X92394022Y-84009998D01*
X94527002Y-84399998D02*
X94137002Y-84009998D01*
X94527002Y-86106998D02*
X94527002Y-84399998D01*
X94487000Y-86147000D02*
X94527002Y-86106998D01*
D40*
%TO.N,Net-(J1-Pad3)*%
X81458000Y-92253000D02*
X79172000Y-92253000D01*
X76378000Y-95047000D02*
X76378000Y-98222000D01*
X79172000Y-92253000D02*
X76378000Y-95047000D01*
D35*
X82093000Y-91618000D02*
X81458000Y-92253000D01*
X83871000Y-91618000D02*
X82093000Y-91618000D01*
D32*
%TO.N,Net-(JP6-Pad1)*%
X89332000Y-94158000D02*
X87427000Y-94158000D01*
D36*
%TO.N,Net-(R24-Pad2)*%
X95787000Y-83024000D02*
X95745000Y-82982000D01*
X95787000Y-86147000D02*
X95787000Y-83024000D01*
D33*
%TO.N,Net-(R27-Pad2)*%
X102547989Y-89578011D02*
X106493325Y-85632675D01*
X100883008Y-89578011D02*
X102547989Y-89578011D01*
X100687999Y-89773020D02*
X100883008Y-89578011D01*
X106493325Y-85632675D02*
X107096675Y-85632675D01*
X98137977Y-89773020D02*
X100687999Y-89773020D01*
X97737978Y-89373021D02*
X98137977Y-89773020D01*
%TO.N,Net-(KP1-Pad1)*%
X90302510Y-85059490D02*
X89205000Y-86157000D01*
X91536990Y-85059490D02*
X90302510Y-85059490D01*
X91887000Y-85409500D02*
X91536990Y-85059490D01*
X91887000Y-86147000D02*
X91887000Y-85409500D01*
D32*
%TO.N,Net-(JP5-Pad1)*%
X87690500Y-88824000D02*
X89332000Y-88824000D01*
X87436500Y-89078000D02*
X87690500Y-88824000D01*
D33*
%TO.N,Net-(JP4-Pad2)*%
X102413000Y-78029000D02*
X102540000Y-77902000D01*
X102413000Y-80061000D02*
X102413000Y-78029000D01*
X97087000Y-85387000D02*
X97087000Y-86147000D01*
X102413000Y-80061000D02*
X102413000Y-80458168D01*
X100762000Y-82982000D02*
X98984000Y-84760000D01*
X98984000Y-84760000D02*
X97714000Y-84760000D01*
X97714000Y-84760000D02*
X97087000Y-85387000D01*
X100762000Y-82109168D02*
X102413000Y-80458168D01*
X100762000Y-82982000D02*
X100762000Y-82109168D01*
%TO.N,/I2C_SDA*%
X95787000Y-91872000D02*
X95787000Y-90737410D01*
X95787000Y-90737410D02*
X96069875Y-90454535D01*
%TO.N,/I2C_SCL*%
X102921000Y-84887000D02*
X101396486Y-86411514D01*
X101396486Y-86411514D02*
X99924833Y-86411514D01*
X99924833Y-86411514D02*
X99024357Y-87311990D01*
X95137000Y-91872000D02*
X95137000Y-90608394D01*
X95137000Y-90608394D02*
X95030639Y-90502033D01*
%TO.N,/+5V_valid*%
X93187000Y-91872000D02*
X93187000Y-91065004D01*
X93187000Y-91065004D02*
X93777002Y-90475002D01*
%TD*%
M02*
