%TF.GenerationSoftware,KiCad,Pcbnew,(5.1.10)-1*%
%TF.CreationDate,2022-01-17T02:07:02+07:00*%
%TF.ProjectId,Power_manager_v3,506f7765-725f-46d6-916e-616765725f76,rev?*%
%TF.SameCoordinates,Original*%
%TF.FileFunction,Copper,L4,Bot*%
%TF.FilePolarity,Positive*%
%FSLAX46Y46*%
G04 Gerber Fmt 4.6, Leading zero omitted, Abs format (unit mm)*
G04 Created by KiCad (PCBNEW (5.1.10)-1) date 2022-01-17 02:07:02*
%MOMM*%
%LPD*%
G01*
G04 APERTURE LIST*
%TA.AperFunction,ComponentPad*%
%ADD10C,1.000000*%
%TD*%
%TA.AperFunction,ComponentPad*%
%ADD11R,1.000000X1.000000*%
%TD*%
%TA.AperFunction,ComponentPad*%
%ADD12C,1.600000*%
%TD*%
%TA.AperFunction,ComponentPad*%
%ADD13R,1.600000X1.600000*%
%TD*%
%TA.AperFunction,ComponentPad*%
%ADD14R,2.400000X1.700000*%
%TD*%
%TA.AperFunction,ComponentPad*%
%ADD15O,2.400000X1.700000*%
%TD*%
%TA.AperFunction,ComponentPad*%
%ADD16O,1.700000X1.700000*%
%TD*%
%TA.AperFunction,ComponentPad*%
%ADD17R,1.900000X2.700000*%
%TD*%
%TA.AperFunction,ComponentPad*%
%ADD18O,1.000000X1.000000*%
%TD*%
%TA.AperFunction,ComponentPad*%
%ADD19C,1.500000*%
%TD*%
%TA.AperFunction,ComponentPad*%
%ADD20O,1.600000X1.600000*%
%TD*%
%TA.AperFunction,ComponentPad*%
%ADD21C,2.000000*%
%TD*%
%TA.AperFunction,SMDPad,CuDef*%
%ADD22R,0.400000X3.200000*%
%TD*%
%TA.AperFunction,SMDPad,CuDef*%
%ADD23R,0.400000X1.000000*%
%TD*%
%TA.AperFunction,SMDPad,CuDef*%
%ADD24R,0.800000X0.900000*%
%TD*%
%TA.AperFunction,ComponentPad*%
%ADD25C,1.800000*%
%TD*%
%TA.AperFunction,ComponentPad*%
%ADD26R,1.800000X1.800000*%
%TD*%
%TA.AperFunction,SMDPad,CuDef*%
%ADD27R,1.800000X1.500000*%
%TD*%
%TA.AperFunction,ViaPad*%
%ADD28C,0.800000*%
%TD*%
%TA.AperFunction,ViaPad*%
%ADD29C,1.200000*%
%TD*%
%TA.AperFunction,ViaPad*%
%ADD30C,1.000000*%
%TD*%
%TA.AperFunction,Conductor*%
%ADD31C,1.000000*%
%TD*%
%TA.AperFunction,Conductor*%
%ADD32C,0.800000*%
%TD*%
%TA.AperFunction,Conductor*%
%ADD33C,0.400000*%
%TD*%
%TA.AperFunction,Conductor*%
%ADD34C,1.400000*%
%TD*%
%TA.AperFunction,Conductor*%
%ADD35C,0.250000*%
%TD*%
%TA.AperFunction,Conductor*%
%ADD36C,0.600000*%
%TD*%
%TA.AperFunction,Conductor*%
%ADD37C,0.300000*%
%TD*%
%TA.AperFunction,Conductor*%
%ADD38C,2.000000*%
%TD*%
%TA.AperFunction,Conductor*%
%ADD39C,0.500000*%
%TD*%
G04 APERTURE END LIST*
D10*
%TO.P,U7,B6*%
%TO.N,/Int*%
X104191000Y-84887000D03*
%TO.P,U7,B5*%
%TO.N,/+5V_valid*%
X104191000Y-83617000D03*
%TO.P,U7,B4*%
%TO.N,/I2C_SCL*%
X102921000Y-84887000D03*
%TO.P,U7,B3*%
%TO.N,/I2C_SDA*%
X102921000Y-83617000D03*
%TO.P,U7,B2*%
%TO.N,GNDPWR*%
X101651000Y-84887000D03*
D11*
%TO.P,U7,B1*%
%TO.N,+3.3VP*%
X101651000Y-83617000D03*
D10*
%TO.P,U7,A6*%
%TO.N,GND1*%
X84379000Y-84887000D03*
%TO.P,U7,A5*%
%TO.N,+5P*%
X84379000Y-83617000D03*
%TO.P,U7,A4*%
%TO.N,/scl0*%
X83109000Y-84887000D03*
%TO.P,U7,A3*%
%TO.N,/sda0*%
X83109000Y-83617000D03*
%TO.P,U7,A2*%
%TO.N,/I2C_Int*%
X81839000Y-84887000D03*
D11*
%TO.P,U7,A1*%
%TO.N,/+5V_state*%
X81839000Y-83617000D03*
%TD*%
D12*
%TO.P,U4,7*%
%TO.N,Net-(JP6-Pad1)*%
X87427000Y-94158000D03*
%TO.P,U4,6*%
%TO.N,GNDPWR*%
X87427000Y-91618000D03*
%TO.P,U4,5*%
%TO.N,Net-(JP5-Pad1)*%
X87436500Y-89078000D03*
%TO.P,U4,4*%
%TO.N,/+5V_state*%
X87427000Y-83998000D03*
%TO.P,U4,3*%
%TO.N,+5P*%
X87427000Y-81458000D03*
%TO.P,U4,2*%
%TO.N,GND1*%
X87427000Y-78918000D03*
D13*
%TO.P,U4,1*%
%TO.N,Net-(C6-Pad2)*%
X87427000Y-76378000D03*
%TD*%
D14*
%TO.P,U1,1*%
%TO.N,Net-(J1-Pad1)*%
X81458000Y-97333000D03*
D15*
%TO.P,U1,2*%
%TO.N,Net-(J1-Pad3)*%
X81458000Y-92253000D03*
%TO.P,U1,3*%
%TO.N,+5V*%
X81458000Y-79553000D03*
%TO.P,U1,4*%
%TO.N,GND1*%
X81458000Y-77013000D03*
%TD*%
D16*
%TO.P,J4,3*%
%TO.N,/Load2N*%
X118542000Y-98222000D03*
%TO.P,J4,2*%
%TO.N,N/C*%
X121082000Y-98222000D03*
D17*
%TO.P,J4,1*%
%TO.N,Net-(J4-Pad1)*%
X123622000Y-97714000D03*
%TD*%
D16*
%TO.P,J3,3*%
%TO.N,/Load1N*%
X108636000Y-98222000D03*
%TO.P,J3,2*%
%TO.N,N/C*%
X111176000Y-98222000D03*
D17*
%TO.P,J3,1*%
%TO.N,Net-(J3-Pad1)*%
X113716000Y-97714000D03*
%TD*%
D16*
%TO.P,J1,3*%
%TO.N,Net-(J1-Pad3)*%
X76378000Y-98222000D03*
%TO.P,J1,2*%
%TO.N,N/C*%
X78918000Y-98222000D03*
D17*
%TO.P,J1,1*%
%TO.N,Net-(J1-Pad1)*%
X81458000Y-97714000D03*
%TD*%
D18*
%TO.P,JP4,4*%
%TO.N,/nRst*%
X103810000Y-77902000D03*
%TO.P,JP4,3*%
%TO.N,GNDPWR*%
X103810000Y-76632000D03*
%TO.P,JP4,2*%
%TO.N,Net-(JP4-Pad2)*%
X102540000Y-77902000D03*
D11*
%TO.P,JP4,1*%
%TO.N,GNDPWR*%
X102540000Y-76632000D03*
%TD*%
D18*
%TO.P,J6,6*%
%TO.N,/sda0*%
X89459000Y-79680000D03*
%TO.P,J6,5*%
%TO.N,/scl0*%
X89459000Y-80950000D03*
%TO.P,J6,4*%
%TO.N,GND1*%
X90729000Y-79680000D03*
%TO.P,J6,3*%
X90729000Y-80950000D03*
%TO.P,J6,2*%
%TO.N,/I2C_Int*%
X91999000Y-79680000D03*
D11*
%TO.P,J6,1*%
%TO.N,/+5V_state*%
X91999000Y-80950000D03*
%TD*%
D19*
%TO.P,KP1,1*%
%TO.N,Net-(KP1-Pad1)*%
X89205000Y-86157000D03*
%TD*%
D20*
%TO.P,F1,2*%
%TO.N,Net-(F1-Pad2)*%
X112700000Y-85522000D03*
D12*
%TO.P,F1,1*%
%TO.N,AC*%
X112700000Y-93142000D03*
%TD*%
%TO.P,R27,2*%
%TO.N,Net-(R27-Pad2)*%
%TA.AperFunction,SMDPad,CuDef*%
G36*
G01*
X106837000Y-85248000D02*
X107387000Y-85248000D01*
G75*
G02*
X107587000Y-85448000I0J-200000D01*
G01*
X107587000Y-85848000D01*
G75*
G02*
X107387000Y-86048000I-200000J0D01*
G01*
X106837000Y-86048000D01*
G75*
G02*
X106637000Y-85848000I0J200000D01*
G01*
X106637000Y-85448000D01*
G75*
G02*
X106837000Y-85248000I200000J0D01*
G01*
G37*
%TD.AperFunction*%
%TO.P,R27,1*%
%TO.N,+3.3VP*%
%TA.AperFunction,SMDPad,CuDef*%
G36*
G01*
X106837000Y-83598000D02*
X107387000Y-83598000D01*
G75*
G02*
X107587000Y-83798000I0J-200000D01*
G01*
X107587000Y-84198000D01*
G75*
G02*
X107387000Y-84398000I-200000J0D01*
G01*
X106837000Y-84398000D01*
G75*
G02*
X106637000Y-84198000I0J200000D01*
G01*
X106637000Y-83798000D01*
G75*
G02*
X106837000Y-83598000I200000J0D01*
G01*
G37*
%TD.AperFunction*%
%TD*%
%TO.P,L1,2*%
%TO.N,Net-(C17-Pad2)*%
%TA.AperFunction,SMDPad,CuDef*%
G36*
G01*
X92549500Y-94735001D02*
X92549500Y-93834999D01*
G75*
G02*
X92799499Y-93585000I249999J0D01*
G01*
X93324501Y-93585000D01*
G75*
G02*
X93574500Y-93834999I0J-249999D01*
G01*
X93574500Y-94735001D01*
G75*
G02*
X93324501Y-94985000I-249999J0D01*
G01*
X92799499Y-94985000D01*
G75*
G02*
X92549500Y-94735001I0J249999D01*
G01*
G37*
%TD.AperFunction*%
%TO.P,L1,1*%
%TO.N,+3.3VP*%
%TA.AperFunction,SMDPad,CuDef*%
G36*
G01*
X90724500Y-94735001D02*
X90724500Y-93834999D01*
G75*
G02*
X90974499Y-93585000I249999J0D01*
G01*
X91499501Y-93585000D01*
G75*
G02*
X91749500Y-93834999I0J-249999D01*
G01*
X91749500Y-94735001D01*
G75*
G02*
X91499501Y-94985000I-249999J0D01*
G01*
X90974499Y-94985000D01*
G75*
G02*
X90724500Y-94735001I0J249999D01*
G01*
G37*
%TD.AperFunction*%
%TD*%
%TO.P,C16,2*%
%TO.N,+3.3VP*%
%TA.AperFunction,SMDPad,CuDef*%
G36*
G01*
X102036000Y-87384000D02*
X102536000Y-87384000D01*
G75*
G02*
X102761000Y-87609000I0J-225000D01*
G01*
X102761000Y-88059000D01*
G75*
G02*
X102536000Y-88284000I-225000J0D01*
G01*
X102036000Y-88284000D01*
G75*
G02*
X101811000Y-88059000I0J225000D01*
G01*
X101811000Y-87609000D01*
G75*
G02*
X102036000Y-87384000I225000J0D01*
G01*
G37*
%TD.AperFunction*%
%TO.P,C16,1*%
%TO.N,GNDPWR*%
%TA.AperFunction,SMDPad,CuDef*%
G36*
G01*
X102036000Y-85834000D02*
X102536000Y-85834000D01*
G75*
G02*
X102761000Y-86059000I0J-225000D01*
G01*
X102761000Y-86509000D01*
G75*
G02*
X102536000Y-86734000I-225000J0D01*
G01*
X102036000Y-86734000D01*
G75*
G02*
X101811000Y-86509000I0J225000D01*
G01*
X101811000Y-86059000D01*
G75*
G02*
X102036000Y-85834000I225000J0D01*
G01*
G37*
%TD.AperFunction*%
%TD*%
%TO.P,C14,2*%
%TO.N,Net-(C14-Pad2)*%
%TA.AperFunction,SMDPad,CuDef*%
G36*
G01*
X95979000Y-93527000D02*
X95979000Y-94027000D01*
G75*
G02*
X95754000Y-94252000I-225000J0D01*
G01*
X95304000Y-94252000D01*
G75*
G02*
X95079000Y-94027000I0J225000D01*
G01*
X95079000Y-93527000D01*
G75*
G02*
X95304000Y-93302000I225000J0D01*
G01*
X95754000Y-93302000D01*
G75*
G02*
X95979000Y-93527000I0J-225000D01*
G01*
G37*
%TD.AperFunction*%
%TO.P,C14,1*%
%TO.N,GNDPWR*%
%TA.AperFunction,SMDPad,CuDef*%
G36*
G01*
X97529000Y-93527000D02*
X97529000Y-94027000D01*
G75*
G02*
X97304000Y-94252000I-225000J0D01*
G01*
X96854000Y-94252000D01*
G75*
G02*
X96629000Y-94027000I0J225000D01*
G01*
X96629000Y-93527000D01*
G75*
G02*
X96854000Y-93302000I225000J0D01*
G01*
X97304000Y-93302000D01*
G75*
G02*
X97529000Y-93527000I0J-225000D01*
G01*
G37*
%TD.AperFunction*%
%TD*%
D21*
%TO.P,GND1,1*%
%TO.N,GND1*%
X78537000Y-86665000D03*
%TD*%
D22*
%TO.P,Y2,3*%
%TO.N,N/C*%
X99930000Y-80315000D03*
%TO.P,Y2,2*%
%TO.N,Net-(C18-Pad2)*%
X98730000Y-80315000D03*
%TO.P,Y2,1*%
%TO.N,Net-(C19-Pad2)*%
X97530000Y-80315000D03*
%TD*%
D23*
%TO.P,U6,16*%
%TO.N,+3.3VP*%
X100807000Y-86072000D03*
%TO.P,U6,15*%
%TO.N,/Int*%
X100157000Y-86072000D03*
%TO.P,U6,14*%
%TO.N,Net-(R26-Pad1)*%
X99507000Y-86072000D03*
%TO.P,U6,13*%
%TO.N,Net-(C18-Pad2)*%
X98857000Y-86072000D03*
%TO.P,U6,12*%
%TO.N,Net-(R27-Pad2)*%
X98207000Y-86072000D03*
%TO.P,U6,11*%
%TO.N,/SPI_SSEL*%
X97557000Y-86072000D03*
%TO.P,U6,10*%
%TO.N,/SPI_SCLK*%
X96907000Y-86072000D03*
%TO.P,U6,9*%
%TO.N,/SPI_MOSI*%
X96257000Y-86072000D03*
%TO.P,U6,8*%
%TO.N,/SPI_MISO*%
X96257000Y-91872000D03*
%TO.P,U6,7*%
%TO.N,Net-(C14-Pad2)*%
X96907000Y-91872000D03*
%TO.P,U6,6*%
%TO.N,GNDPWR*%
X97557000Y-91872000D03*
%TO.P,U6,5*%
%TO.N,Net-(C13-Pad2)*%
X98207000Y-91872000D03*
%TO.P,U6,4*%
%TO.N,Net-(C12-Pad1)*%
X98857000Y-91872000D03*
%TO.P,U6,3*%
%TO.N,Net-(C11-Pad2)*%
X99507000Y-91872000D03*
%TO.P,U6,2*%
%TO.N,Net-(C10-Pad1)*%
X100157000Y-91872000D03*
%TO.P,U6,1*%
%TO.N,Net-(C9-Pad2)*%
X100807000Y-91872000D03*
%TD*%
%TO.P,R26,2*%
%TO.N,Net-(C19-Pad2)*%
%TA.AperFunction,SMDPad,CuDef*%
G36*
G01*
X98368000Y-82707000D02*
X98368000Y-83257000D01*
G75*
G02*
X98168000Y-83457000I-200000J0D01*
G01*
X97768000Y-83457000D01*
G75*
G02*
X97568000Y-83257000I0J200000D01*
G01*
X97568000Y-82707000D01*
G75*
G02*
X97768000Y-82507000I200000J0D01*
G01*
X98168000Y-82507000D01*
G75*
G02*
X98368000Y-82707000I0J-200000D01*
G01*
G37*
%TD.AperFunction*%
%TO.P,R26,1*%
%TO.N,Net-(R26-Pad1)*%
%TA.AperFunction,SMDPad,CuDef*%
G36*
G01*
X100018000Y-82707000D02*
X100018000Y-83257000D01*
G75*
G02*
X99818000Y-83457000I-200000J0D01*
G01*
X99418000Y-83457000D01*
G75*
G02*
X99218000Y-83257000I0J200000D01*
G01*
X99218000Y-82707000D01*
G75*
G02*
X99418000Y-82507000I200000J0D01*
G01*
X99818000Y-82507000D01*
G75*
G02*
X100018000Y-82707000I0J-200000D01*
G01*
G37*
%TD.AperFunction*%
%TD*%
%TO.P,R22,2*%
%TO.N,GNDPWR*%
%TA.AperFunction,SMDPad,CuDef*%
G36*
G01*
X100503500Y-97148001D02*
X100503500Y-96247999D01*
G75*
G02*
X100753499Y-95998000I249999J0D01*
G01*
X101278501Y-95998000D01*
G75*
G02*
X101528500Y-96247999I0J-249999D01*
G01*
X101528500Y-97148001D01*
G75*
G02*
X101278501Y-97398000I-249999J0D01*
G01*
X100753499Y-97398000D01*
G75*
G02*
X100503500Y-97148001I0J249999D01*
G01*
G37*
%TD.AperFunction*%
%TO.P,R22,1*%
%TO.N,Net-(C13-Pad2)*%
%TA.AperFunction,SMDPad,CuDef*%
G36*
G01*
X98678500Y-97148001D02*
X98678500Y-96247999D01*
G75*
G02*
X98928499Y-95998000I249999J0D01*
G01*
X99453501Y-95998000D01*
G75*
G02*
X99703500Y-96247999I0J-249999D01*
G01*
X99703500Y-97148001D01*
G75*
G02*
X99453501Y-97398000I-249999J0D01*
G01*
X98928499Y-97398000D01*
G75*
G02*
X98678500Y-97148001I0J249999D01*
G01*
G37*
%TD.AperFunction*%
%TD*%
%TO.P,R17,2*%
%TO.N,Net-(R11-Pad1)*%
%TA.AperFunction,SMDPad,CuDef*%
G36*
G01*
X96067500Y-96247999D02*
X96067500Y-97148001D01*
G75*
G02*
X95817501Y-97398000I-249999J0D01*
G01*
X95292499Y-97398000D01*
G75*
G02*
X95042500Y-97148001I0J249999D01*
G01*
X95042500Y-96247999D01*
G75*
G02*
X95292499Y-95998000I249999J0D01*
G01*
X95817501Y-95998000D01*
G75*
G02*
X96067500Y-96247999I0J-249999D01*
G01*
G37*
%TD.AperFunction*%
%TO.P,R17,1*%
%TO.N,Net-(C13-Pad2)*%
%TA.AperFunction,SMDPad,CuDef*%
G36*
G01*
X97892500Y-96247999D02*
X97892500Y-97148001D01*
G75*
G02*
X97642501Y-97398000I-249999J0D01*
G01*
X97117499Y-97398000D01*
G75*
G02*
X96867500Y-97148001I0J249999D01*
G01*
X96867500Y-96247999D01*
G75*
G02*
X97117499Y-95998000I249999J0D01*
G01*
X97642501Y-95998000D01*
G75*
G02*
X97892500Y-96247999I0J-249999D01*
G01*
G37*
%TD.AperFunction*%
%TD*%
%TO.P,R12,2*%
%TO.N,AC*%
%TA.AperFunction,SMDPad,CuDef*%
G36*
G01*
X88955500Y-98279999D02*
X88955500Y-99180001D01*
G75*
G02*
X88705501Y-99430000I-249999J0D01*
G01*
X88180499Y-99430000D01*
G75*
G02*
X87930500Y-99180001I0J249999D01*
G01*
X87930500Y-98279999D01*
G75*
G02*
X88180499Y-98030000I249999J0D01*
G01*
X88705501Y-98030000D01*
G75*
G02*
X88955500Y-98279999I0J-249999D01*
G01*
G37*
%TD.AperFunction*%
%TO.P,R12,1*%
%TO.N,Net-(R11-Pad2)*%
%TA.AperFunction,SMDPad,CuDef*%
G36*
G01*
X90780500Y-98279999D02*
X90780500Y-99180001D01*
G75*
G02*
X90530501Y-99430000I-249999J0D01*
G01*
X90005499Y-99430000D01*
G75*
G02*
X89755500Y-99180001I0J249999D01*
G01*
X89755500Y-98279999D01*
G75*
G02*
X90005499Y-98030000I249999J0D01*
G01*
X90530501Y-98030000D01*
G75*
G02*
X90780500Y-98279999I0J-249999D01*
G01*
G37*
%TD.AperFunction*%
%TD*%
%TO.P,R11,2*%
%TO.N,Net-(R11-Pad2)*%
%TA.AperFunction,SMDPad,CuDef*%
G36*
G01*
X92511500Y-97009999D02*
X92511500Y-97910001D01*
G75*
G02*
X92261501Y-98160000I-249999J0D01*
G01*
X91736499Y-98160000D01*
G75*
G02*
X91486500Y-97910001I0J249999D01*
G01*
X91486500Y-97009999D01*
G75*
G02*
X91736499Y-96760000I249999J0D01*
G01*
X92261501Y-96760000D01*
G75*
G02*
X92511500Y-97009999I0J-249999D01*
G01*
G37*
%TD.AperFunction*%
%TO.P,R11,1*%
%TO.N,Net-(R11-Pad1)*%
%TA.AperFunction,SMDPad,CuDef*%
G36*
G01*
X94336500Y-97009999D02*
X94336500Y-97910001D01*
G75*
G02*
X94086501Y-98160000I-249999J0D01*
G01*
X93561499Y-98160000D01*
G75*
G02*
X93311500Y-97910001I0J249999D01*
G01*
X93311500Y-97009999D01*
G75*
G02*
X93561499Y-96760000I249999J0D01*
G01*
X94086501Y-96760000D01*
G75*
G02*
X94336500Y-97009999I0J-249999D01*
G01*
G37*
%TD.AperFunction*%
%TD*%
%TO.P,R7,2*%
%TO.N,GNDPWR*%
%TA.AperFunction,SMDPad,CuDef*%
G36*
G01*
X107513000Y-80802000D02*
X107513000Y-81352000D01*
G75*
G02*
X107313000Y-81552000I-200000J0D01*
G01*
X106913000Y-81552000D01*
G75*
G02*
X106713000Y-81352000I0J200000D01*
G01*
X106713000Y-80802000D01*
G75*
G02*
X106913000Y-80602000I200000J0D01*
G01*
X107313000Y-80602000D01*
G75*
G02*
X107513000Y-80802000I0J-200000D01*
G01*
G37*
%TD.AperFunction*%
%TO.P,R7,1*%
%TO.N,Net-(Q1-Pad1)*%
%TA.AperFunction,SMDPad,CuDef*%
G36*
G01*
X109163000Y-80802000D02*
X109163000Y-81352000D01*
G75*
G02*
X108963000Y-81552000I-200000J0D01*
G01*
X108563000Y-81552000D01*
G75*
G02*
X108363000Y-81352000I0J200000D01*
G01*
X108363000Y-80802000D01*
G75*
G02*
X108563000Y-80602000I200000J0D01*
G01*
X108963000Y-80602000D01*
G75*
G02*
X109163000Y-80802000I0J-200000D01*
G01*
G37*
%TD.AperFunction*%
%TD*%
%TO.P,R3,2*%
%TO.N,/L1_o1_nEn*%
%TA.AperFunction,SMDPad,CuDef*%
G36*
G01*
X107513000Y-82326000D02*
X107513000Y-82876000D01*
G75*
G02*
X107313000Y-83076000I-200000J0D01*
G01*
X106913000Y-83076000D01*
G75*
G02*
X106713000Y-82876000I0J200000D01*
G01*
X106713000Y-82326000D01*
G75*
G02*
X106913000Y-82126000I200000J0D01*
G01*
X107313000Y-82126000D01*
G75*
G02*
X107513000Y-82326000I0J-200000D01*
G01*
G37*
%TD.AperFunction*%
%TO.P,R3,1*%
%TO.N,Net-(Q1-Pad1)*%
%TA.AperFunction,SMDPad,CuDef*%
G36*
G01*
X109163000Y-82326000D02*
X109163000Y-82876000D01*
G75*
G02*
X108963000Y-83076000I-200000J0D01*
G01*
X108563000Y-83076000D01*
G75*
G02*
X108363000Y-82876000I0J200000D01*
G01*
X108363000Y-82326000D01*
G75*
G02*
X108563000Y-82126000I200000J0D01*
G01*
X108963000Y-82126000D01*
G75*
G02*
X109163000Y-82326000I0J-200000D01*
G01*
G37*
%TD.AperFunction*%
%TD*%
D24*
%TO.P,Q1,3*%
%TO.N,Net-(C1-Pad1)*%
X107686000Y-77521000D03*
%TO.P,Q1,2*%
%TO.N,GNDPWR*%
X106736000Y-79521000D03*
%TO.P,Q1,1*%
%TO.N,Net-(Q1-Pad1)*%
X108636000Y-79521000D03*
%TD*%
%TO.P,C19,2*%
%TO.N,Net-(C19-Pad2)*%
%TA.AperFunction,SMDPad,CuDef*%
G36*
G01*
X97464000Y-77198000D02*
X97964000Y-77198000D01*
G75*
G02*
X98189000Y-77423000I0J-225000D01*
G01*
X98189000Y-77873000D01*
G75*
G02*
X97964000Y-78098000I-225000J0D01*
G01*
X97464000Y-78098000D01*
G75*
G02*
X97239000Y-77873000I0J225000D01*
G01*
X97239000Y-77423000D01*
G75*
G02*
X97464000Y-77198000I225000J0D01*
G01*
G37*
%TD.AperFunction*%
%TO.P,C19,1*%
%TO.N,GNDPWR*%
%TA.AperFunction,SMDPad,CuDef*%
G36*
G01*
X97464000Y-75648000D02*
X97964000Y-75648000D01*
G75*
G02*
X98189000Y-75873000I0J-225000D01*
G01*
X98189000Y-76323000D01*
G75*
G02*
X97964000Y-76548000I-225000J0D01*
G01*
X97464000Y-76548000D01*
G75*
G02*
X97239000Y-76323000I0J225000D01*
G01*
X97239000Y-75873000D01*
G75*
G02*
X97464000Y-75648000I225000J0D01*
G01*
G37*
%TD.AperFunction*%
%TD*%
%TO.P,C18,2*%
%TO.N,Net-(C18-Pad2)*%
%TA.AperFunction,SMDPad,CuDef*%
G36*
G01*
X99496000Y-77198000D02*
X99996000Y-77198000D01*
G75*
G02*
X100221000Y-77423000I0J-225000D01*
G01*
X100221000Y-77873000D01*
G75*
G02*
X99996000Y-78098000I-225000J0D01*
G01*
X99496000Y-78098000D01*
G75*
G02*
X99271000Y-77873000I0J225000D01*
G01*
X99271000Y-77423000D01*
G75*
G02*
X99496000Y-77198000I225000J0D01*
G01*
G37*
%TD.AperFunction*%
%TO.P,C18,1*%
%TO.N,GNDPWR*%
%TA.AperFunction,SMDPad,CuDef*%
G36*
G01*
X99496000Y-75648000D02*
X99996000Y-75648000D01*
G75*
G02*
X100221000Y-75873000I0J-225000D01*
G01*
X100221000Y-76323000D01*
G75*
G02*
X99996000Y-76548000I-225000J0D01*
G01*
X99496000Y-76548000D01*
G75*
G02*
X99271000Y-76323000I0J225000D01*
G01*
X99271000Y-75873000D01*
G75*
G02*
X99496000Y-75648000I225000J0D01*
G01*
G37*
%TD.AperFunction*%
%TD*%
%TO.P,C13,2*%
%TO.N,Net-(C13-Pad2)*%
%TA.AperFunction,SMDPad,CuDef*%
G36*
G01*
X99616000Y-94064000D02*
X99616000Y-95014000D01*
G75*
G02*
X99366000Y-95264000I-250000J0D01*
G01*
X98866000Y-95264000D01*
G75*
G02*
X98616000Y-95014000I0J250000D01*
G01*
X98616000Y-94064000D01*
G75*
G02*
X98866000Y-93814000I250000J0D01*
G01*
X99366000Y-93814000D01*
G75*
G02*
X99616000Y-94064000I0J-250000D01*
G01*
G37*
%TD.AperFunction*%
%TO.P,C13,1*%
%TO.N,GNDPWR*%
%TA.AperFunction,SMDPad,CuDef*%
G36*
G01*
X101516000Y-94064000D02*
X101516000Y-95014000D01*
G75*
G02*
X101266000Y-95264000I-250000J0D01*
G01*
X100766000Y-95264000D01*
G75*
G02*
X100516000Y-95014000I0J250000D01*
G01*
X100516000Y-94064000D01*
G75*
G02*
X100766000Y-93814000I250000J0D01*
G01*
X101266000Y-93814000D01*
G75*
G02*
X101516000Y-94064000I0J-250000D01*
G01*
G37*
%TD.AperFunction*%
%TD*%
%TO.P,C8,2*%
%TO.N,Net-(C6-Pad2)*%
%TA.AperFunction,SMDPad,CuDef*%
G36*
G01*
X83968000Y-77437000D02*
X83468000Y-77437000D01*
G75*
G02*
X83243000Y-77212000I0J225000D01*
G01*
X83243000Y-76762000D01*
G75*
G02*
X83468000Y-76537000I225000J0D01*
G01*
X83968000Y-76537000D01*
G75*
G02*
X84193000Y-76762000I0J-225000D01*
G01*
X84193000Y-77212000D01*
G75*
G02*
X83968000Y-77437000I-225000J0D01*
G01*
G37*
%TD.AperFunction*%
%TO.P,C8,1*%
%TO.N,GND1*%
%TA.AperFunction,SMDPad,CuDef*%
G36*
G01*
X83968000Y-78987000D02*
X83468000Y-78987000D01*
G75*
G02*
X83243000Y-78762000I0J225000D01*
G01*
X83243000Y-78312000D01*
G75*
G02*
X83468000Y-78087000I225000J0D01*
G01*
X83968000Y-78087000D01*
G75*
G02*
X84193000Y-78312000I0J-225000D01*
G01*
X84193000Y-78762000D01*
G75*
G02*
X83968000Y-78987000I-225000J0D01*
G01*
G37*
%TD.AperFunction*%
%TD*%
%TO.P,C6,2*%
%TO.N,Net-(C6-Pad2)*%
%TA.AperFunction,SMDPad,CuDef*%
G36*
G01*
X85518000Y-77437000D02*
X85018000Y-77437000D01*
G75*
G02*
X84793000Y-77212000I0J225000D01*
G01*
X84793000Y-76762000D01*
G75*
G02*
X85018000Y-76537000I225000J0D01*
G01*
X85518000Y-76537000D01*
G75*
G02*
X85743000Y-76762000I0J-225000D01*
G01*
X85743000Y-77212000D01*
G75*
G02*
X85518000Y-77437000I-225000J0D01*
G01*
G37*
%TD.AperFunction*%
%TO.P,C6,1*%
%TO.N,GND1*%
%TA.AperFunction,SMDPad,CuDef*%
G36*
G01*
X85518000Y-78987000D02*
X85018000Y-78987000D01*
G75*
G02*
X84793000Y-78762000I0J225000D01*
G01*
X84793000Y-78312000D01*
G75*
G02*
X85018000Y-78087000I225000J0D01*
G01*
X85518000Y-78087000D01*
G75*
G02*
X85743000Y-78312000I0J-225000D01*
G01*
X85743000Y-78762000D01*
G75*
G02*
X85518000Y-78987000I-225000J0D01*
G01*
G37*
%TD.AperFunction*%
%TD*%
%TO.P,R4,2*%
%TO.N,/L1_o2_nEn*%
%TA.AperFunction,SMDPad,CuDef*%
G36*
G01*
X117419000Y-82326000D02*
X117419000Y-82876000D01*
G75*
G02*
X117219000Y-83076000I-200000J0D01*
G01*
X116819000Y-83076000D01*
G75*
G02*
X116619000Y-82876000I0J200000D01*
G01*
X116619000Y-82326000D01*
G75*
G02*
X116819000Y-82126000I200000J0D01*
G01*
X117219000Y-82126000D01*
G75*
G02*
X117419000Y-82326000I0J-200000D01*
G01*
G37*
%TD.AperFunction*%
%TO.P,R4,1*%
%TO.N,Net-(Q2-Pad1)*%
%TA.AperFunction,SMDPad,CuDef*%
G36*
G01*
X119069000Y-82326000D02*
X119069000Y-82876000D01*
G75*
G02*
X118869000Y-83076000I-200000J0D01*
G01*
X118469000Y-83076000D01*
G75*
G02*
X118269000Y-82876000I0J200000D01*
G01*
X118269000Y-82326000D01*
G75*
G02*
X118469000Y-82126000I200000J0D01*
G01*
X118869000Y-82126000D01*
G75*
G02*
X119069000Y-82326000I0J-200000D01*
G01*
G37*
%TD.AperFunction*%
%TD*%
%TO.P,R10,2*%
%TO.N,GNDPWR*%
%TA.AperFunction,SMDPad,CuDef*%
G36*
G01*
X117419000Y-80802000D02*
X117419000Y-81352000D01*
G75*
G02*
X117219000Y-81552000I-200000J0D01*
G01*
X116819000Y-81552000D01*
G75*
G02*
X116619000Y-81352000I0J200000D01*
G01*
X116619000Y-80802000D01*
G75*
G02*
X116819000Y-80602000I200000J0D01*
G01*
X117219000Y-80602000D01*
G75*
G02*
X117419000Y-80802000I0J-200000D01*
G01*
G37*
%TD.AperFunction*%
%TO.P,R10,1*%
%TO.N,Net-(Q2-Pad1)*%
%TA.AperFunction,SMDPad,CuDef*%
G36*
G01*
X119069000Y-80802000D02*
X119069000Y-81352000D01*
G75*
G02*
X118869000Y-81552000I-200000J0D01*
G01*
X118469000Y-81552000D01*
G75*
G02*
X118269000Y-81352000I0J200000D01*
G01*
X118269000Y-80802000D01*
G75*
G02*
X118469000Y-80602000I200000J0D01*
G01*
X118869000Y-80602000D01*
G75*
G02*
X119069000Y-80802000I0J-200000D01*
G01*
G37*
%TD.AperFunction*%
%TD*%
%TO.P,Q2,3*%
%TO.N,Net-(C2-Pad1)*%
X117592000Y-77553000D03*
%TO.P,Q2,2*%
%TO.N,GNDPWR*%
X116642000Y-79553000D03*
%TO.P,Q2,1*%
%TO.N,Net-(Q2-Pad1)*%
X118542000Y-79553000D03*
%TD*%
%TO.P,R14,2*%
%TO.N,+3.3VP*%
%TA.AperFunction,SMDPad,CuDef*%
G36*
G01*
X79153000Y-90496000D02*
X79153000Y-89946000D01*
G75*
G02*
X79353000Y-89746000I200000J0D01*
G01*
X79753000Y-89746000D01*
G75*
G02*
X79953000Y-89946000I0J-200000D01*
G01*
X79953000Y-90496000D01*
G75*
G02*
X79753000Y-90696000I-200000J0D01*
G01*
X79353000Y-90696000D01*
G75*
G02*
X79153000Y-90496000I0J200000D01*
G01*
G37*
%TD.AperFunction*%
%TO.P,R14,1*%
%TO.N,Net-(D6-Pad2)*%
%TA.AperFunction,SMDPad,CuDef*%
G36*
G01*
X77503000Y-90496000D02*
X77503000Y-89946000D01*
G75*
G02*
X77703000Y-89746000I200000J0D01*
G01*
X78103000Y-89746000D01*
G75*
G02*
X78303000Y-89946000I0J-200000D01*
G01*
X78303000Y-90496000D01*
G75*
G02*
X78103000Y-90696000I-200000J0D01*
G01*
X77703000Y-90696000D01*
G75*
G02*
X77503000Y-90496000I0J200000D01*
G01*
G37*
%TD.AperFunction*%
%TD*%
%TO.P,D6,2*%
%TO.N,Net-(D6-Pad2)*%
%TA.AperFunction,SMDPad,CuDef*%
G36*
G01*
X75867750Y-89834500D02*
X76380250Y-89834500D01*
G75*
G02*
X76599000Y-90053250I0J-218750D01*
G01*
X76599000Y-90490750D01*
G75*
G02*
X76380250Y-90709500I-218750J0D01*
G01*
X75867750Y-90709500D01*
G75*
G02*
X75649000Y-90490750I0J218750D01*
G01*
X75649000Y-90053250D01*
G75*
G02*
X75867750Y-89834500I218750J0D01*
G01*
G37*
%TD.AperFunction*%
%TO.P,D6,1*%
%TO.N,GNDPWR*%
%TA.AperFunction,SMDPad,CuDef*%
G36*
G01*
X75867750Y-88259500D02*
X76380250Y-88259500D01*
G75*
G02*
X76599000Y-88478250I0J-218750D01*
G01*
X76599000Y-88915750D01*
G75*
G02*
X76380250Y-89134500I-218750J0D01*
G01*
X75867750Y-89134500D01*
G75*
G02*
X75649000Y-88915750I0J218750D01*
G01*
X75649000Y-88478250D01*
G75*
G02*
X75867750Y-88259500I218750J0D01*
G01*
G37*
%TD.AperFunction*%
%TD*%
D25*
%TO.P,U2,4*%
%TO.N,Net-(D3-Pad2)*%
X113716000Y-77140000D03*
%TO.P,U2,3*%
%TO.N,+5VP*%
X113716000Y-79680000D03*
%TO.P,U2,2*%
%TO.N,Net-(F1-Pad2)*%
X113716000Y-89840000D03*
D26*
%TO.P,U2,1*%
%TO.N,Net-(J3-Pad1)*%
X113716000Y-97460000D03*
%TD*%
D27*
%TO.P,R16,2*%
%TO.N,GNDPWR*%
X118161000Y-91872000D03*
%TO.P,R16,1*%
%TO.N,/Load2N*%
X118161000Y-94872000D03*
%TD*%
%TO.P,R15,2*%
%TO.N,GNDPWR*%
X108382000Y-91872000D03*
%TO.P,R15,1*%
%TO.N,/Load1N*%
X108382000Y-94872000D03*
%TD*%
%TO.P,D2,2*%
%TO.N,+5VP*%
%TA.AperFunction,SMDPad,CuDef*%
G36*
G01*
X118219000Y-76253250D02*
X118219000Y-75740750D01*
G75*
G02*
X118437750Y-75522000I218750J0D01*
G01*
X118875250Y-75522000D01*
G75*
G02*
X119094000Y-75740750I0J-218750D01*
G01*
X119094000Y-76253250D01*
G75*
G02*
X118875250Y-76472000I-218750J0D01*
G01*
X118437750Y-76472000D01*
G75*
G02*
X118219000Y-76253250I0J218750D01*
G01*
G37*
%TD.AperFunction*%
%TO.P,D2,1*%
%TO.N,Net-(D2-Pad1)*%
%TA.AperFunction,SMDPad,CuDef*%
G36*
G01*
X116644000Y-76253250D02*
X116644000Y-75740750D01*
G75*
G02*
X116862750Y-75522000I218750J0D01*
G01*
X117300250Y-75522000D01*
G75*
G02*
X117519000Y-75740750I0J-218750D01*
G01*
X117519000Y-76253250D01*
G75*
G02*
X117300250Y-76472000I-218750J0D01*
G01*
X116862750Y-76472000D01*
G75*
G02*
X116644000Y-76253250I0J218750D01*
G01*
G37*
%TD.AperFunction*%
%TD*%
%TO.P,D1,2*%
%TO.N,+5VP*%
%TA.AperFunction,SMDPad,CuDef*%
G36*
G01*
X108313000Y-76253250D02*
X108313000Y-75740750D01*
G75*
G02*
X108531750Y-75522000I218750J0D01*
G01*
X108969250Y-75522000D01*
G75*
G02*
X109188000Y-75740750I0J-218750D01*
G01*
X109188000Y-76253250D01*
G75*
G02*
X108969250Y-76472000I-218750J0D01*
G01*
X108531750Y-76472000D01*
G75*
G02*
X108313000Y-76253250I0J218750D01*
G01*
G37*
%TD.AperFunction*%
%TO.P,D1,1*%
%TO.N,Net-(D1-Pad1)*%
%TA.AperFunction,SMDPad,CuDef*%
G36*
G01*
X106738000Y-76253250D02*
X106738000Y-75740750D01*
G75*
G02*
X106956750Y-75522000I218750J0D01*
G01*
X107394250Y-75522000D01*
G75*
G02*
X107613000Y-75740750I0J-218750D01*
G01*
X107613000Y-76253250D01*
G75*
G02*
X107394250Y-76472000I-218750J0D01*
G01*
X106956750Y-76472000D01*
G75*
G02*
X106738000Y-76253250I0J218750D01*
G01*
G37*
%TD.AperFunction*%
%TD*%
%TO.P,R13,2*%
%TO.N,+5V*%
%TA.AperFunction,SMDPad,CuDef*%
G36*
G01*
X79025000Y-84654000D02*
X79025000Y-84104000D01*
G75*
G02*
X79225000Y-83904000I200000J0D01*
G01*
X79625000Y-83904000D01*
G75*
G02*
X79825000Y-84104000I0J-200000D01*
G01*
X79825000Y-84654000D01*
G75*
G02*
X79625000Y-84854000I-200000J0D01*
G01*
X79225000Y-84854000D01*
G75*
G02*
X79025000Y-84654000I0J200000D01*
G01*
G37*
%TD.AperFunction*%
%TO.P,R13,1*%
%TO.N,Net-(D5-Pad2)*%
%TA.AperFunction,SMDPad,CuDef*%
G36*
G01*
X77375000Y-84654000D02*
X77375000Y-84104000D01*
G75*
G02*
X77575000Y-83904000I200000J0D01*
G01*
X77975000Y-83904000D01*
G75*
G02*
X78175000Y-84104000I0J-200000D01*
G01*
X78175000Y-84654000D01*
G75*
G02*
X77975000Y-84854000I-200000J0D01*
G01*
X77575000Y-84854000D01*
G75*
G02*
X77375000Y-84654000I0J200000D01*
G01*
G37*
%TD.AperFunction*%
%TD*%
%TO.P,D5,2*%
%TO.N,Net-(D5-Pad2)*%
%TA.AperFunction,SMDPad,CuDef*%
G36*
G01*
X75867750Y-83941500D02*
X76380250Y-83941500D01*
G75*
G02*
X76599000Y-84160250I0J-218750D01*
G01*
X76599000Y-84597750D01*
G75*
G02*
X76380250Y-84816500I-218750J0D01*
G01*
X75867750Y-84816500D01*
G75*
G02*
X75649000Y-84597750I0J218750D01*
G01*
X75649000Y-84160250D01*
G75*
G02*
X75867750Y-83941500I218750J0D01*
G01*
G37*
%TD.AperFunction*%
%TO.P,D5,1*%
%TO.N,GND1*%
%TA.AperFunction,SMDPad,CuDef*%
G36*
G01*
X75867750Y-82366500D02*
X76380250Y-82366500D01*
G75*
G02*
X76599000Y-82585250I0J-218750D01*
G01*
X76599000Y-83022750D01*
G75*
G02*
X76380250Y-83241500I-218750J0D01*
G01*
X75867750Y-83241500D01*
G75*
G02*
X75649000Y-83022750I0J218750D01*
G01*
X75649000Y-82585250D01*
G75*
G02*
X75867750Y-82366500I218750J0D01*
G01*
G37*
%TD.AperFunction*%
%TD*%
D25*
%TO.P,U3,4*%
%TO.N,Net-(D4-Pad2)*%
X123622000Y-77140000D03*
%TO.P,U3,3*%
%TO.N,+5VP*%
X123622000Y-79680000D03*
%TO.P,U3,2*%
%TO.N,Net-(F2-Pad2)*%
X123622000Y-89840000D03*
D26*
%TO.P,U3,1*%
%TO.N,Net-(J4-Pad1)*%
X123622000Y-97460000D03*
%TD*%
D18*
%TO.P,J2,6*%
%TO.N,+5V*%
X76251000Y-79680000D03*
%TO.P,J2,5*%
X76251000Y-80950000D03*
%TO.P,J2,4*%
%TO.N,GND1*%
X77521000Y-79680000D03*
%TO.P,J2,3*%
X77521000Y-80950000D03*
%TO.P,J2,2*%
%TO.N,+5P*%
X78791000Y-79680000D03*
D11*
%TO.P,J2,1*%
X78791000Y-80950000D03*
%TD*%
D20*
%TO.P,F2,2*%
%TO.N,Net-(F2-Pad2)*%
X122733000Y-85522000D03*
D12*
%TO.P,F2,1*%
%TO.N,AC*%
X122733000Y-93142000D03*
%TD*%
D28*
%TO.N,GNDPWR*%
X117018000Y-81077000D03*
D29*
X118669000Y-91110000D03*
X108763000Y-91110000D03*
D28*
X95174000Y-76505000D03*
X107112000Y-81077000D03*
X98730000Y-76505000D03*
X118589000Y-87681000D03*
X108683000Y-87681000D03*
X76124000Y-88697000D03*
X100960945Y-95063065D03*
X97057425Y-93755425D03*
X90729000Y-84125022D03*
X93978402Y-93274063D03*
D29*
%TO.N,+5VP*%
X89332000Y-90729000D03*
%TO.N,AC*%
X86919000Y-98730000D03*
%TO.N,+3.3VP*%
X91257678Y-94260868D03*
D28*
X102286000Y-87834000D03*
X94412000Y-94285000D03*
D30*
X99287627Y-93071744D03*
D28*
X104064000Y-81712000D03*
%TO.N,Net-(C9-Pad2)*%
X103571824Y-92141826D03*
%TO.N,Net-(C10-Pad1)*%
X106863013Y-89712998D03*
%TO.N,Net-(C11-Pad2)*%
X110282337Y-90352659D03*
%TO.N,Net-(C12-Pad1)*%
X116764000Y-89713000D03*
%TO.N,/L1_o1_nEn*%
X107112000Y-82601000D03*
X92888000Y-87500679D03*
%TO.N,/L1_o2_nEn*%
X93777000Y-84760000D03*
X110160000Y-82473998D03*
%TO.N,/SPI_MOSI*%
X91361034Y-88840237D03*
%TO.N,/SPI_MISO*%
X91764927Y-90528876D03*
%TO.N,/SPI_SCLK*%
X90960803Y-89882612D03*
%TO.N,/SPI_SSEL*%
X94936969Y-88973799D03*
%TO.N,/Int*%
X100662621Y-87172012D03*
X93899241Y-87490007D03*
%TO.N,Net-(C1-Pad1)*%
X107683500Y-77521000D03*
%TO.N,Net-(C2-Pad1)*%
X117589500Y-77559100D03*
%TO.N,Net-(D1-Pad1)*%
X107175500Y-75997000D03*
%TO.N,Net-(D2-Pad1)*%
X117081500Y-75997000D03*
%TO.N,+5V*%
X79425000Y-84379000D03*
%TO.N,Net-(C17-Pad2)*%
X93062000Y-94285000D03*
X92279000Y-84125020D03*
%TO.N,Net-(R27-Pad2)*%
X97737978Y-89373021D03*
X107096675Y-85632675D03*
%TO.N,/I2C_SDA*%
X96069875Y-90454535D03*
%TO.N,/I2C_SCL*%
X99024357Y-87311990D03*
X95030639Y-90502033D03*
%TO.N,/+5V_valid*%
X93777002Y-90475002D03*
%TD*%
D31*
%TO.N,+5P*%
X78791000Y-79680000D02*
X78791000Y-80950000D01*
X86411000Y-81458000D02*
X87427000Y-81458000D01*
X85903000Y-81966000D02*
X86411000Y-81458000D01*
X78791000Y-80950000D02*
X79807000Y-81966000D01*
X84379000Y-83490000D02*
X84379000Y-81966000D01*
X84379000Y-83617000D02*
X84379000Y-83490000D01*
X84379000Y-81966000D02*
X85903000Y-81966000D01*
X79807000Y-81966000D02*
X84379000Y-81966000D01*
D32*
%TO.N,GND1*%
X82982000Y-78537000D02*
X81458000Y-77013000D01*
X83718000Y-78537000D02*
X82982000Y-78537000D01*
X83718000Y-78537000D02*
X85268000Y-78537000D01*
X87046000Y-78537000D02*
X87427000Y-78918000D01*
X85268000Y-78537000D02*
X87046000Y-78537000D01*
D31*
X77521000Y-78664000D02*
X79172000Y-77013000D01*
X77521000Y-79680000D02*
X77521000Y-78664000D01*
X81458000Y-77013000D02*
X79172000Y-77013000D01*
X77521000Y-79680000D02*
X77521000Y-80950000D01*
D33*
X77521000Y-81407000D02*
X76124000Y-82804000D01*
X77521000Y-80950000D02*
X77521000Y-81407000D01*
D34*
%TO.N,GNDPWR*%
X118161000Y-91618000D02*
X118669000Y-91110000D01*
X118161000Y-91872000D02*
X118161000Y-91618000D01*
D35*
X97714000Y-76098000D02*
X98323000Y-76098000D01*
X98323000Y-76098000D02*
X98730000Y-76505000D01*
X99137000Y-76098000D02*
X98730000Y-76505000D01*
X99746000Y-76098000D02*
X99137000Y-76098000D01*
D34*
X108382000Y-91872000D02*
X108382000Y-91491000D01*
X108382000Y-91491000D02*
X108763000Y-91110000D01*
D36*
X106736000Y-80701000D02*
X107112000Y-81077000D01*
X106736000Y-79521000D02*
X106736000Y-80701000D01*
X116642000Y-80701000D02*
X117018000Y-81077000D01*
X116642000Y-79553000D02*
X116642000Y-80701000D01*
X101651000Y-85649000D02*
X101651000Y-84887000D01*
X102286000Y-86284000D02*
X101651000Y-85649000D01*
D33*
X101016000Y-95118120D02*
X100960945Y-95063065D01*
X101016000Y-96698000D02*
X101016000Y-95118120D01*
D37*
X97557000Y-93255850D02*
X97057425Y-93755425D01*
X97557000Y-91872000D02*
X97557000Y-93255850D01*
D36*
%TO.N,+5VP*%
X112433500Y-79680000D02*
X108750500Y-75997000D01*
X113716000Y-79680000D02*
X112433500Y-79680000D01*
X122339500Y-79680000D02*
X118656500Y-75997000D01*
X123622000Y-79680000D02*
X122339500Y-79680000D01*
D33*
%TO.N,AC*%
X88443000Y-98730000D02*
X86919000Y-98730000D01*
D34*
%TO.N,/Load1N*%
X108382000Y-94872000D02*
X108382000Y-96571000D01*
D38*
X108382000Y-97968000D02*
X108636000Y-98222000D01*
X108382000Y-96571000D02*
X108382000Y-97968000D01*
D34*
%TO.N,/Load2N*%
X118161000Y-94872000D02*
X118161000Y-96571000D01*
D38*
X118161000Y-97841000D02*
X118542000Y-98222000D01*
X118161000Y-96571000D02*
X118161000Y-97841000D01*
D37*
%TO.N,/I2C_Int*%
X88577001Y-82111500D02*
X88577001Y-79303997D01*
X87960501Y-82728000D02*
X88577001Y-82111500D01*
X86792000Y-82728000D02*
X87960501Y-82728000D01*
X86030000Y-83490000D02*
X86792000Y-82728000D01*
X86030000Y-84494002D02*
X86030000Y-83490000D01*
X84787001Y-85737001D02*
X86030000Y-84494002D01*
X82689001Y-85737001D02*
X84787001Y-85737001D01*
X81839000Y-84887000D02*
X82689001Y-85737001D01*
X89050999Y-78829999D02*
X88577001Y-79303997D01*
X91148999Y-78829999D02*
X89050999Y-78829999D01*
X91999000Y-79680000D02*
X91148999Y-78829999D01*
%TO.N,/+5V_state*%
X91872000Y-80950000D02*
X91872000Y-81204000D01*
X85187989Y-86237011D02*
X87427000Y-83998000D01*
X81931009Y-86237011D02*
X85187989Y-86237011D01*
X80988999Y-85295001D02*
X81931009Y-86237011D01*
X80988999Y-84467001D02*
X80988999Y-85295001D01*
X81839000Y-83617000D02*
X80988999Y-84467001D01*
X89586000Y-81839000D02*
X87427000Y-83998000D01*
X91110000Y-81839000D02*
X89586000Y-81839000D01*
X91999000Y-80950000D02*
X91110000Y-81839000D01*
D39*
%TO.N,+3.3VP*%
X84252000Y-90221000D02*
X79553000Y-90221000D01*
X86938999Y-92907999D02*
X84252000Y-90221000D01*
X89904809Y-92907999D02*
X86938999Y-92907999D01*
X91257678Y-94260868D02*
X89904809Y-92907999D01*
D33*
X102286000Y-87834000D02*
X102286000Y-87834000D01*
X100807000Y-86132389D02*
X101462622Y-86788011D01*
X100807000Y-86072000D02*
X100807000Y-86132389D01*
X101462622Y-86788011D02*
X101462622Y-87010622D01*
X101462622Y-87010622D02*
X102286000Y-87834000D01*
D36*
X104463254Y-81712000D02*
X104064000Y-81712000D01*
X106749254Y-83998000D02*
X104463254Y-81712000D01*
X107112000Y-83998000D02*
X106749254Y-83998000D01*
D33*
%TO.N,Net-(D5-Pad2)*%
X77775000Y-84379000D02*
X76124000Y-84379000D01*
D37*
%TO.N,Net-(C9-Pad2)*%
X100807000Y-91872000D02*
X103301998Y-91872000D01*
X103301998Y-91872000D02*
X103571824Y-92141826D01*
D35*
%TO.N,Net-(C10-Pad1)*%
X106609015Y-89459000D02*
X106863013Y-89712998D01*
X103937000Y-89459000D02*
X106609015Y-89459000D01*
X102667000Y-90729000D02*
X103937000Y-89459000D01*
X100550000Y-90729000D02*
X102667000Y-90729000D01*
X100157000Y-91122000D02*
X100550000Y-90729000D01*
X100157000Y-91872000D02*
X100157000Y-91122000D01*
%TO.N,Net-(C11-Pad2)*%
X103771602Y-88987988D02*
X108917666Y-88987988D01*
X108917666Y-88987988D02*
X110282337Y-90352659D01*
X100361187Y-90278989D02*
X102480601Y-90278989D01*
X102480601Y-90278989D02*
X103771602Y-88987988D01*
X99507000Y-91133176D02*
X100361187Y-90278989D01*
X99507000Y-91872000D02*
X99507000Y-91133176D01*
%TO.N,Net-(C12-Pad1)*%
X98857000Y-91146766D02*
X98857000Y-91872000D01*
X100174787Y-89828978D02*
X98857000Y-91146766D01*
X102294201Y-89828978D02*
X100174787Y-89828978D01*
X103585202Y-88537977D02*
X102294201Y-89828978D01*
X109619977Y-88537977D02*
X103585202Y-88537977D01*
X115621000Y-91491000D02*
X112573000Y-91491000D01*
X112573000Y-91491000D02*
X109619977Y-88537977D01*
X116764000Y-90348000D02*
X115621000Y-91491000D01*
X116764000Y-89713000D02*
X116764000Y-90348000D01*
D33*
%TO.N,Net-(C13-Pad2)*%
X99191000Y-96698000D02*
X97380000Y-96698000D01*
X99116000Y-96623000D02*
X99191000Y-96698000D01*
X99116000Y-94539000D02*
X99116000Y-96623000D01*
D37*
X98207000Y-93630000D02*
X99116000Y-94539000D01*
X98207000Y-91872000D02*
X98207000Y-93630000D01*
D35*
%TO.N,Net-(C18-Pad2)*%
X98730000Y-78664000D02*
X99746000Y-77648000D01*
X98730000Y-80315000D02*
X98730000Y-78664000D01*
X98857000Y-86072000D02*
X98932003Y-85996997D01*
X98932003Y-85996997D02*
X98932003Y-84826635D01*
X98730000Y-84624632D02*
X98730000Y-80315000D01*
X98932003Y-84826635D02*
X98730000Y-84624632D01*
D37*
%TO.N,/L1_o2_nEn*%
X110160000Y-82474000D02*
X110160000Y-82473998D01*
X116892000Y-82474000D02*
X110160000Y-82474000D01*
X117019000Y-82601000D02*
X116892000Y-82474000D01*
%TO.N,/SPI_MOSI*%
X91361034Y-87705285D02*
X91361034Y-88840237D01*
X92994319Y-86072000D02*
X91361034Y-87705285D01*
X96257000Y-86072000D02*
X92994319Y-86072000D01*
%TO.N,/SPI_MISO*%
X96257000Y-91872000D02*
X93108051Y-91872000D01*
X93108051Y-91872000D02*
X91764927Y-90528876D01*
%TO.N,/SPI_SCLK*%
X96907000Y-86072000D02*
X96907000Y-86637878D01*
X96907000Y-86637878D02*
X95470880Y-88073998D01*
X95470880Y-88073998D02*
X94559998Y-88073998D01*
X92920996Y-89713000D02*
X91130415Y-89713000D01*
X94559998Y-88073998D02*
X92920996Y-89713000D01*
X91130415Y-89713000D02*
X90960803Y-89882612D01*
%TO.N,/SPI_SSEL*%
X97557000Y-86872000D02*
X95455201Y-88973799D01*
X97557000Y-86072000D02*
X97557000Y-86872000D01*
X95455201Y-88973799D02*
X94936969Y-88973799D01*
%TO.N,/Int*%
X100157000Y-86072000D02*
X100157000Y-86666391D01*
X100157000Y-86666391D02*
X100662621Y-87172012D01*
%TO.N,Net-(Q1-Pad1)*%
X108763000Y-80442000D02*
X108636000Y-80315000D01*
X108763000Y-81077000D02*
X108763000Y-80442000D01*
X108636000Y-79521000D02*
X108636000Y-80315000D01*
X108763000Y-82601000D02*
X108763000Y-81077000D01*
%TO.N,Net-(Q2-Pad1)*%
X118669000Y-80442000D02*
X118542000Y-80315000D01*
X118669000Y-81077000D02*
X118669000Y-80442000D01*
X118542000Y-79553000D02*
X118542000Y-80315000D01*
X118669000Y-81077000D02*
X118669000Y-82601000D01*
D32*
%TO.N,Net-(C6-Pad2)*%
X83718000Y-76987000D02*
X85268000Y-76987000D01*
X86818000Y-76987000D02*
X87427000Y-76378000D01*
X85268000Y-76987000D02*
X86818000Y-76987000D01*
D37*
%TO.N,Net-(C14-Pad2)*%
X95682002Y-93777000D02*
X95529000Y-93777000D01*
X96907000Y-92552002D02*
X95682002Y-93777000D01*
X96907000Y-91872000D02*
X96907000Y-92552002D01*
D33*
%TO.N,Net-(D6-Pad2)*%
X77852000Y-90272000D02*
X77903000Y-90221000D01*
X76124000Y-90272000D02*
X77852000Y-90272000D01*
%TO.N,Net-(R11-Pad2)*%
X90268000Y-98730000D02*
X90268000Y-97794000D01*
X90602000Y-97460000D02*
X91999000Y-97460000D01*
X90268000Y-97794000D02*
X90602000Y-97460000D01*
%TO.N,Net-(R11-Pad1)*%
X94586000Y-96698000D02*
X93824000Y-97460000D01*
X95555000Y-96698000D02*
X94586000Y-96698000D01*
D35*
%TO.N,Net-(R26-Pad1)*%
X99578000Y-83022000D02*
X99618000Y-82982000D01*
X99507000Y-83093000D02*
X99618000Y-82982000D01*
X99507000Y-86072000D02*
X99507000Y-83093000D01*
D37*
%TO.N,Net-(R27-Pad2)*%
X97714000Y-89349043D02*
X97737978Y-89373021D01*
X97714000Y-87681000D02*
X97714000Y-89349043D01*
X98207000Y-87188000D02*
X97714000Y-87681000D01*
X98207000Y-86072000D02*
X98207000Y-87188000D01*
%TO.N,/I2C_SDA*%
X96090340Y-90475000D02*
X96069875Y-90454535D01*
X98857000Y-90475000D02*
X96090340Y-90475000D01*
X102041949Y-89344146D02*
X99987854Y-89344146D01*
X102752085Y-88634010D02*
X102041949Y-89344146D01*
X102774180Y-88634010D02*
X102752085Y-88634010D01*
X103111010Y-88297180D02*
X102774180Y-88634010D01*
X103111010Y-88275085D02*
X103111010Y-88297180D01*
X105041001Y-86345094D02*
X103111010Y-88275085D01*
X105041001Y-83208999D02*
X105041001Y-86345094D01*
X104599001Y-82766999D02*
X105041001Y-83208999D01*
X103771001Y-82766999D02*
X104599001Y-82766999D01*
X99987854Y-89344146D02*
X98857000Y-90475000D01*
X102921000Y-83617000D02*
X103771001Y-82766999D01*
D35*
%TO.N,Net-(C19-Pad2)*%
X97530000Y-82544000D02*
X97968000Y-82982000D01*
X97530000Y-80315000D02*
X97530000Y-82544000D01*
X97530000Y-77832000D02*
X97714000Y-77648000D01*
X97530000Y-80315000D02*
X97530000Y-77832000D01*
%TD*%
M02*
